<?xml version="1.0" standalone="no"?>
<!DOCTYPE svg PUBLIC "-//W3C//DTD SVG 20010904//EN"
 "http://www.w3.org/TR/2001/REC-SVG-20010904/DTD/svg10.dtd">
<svg version="1.0" xmlns="http://www.w3.org/2000/svg"
 width="642.000000pt" height="986.000000pt" viewBox="0 0 642.000000 986.000000"
 preserveAspectRatio="xMidYMid meet">

<g transform="translate(0.000000,986.000000) scale(0.100000,-0.100000)"
fill="#000000" stroke="none">
<path d="M3745 9504 c-297 -18 -661 -36 -809 -40 l-270 -7 -39 -36 c-47 -42
-169 -204 -303 -401 -174 -258 -359 -490 -390 -490 -7 0 -25 -17 -38 -37 -38
-61 -268 -273 -295 -273 -7 0 -32 -19 -55 -42 -60 -62 -490 -351 -604 -407
-53 -26 -150 -69 -216 -97 -135 -56 -161 -80 -176 -165 -16 -91 -34 -974 -21
-1043 6 -33 11 -61 11 -62 0 -7 236 -179 325 -237 126 -82 300 -170 385 -194
92 -26 454 -26 582 0 130 26 281 72 423 127 70 28 129 49 131 48 1 -2 7 -264
14 -583 6 -319 15 -641 20 -715 5 -74 9 -268 10 -430 0 -162 8 -403 17 -535
14 -198 17 -431 18 -1345 1 -608 6 -1227 10 -1377 l8 -272 31 -30 c55 -52 298
-221 401 -278 55 -31 143 -80 195 -109 177 -99 76 -89 925 -86 734 3 1484 16
1597 28 102 11 92 -49 102 621 5 363 4 898 -2 1398 -6 446 -10 871 -9 945 1
74 -3 1026 -8 2115 -12 2442 -12 2262 -1 2905 9 560 6 676 -22 710 -10 11 -44
27 -77 36 -72 18 -221 88 -365 171 -240 138 -380 199 -494 213 -135 17 -445 9
-1011 -26z m575 -97 c-87 -53 -288 -194 -365 -257 -38 -31 -99 -76 -135 -100
l-65 -43 -120 -5 c-66 -2 -117 -2 -114 2 3 3 34 24 70 47 92 59 427 306 469
345 38 35 44 36 245 42 l70 2 -55 -33z m319 29 c-2 -2 -78 -53 -169 -114 -91
-61 -212 -149 -270 -194 l-105 -83 -80 -5 c-44 -4 -81 -6 -83 -5 -6 4 235 159
335 215 114 64 223 150 223 176 0 11 17 14 77 14 42 0 74 -2 72 -4z m213 -37
c26 -17 48 -33 48 -34 0 -2 -28 -20 -62 -41 -35 -21 -146 -90 -248 -154 l-185
-117 -102 -6 c-57 -3 -103 -3 -103 1 0 4 22 18 48 31 26 13 88 49 137 81 301
190 353 224 380 245 17 13 32 24 34 25 2 0 26 -14 53 -31z m-962 -17 c-19 -15
-103 -84 -186 -153 -83 -69 -176 -145 -207 -169 l-57 -42 -75 35 c-41 20 -75
38 -75 41 0 2 42 27 94 55 142 75 267 155 323 205 45 41 55 45 109 49 32 2 70
4 84 5 24 2 23 1 -10 -26z m-300 1 c-1 -8 -167 -135 -250 -191 -25 -16 -56
-41 -69 -56 l-24 -25 -89 46 -89 46 55 22 c30 12 96 50 146 83 80 53 99 61
153 66 34 3 76 8 92 9 57 7 75 7 75 0z m-410 -63 c-25 -22 -69 -51 -98 -65
l-53 -26 -40 23 -40 22 38 19 c21 11 52 30 68 43 25 20 42 24 100 24 l70 -1
-45 -39z m-190 26 c0 -6 -66 -46 -76 -46 -5 0 -22 11 -39 25 l-30 24 73 1 c39
0 72 -2 72 -4z m2031 -46 c22 -12 37 -25 34 -30 -4 -6 -32 -28 -63 -49 -31
-21 -87 -66 -123 -99 l-65 -60 -132 -4 c-72 -2 -128 0 -124 3 4 4 77 43 162
88 85 45 180 102 210 126 30 24 56 44 58 45 1 0 21 -9 43 -20z m-2261 -75
c128 -66 122 -52 109 -265 -15 -244 -28 -355 -69 -580 -22 -118 -40 -229 -40
-247 0 -27 -17 -47 -132 -156 -180 -168 -214 -197 -204 -172 23 59 134 582
150 706 8 63 20 195 26 294 6 99 15 213 20 253 6 40 10 104 10 141 0 60 4 81
17 81 3 0 53 -25 113 -55z m2427 -18 c10 -7 -4 -22 -50 -57 -34 -26 -71 -57
-81 -69 -16 -18 -30 -21 -95 -21 l-76 1 33 27 c47 38 235 140 247 134 6 -3 16
-9 22 -15z m163 -92 l85 -44 -165 -1 -165 0 75 45 c41 25 77 45 80 45 3 0 43
-20 90 -45z m-2826 -22 c-2 -10 -11 -128 -19 -263 -19 -290 -26 -350 -70 -580
-18 -96 -41 -249 -50 -340 l-16 -165 -32 -27 c-56 -49 -253 -198 -260 -198 -4
0 -3 8 2 18 23 43 86 350 110 543 7 46 22 161 36 254 47 334 56 405 50 427 -5
18 11 45 72 123 43 55 98 128 123 162 46 64 61 76 54 46z m525 -39 l81 -45 0
-107 c0 -111 -11 -228 -31 -346 -11 -59 -20 -78 -71 -145 -68 -88 -190 -229
-199 -230 -4 -1 1 26 12 58 48 157 97 474 115 754 3 59 8 107 9 107 2 0 39
-21 84 -46z m211 -109 c28 -14 50 -31 50 -39 0 -29 -33 -105 -86 -199 -31 -54
-57 -97 -59 -95 -1 2 4 50 11 108 7 58 13 138 14 178 0 42 4 72 10 72 6 0 33
-11 60 -25z m2303 -34 c19 -8 26 -20 32 -58 5 -26 7 -403 5 -838 -10 -2839
-15 -7258 -8 -7404 l3 -64 -810 -1 c-759 -2 -1000 -8 -1405 -38 l-35 -3 -1
490 c-1 275 -7 545 -13 615 -7 74 -14 444 -17 910 -10 1752 -25 3155 -34 3320
-5 96 -9 362 -9 590 0 229 -3 429 -7 445 -10 44 -22 55 -63 55 -33 0 -46 -11
-171 -139 -255 -262 -352 -336 -604 -463 -278 -139 -443 -195 -751 -253 -104
-20 -197 -37 -207 -39 -20 -4 -24 36 -38 379 -6 127 -14 282 -20 345 -14 166
-13 300 3 304 6 2 43 10 81 20 138 33 343 139 601 311 159 106 268 192 470
368 516 451 717 686 853 998 l37 87 55 6 c30 4 309 9 620 12 540 4 670 9 985
38 169 16 414 20 448 7z m-3387 -258 c-2 -10 -7 -49 -11 -88 -4 -38 -17 -144
-30 -235 -13 -91 -29 -210 -35 -265 -6 -55 -29 -210 -51 -345 -33 -203 -43
-248 -60 -262 -22 -19 -294 -178 -304 -178 -3 0 -1 9 4 19 24 44 102 282 135
409 62 240 99 443 112 610 l7 93 111 129 c109 126 132 147 122 113z m-330
-369 c-4 -14 -18 -98 -31 -187 -13 -89 -46 -252 -74 -362 -27 -110 -57 -240
-66 -290 -9 -49 -27 -117 -38 -150 -24 -65 -48 -84 -154 -125 -42 -16 -58 -17
-77 -9 l-24 11 34 102 c19 55 46 157 60 226 14 69 37 164 50 211 14 47 39 154
57 238 l33 151 114 105 c63 57 117 105 119 105 2 0 0 -12 -3 -26z m-331 -310
c-3 -25 -24 -116 -46 -202 -22 -86 -55 -248 -74 -360 -19 -112 -37 -207 -40
-211 -3 -5 -53 18 -112 50 -60 32 -112 60 -118 62 -5 2 3 30 18 63 14 33 36
100 47 148 12 48 34 120 50 161 18 43 30 92 30 118 l0 45 83 55 c45 31 100 69
122 86 22 17 42 31 44 31 2 0 0 -21 -4 -46z m-339 -300 c-19 -71 -44 -172 -56
-224 -12 -52 -26 -99 -30 -104 -5 -4 -39 8 -77 29 -118 64 -112 48 -70 172 21
60 37 115 37 123 0 9 45 40 112 77 62 34 114 60 115 59 1 -1 -13 -60 -31 -132z
m-276 -41 c0 -14 -31 -157 -35 -161 -4 -5 -144 78 -151 89 -3 5 3 9 13 9 10 1
50 16 88 35 75 36 85 39 85 28z m-107 -278 c151 -105 176 -129 237 -230 53
-88 138 -195 226 -285 l54 -56 6 -164 c4 -137 3 -162 -8 -146 -7 10 -66 98
-130 197 -64 98 -144 214 -177 258 -72 96 -157 222 -235 348 -31 51 -68 101
-81 111 -22 17 -35 52 -20 52 3 0 60 -38 128 -85z m-84 -71 c44 -87 216 -354
290 -449 68 -87 101 -136 171 -260 88 -154 130 -215 146 -215 11 0 14 -19 14
-85 0 -47 -4 -85 -9 -85 -11 0 -97 89 -153 160 -124 154 -258 349 -379 548
-41 68 -86 136 -101 150 -27 27 -27 27 -28 176 0 82 2 147 4 145 3 -3 23 -41
45 -85z m593 -257 c3 -23 7 -62 7 -87 l1 -44 -61 59 c-53 53 -184 202 -201
230 -4 6 51 -18 120 -53 l127 -62 7 -43z m-556 -152 c117 -227 297 -509 394
-620 91 -103 105 -119 114 -134 5 -8 -50 17 -122 55 l-132 68 -82 110 c-45 60
-106 155 -136 210 -59 109 -110 186 -124 186 -4 0 -8 64 -8 143 l0 142 20 -25
c11 -14 45 -74 76 -135z m2399 -302 c-4 -65 -10 -112 -12 -105 -7 20 -53 39
-112 47 l-53 7 88 89 c48 49 90 86 92 84 3 -2 1 -57 -3 -122z m-2405 -38 c32
-66 68 -135 80 -152 12 -18 20 -33 17 -33 -3 0 -46 25 -97 55 -51 30 -96 56
-101 57 -4 2 -3 54 3 117 14 135 11 136 98 -44z m2282 -86 c63 -32 87 -35 107
-16 11 10 13 4 7 -37 -3 -27 -6 -73 -6 -103 0 -52 -1 -53 -22 -42 -20 11 -322
109 -334 109 -3 0 30 29 73 64 86 71 84 71 175 25z m-254 -158 c84 -42 276
-120 319 -129 28 -6 39 -14 44 -32 8 -30 11 -100 4 -100 -3 0 -47 17 -98 38
-50 21 -104 42 -119 46 -16 3 -76 29 -136 56 -59 27 -131 54 -161 61 l-53 11
68 39 c38 21 70 38 72 39 1 0 28 -13 60 -29z m-218 -80 c0 -23 233 -142 380
-195 52 -18 122 -45 155 -59 l60 -26 3 -77 c2 -60 0 -75 -10 -71 -167 74 -369
168 -450 210 -57 30 -115 58 -130 61 -28 6 -28 7 -28 91 0 50 4 85 10 85 6 0
10 -9 10 -19z m61 -243 c91 -60 359 -207 419 -229 30 -12 72 -23 93 -26 l37
-6 0 -104 0 -104 -147 77 c-82 43 -193 105 -248 139 -55 34 -130 78 -167 99
l-68 38 0 84 c0 66 3 83 13 77 6 -4 37 -25 68 -45z m-11 -230 c56 -45 264
-168 407 -243 157 -80 155 -78 151 -158 l-3 -66 -92 60 c-51 33 -145 87 -209
120 -121 62 -207 116 -281 176 -43 34 -43 35 -43 100 0 51 3 63 13 56 6 -5 32
-26 57 -45z m69 -258 c36 -26 103 -70 150 -96 47 -26 143 -83 214 -128 l127
-81 0 -67 0 -68 -72 36 c-125 62 -338 193 -445 273 l-102 76 -1 79 0 79 33
-27 c17 -15 61 -49 96 -76z m167 -338 c87 -57 196 -122 241 -145 l83 -42 0
-87 c0 -49 -3 -88 -6 -88 -3 0 -40 29 -81 65 -42 35 -174 128 -294 205 -120
78 -221 144 -223 148 -2 4 -8 45 -12 92 l-7 85 70 -66 c38 -36 141 -111 229
-167z m-161 -104 c55 -41 129 -94 165 -118 36 -24 122 -88 193 -142 l127 -100
0 -99 c0 -68 -3 -98 -11 -94 -5 4 -63 52 -127 107 -64 55 -184 149 -267 208
-82 59 -161 117 -174 127 -21 17 -24 29 -29 113 -4 81 -3 93 9 84 8 -6 59 -44
114 -86z m103 -346 c55 -42 164 -128 241 -191 l141 -114 0 -94 0 -94 -32 23
c-18 12 -64 52 -103 87 -69 63 -130 110 -290 225 -44 31 -100 74 -124 95 l-44
38 -5 104 -5 103 61 -52 c33 -29 105 -87 160 -130z m-1 -276 c56 -42 157 -124
224 -182 67 -58 130 -111 140 -117 15 -9 19 -24 19 -64 l0 -52 -172 129 c-95
72 -228 181 -295 243 l-122 112 -1 55 0 54 53 -50 c28 -28 98 -86 154 -128z
m-63 -150 c39 -38 141 -123 226 -189 232 -180 220 -166 220 -260 l0 -79 -39
34 c-181 155 -363 323 -448 413 l-103 107 0 66 0 66 37 -45 c20 -24 68 -75
107 -113z m61 -292 c77 -77 195 -193 263 -256 l123 -116 -3 -77 -3 -78 -74 89
c-40 49 -171 189 -291 311 l-217 222 -2 83 -1 83 32 -60 c23 -41 78 -105 173
-201z m-164 -41 c13 -21 80 -96 150 -168 70 -71 190 -202 268 -290 l140 -160
0 -85 0 -85 -130 134 c-71 74 -175 191 -231 260 -56 69 -127 155 -158 191
l-57 65 -7 88 c-4 48 -5 87 -2 87 2 0 15 -17 27 -37z m224 -540 c66 -76 168
-187 228 -247 l108 -109 -3 -74 -3 -74 -195 205 c-107 114 -212 232 -235 263
-22 31 -61 80 -87 108 l-48 52 0 88 0 87 58 -80 c31 -44 111 -143 177 -219z
m-170 -59 c27 -42 128 -161 225 -263 96 -103 201 -216 233 -253 l57 -65 0
-109 0 -108 -30 34 c-16 19 -77 101 -134 181 -71 98 -156 199 -260 308 l-156
163 0 94 c0 52 3 94 8 94 4 0 29 -35 57 -76z m79 -373 c159 -195 192 -238 263
-340 36 -53 90 -126 119 -163 l54 -67 0 -125 c0 -73 -4 -126 -9 -126 -6 0 -30
25 -55 55 -42 52 -77 107 -184 291 -22 39 -79 122 -126 184 -47 62 -101 140
-120 174 -19 34 -46 72 -60 85 -24 23 -26 31 -26 109 l0 85 21 -19 c12 -10 67
-75 123 -143z m-101 -193 c19 -40 71 -121 114 -180 44 -59 111 -166 149 -238
85 -162 153 -253 222 -299 l52 -35 0 -91 -1 -90 -30 35 c-17 19 -49 62 -73 95
-23 33 -112 159 -197 280 -86 121 -174 252 -196 290 -23 39 -50 79 -62 89 -19
17 -21 30 -21 118 0 54 2 98 4 98 2 0 20 -33 39 -72z m32 -389 c15 -24 55 -82
90 -129 34 -47 106 -149 159 -227 54 -79 137 -189 184 -245 l86 -102 7 -95 c5
-53 8 -114 8 -136 l0 -40 -32 53 c-81 135 -173 268 -271 392 -131 165 -215
289 -267 392 -39 77 -39 79 -39 190 l1 113 24 -61 c13 -34 35 -81 50 -105z
m-19 -334 c18 -38 74 -124 125 -190 103 -136 202 -281 342 -503 l97 -153 0
-89 c0 -50 -3 -90 -7 -90 -5 1 -22 20 -39 43 -30 41 -58 90 -177 303 -31 56
-103 164 -159 240 -57 77 -124 175 -150 219 -26 44 -56 92 -67 107 -18 23 -21
40 -20 130 0 83 2 98 11 78 6 -14 26 -56 44 -95z m-27 -206 c13 -34 78 -144
150 -252 152 -230 149 -225 246 -407 42 -80 101 -177 131 -217 l55 -71 -3 -96
-3 -95 -48 57 c-26 31 -71 95 -99 142 -29 47 -106 171 -173 275 -67 105 -150
242 -185 305 -35 63 -71 126 -82 139 -15 20 -18 43 -18 152 0 71 2 129 4 129
2 0 13 -27 25 -61z m5 -371 c16 -43 61 -135 102 -205 41 -71 120 -208 176
-306 56 -97 128 -209 160 -248 32 -40 57 -73 55 -75 -2 -2 -47 20 -100 48 -73
39 -96 56 -92 68 6 17 -59 115 -140 210 -25 30 -67 98 -92 150 -57 118 -79
150 -105 150 -20 0 -21 4 -15 83 4 45 7 113 7 152 0 38 4 65 8 60 5 -6 21 -45
36 -87z m10 -488 c10 -19 30 -50 43 -68 14 -18 23 -35 21 -37 -2 -3 -34 17
-71 43 l-68 47 6 44 c3 24 5 67 5 95 l1 51 23 -70 c12 -38 31 -86 40 -105z"/>
</g>
</svg>
