<svg xmlns="http://www.w3.org/2000/svg" viewBox="0 0 87.11 75.07"><defs><style>.cls-1{fill:#231f20;}</style></defs><g id="Layer_2" data-name="Layer 2"><g id="Layer_1-2" data-name="Layer 1"><path class="cls-1" d="M63.17,3.5A21.44,21.44,0,0,1,82.31,15.73a17.63,17.63,0,0,1-.51,14.42c-4.52,9.91-29.38,32.21-37.55,39.53l-.7.63-.69-.63c-8.17-7.32-33-29.62-37.55-39.53A17.63,17.63,0,0,1,4.8,15.73,20.42,20.42,0,0,1,15.56,5.3a20.4,20.4,0,0,1,8.38-1.8,20.72,20.72,0,0,1,5.53.76C33.52,5.4,37.61,8.56,40.69,13L43.55,17,46.42,13C49.5,8.56,53.59,5.4,57.64,4.26a20.72,20.72,0,0,1,5.53-.76m0-3.5a24,24,0,0,0-6.48.89c-5.21,1.46-9.9,5.45-13.14,10-3.23-4.6-7.92-8.59-13.14-10A23.9,23.9,0,0,0,14.13,2.11,23.71,23.71,0,0,0,1.57,14.38a21.21,21.21,0,0,0,.55,17.23C8,44.44,43.37,74.56,43.55,75.07c.19-.51,35.58-30.63,41.43-43.46a21.18,21.18,0,0,0,.56-17.23A23.75,23.75,0,0,0,73,2.11,23.91,23.91,0,0,0,63.17,0Z"/><path class="cls-1" d="M63,22.33a12.5,12.5,0,0,1,5.17,1.12,12.63,12.63,0,0,1,6.67,6.44,10.88,10.88,0,0,1-.33,8.85C72.58,43,64.26,51.77,49.8,64.8,35.34,51.77,27,43,25.08,38.74a10.88,10.88,0,0,1-.33-8.85,12.63,12.63,0,0,1,6.67-6.44,12.5,12.5,0,0,1,5.17-1.12A12.7,12.7,0,0,1,40,22.8a13.73,13.73,0,0,1,6.93,5.43l2.87,4.1,2.87-4.1A13.69,13.69,0,0,1,59.6,22.8,12.7,12.7,0,0,1,63,22.33m0-3.5a16.38,16.38,0,0,0-4.36.6,17.11,17.11,0,0,0-8.85,6.79A17.11,17.11,0,0,0,41,19.43a16.38,16.38,0,0,0-4.36-.6A16,16,0,0,0,30,20.26a16,16,0,0,0-8.46,8.29,14.37,14.37,0,0,0,.37,11.64c3.95,8.67,26.89,29,27,29.36C49,69.2,73.76,48.86,77.7,40.19a14.34,14.34,0,0,0,.38-11.64A16.82,16.82,0,0,0,63,18.83Z"/><path class="cls-1" d="M63.4,38.35a5.68,5.68,0,0,1,2.26.47,5.4,5.4,0,0,1,2.88,2.66,4.19,4.19,0,0,1-.16,3.45c-.66,1.4-3.34,4.74-12.31,12.69-9-7.95-11.64-11.29-12.3-12.69a4.19,4.19,0,0,1-.16-3.45,5.37,5.37,0,0,1,2.88-2.66,5.68,5.68,0,0,1,2.26-.47,5.4,5.4,0,0,1,1.49.2,6,6,0,0,1,3,2.34l2.84,4,2.85-4a6,6,0,0,1,3-2.34,5.4,5.4,0,0,1,1.49-.2m0-3.5a9.35,9.35,0,0,0-2.42.32,9.46,9.46,0,0,0-4.91,3.68,8.5,8.5,0,0,0-7.32-4,9,9,0,0,0-3.67.77,8.79,8.79,0,0,0-4.69,4.49,7.61,7.61,0,0,0,.21,6.3C42.79,51.1,56,62.12,56.07,62.31c.07-.19,13.29-11.21,15.48-15.9a7.61,7.61,0,0,0,.21-6.3,8.83,8.83,0,0,0-4.69-4.49,9,9,0,0,0-3.67-.77Z"/></g></g></svg>