<?xml version="1.0" standalone="no"?>
<!DOCTYPE svg PUBLIC "-//W3C//DTD SVG 20010904//EN"
 "http://www.w3.org/TR/2001/REC-SVG-20010904/DTD/svg10.dtd">
<svg version="1.0" xmlns="http://www.w3.org/2000/svg"
 width="770.000000pt" height="972.000000pt" viewBox="0 0 770.000000 972.000000"
 preserveAspectRatio="xMidYMid meet">

<g transform="translate(0.000000,972.000000) scale(0.100000,-0.100000)"
fill="#000000" stroke="none">
<path d="M3730 9294 c-348 -32 -779 -119 -1155 -232 -583 -176 -1028 -427
-1344 -758 -320 -335 -594 -842 -770 -1426 -52 -172 -161 -686 -161 -758 0
-83 50 -145 192 -237 125 -81 391 -274 448 -326 30 -28 75 -63 99 -79 l45 -28
416 0 c229 0 661 3 959 7 480 6 543 8 551 22 4 9 11 179 14 379 3 199 11 415
17 480 21 214 78 382 186 544 62 94 208 240 300 301 195 129 425 195 650 185
91 -4 97 -5 119 -33 33 -42 99 -180 123 -258 63 -206 42 -451 -59 -688 -86
-204 -260 -427 -490 -630 -115 -102 -238 -195 -575 -435 -471 -336 -677 -499
-945 -746 -425 -392 -812 -930 -1110 -1542 -253 -518 -412 -1027 -550 -1758
-22 -117 -49 -242 -60 -278 -69 -224 -18 -301 310 -465 79 -39 163 -93 271
-175 87 -65 189 -133 230 -153 l74 -34 255 -8 c140 -4 487 -10 770 -13 759 -9
3873 -3 4175 8 394 14 529 47 567 140 6 14 14 191 19 415 4 215 15 494 24 620
19 261 15 422 -14 560 -23 109 -22 108 -259 256 -91 56 -189 121 -216 144 -58
47 -186 126 -241 149 -42 18 -127 21 -171 6 -28 -9 -2004 -20 -2004 -11 0 13
92 169 150 256 309 459 925 1113 1545 1639 184 156 252 222 341 331 40 50 107
131 149 180 100 118 226 307 282 423 186 388 265 1038 188 1557 -116 783 -641
1476 -1488 1964 -435 250 -874 421 -1257 487 -92 15 -492 27 -600 18z m442
-156 c94 -110 172 -189 221 -225 26 -20 46 -37 44 -39 -2 -2 -52 -9 -111 -15
l-108 -12 -46 45 c-26 25 -83 69 -127 98 -44 29 -105 74 -135 100 -30 26 -70
57 -89 68 -34 20 -34 21 -10 26 40 9 89 13 201 14 l107 2 53 -62z m211 13
l116 -29 130 -119 131 -118 -77 -3 c-49 -2 -79 1 -81 8 -2 6 -18 18 -35 27
-46 23 -297 206 -326 237 l-24 26 25 0 c14 0 78 -13 141 -29z m-569 -85 c53
-57 134 -132 181 -167 46 -35 85 -67 85 -70 0 -3 -43 -13 -96 -22 l-96 -17
-72 67 c-39 37 -93 91 -119 120 -27 29 -83 74 -124 100 -42 26 -72 48 -67 50
14 4 187 41 201 42 6 1 54 -46 107 -103z m-240 -106 c131 -140 178 -198 169
-203 -4 -2 -42 -12 -83 -21 l-76 -16 -183 178 -184 179 114 19 114 20 16 -25
c9 -15 60 -73 113 -131z m-349 3 c38 -54 108 -137 154 -185 47 -49 83 -89 80
-91 -2 -2 -52 -17 -110 -34 l-107 -30 -12 41 c-17 57 -37 83 -172 228 l-119
126 78 17 c43 9 83 18 88 20 38 13 52 2 120 -92z m1585 62 c52 -15 100 -30
105 -33 6 -4 37 -35 69 -69 l59 -62 -69 5 c-65 6 -71 9 -103 46 -18 21 -67 62
-107 89 -68 46 -92 68 -61 56 6 -2 55 -17 107 -32z m-1876 -88 c21 -36 67 -99
103 -142 56 -68 131 -183 126 -194 -4 -9 -203 -78 -203 -70 0 5 -15 28 -33 52
-19 24 -52 79 -76 121 -23 42 -71 115 -107 162 -36 47 -64 87 -62 88 7 6 203
53 209 50 3 -2 23 -32 43 -67z m-230 -174 c47 -93 104 -192 127 -222 22 -29
39 -54 37 -56 -27 -21 -198 -86 -198 -75 0 5 9 10 21 12 19 3 17 7 -18 55 -21
28 -65 91 -98 139 -33 48 -92 121 -132 163 -40 41 -71 77 -69 79 8 7 211 71
227 72 12 0 44 -52 103 -167z m2595 65 c35 -16 62 -31 60 -32 -2 -2 -46 7 -96
20 -83 21 -98 28 -140 69 l-48 46 80 -37 c44 -20 109 -50 144 -66z m-2804
-248 c68 -107 125 -199 125 -205 0 -5 -30 -26 -67 -46 l-66 -37 -45 52 c-24
28 -91 121 -148 206 -57 85 -115 169 -129 186 l-26 32 88 35 88 36 27 -32 c15
-18 84 -120 153 -227z m-349 55 c74 -182 158 -326 219 -373 14 -11 25 -22 25
-25 0 -12 -165 -118 -168 -109 -7 22 -203 299 -294 415 -41 53 -57 82 -50 89
19 19 197 108 212 105 9 -1 32 -44 56 -102z m2904 80 c223 -34 424 -99 620
-202 521 -275 947 -742 1155 -1267 109 -275 151 -537 142 -896 -11 -432 -77
-761 -204 -1014 -79 -158 -220 -361 -328 -471 -30 -31 -74 -86 -99 -123 -54
-80 -83 -109 -341 -332 -779 -672 -1424 -1390 -1646 -1832 -27 -54 -69 -155
-93 -225 -24 -71 -61 -166 -82 -213 -29 -66 -38 -101 -42 -161 -4 -69 -2 -77
21 -105 l25 -29 329 1 c180 0 677 4 1103 9 426 4 958 4 1182 0 l407 -7 7 -42
c12 -66 7 -297 -11 -496 -9 -106 -19 -348 -22 -567 -7 -439 2 -405 -109 -428
-147 -30 -324 -37 -844 -35 -958 6 -3742 0 -4140 -8 -392 -7 -489 -3 -542 24
-37 19 -52 71 -44 153 9 86 59 376 97 566 63 314 207 831 250 901 10 17 16 34
13 37 -6 6 63 196 124 342 260 623 638 1193 1101 1656 283 283 499 459 1006
819 440 313 592 436 775 626 239 249 366 463 437 742 23 92 28 330 9 439 -31
179 -102 340 -217 493 -206 273 -566 440 -949 440 -205 0 -372 -40 -554 -133
-335 -171 -583 -493 -658 -857 -9 -48 -13 -171 -13 -465 l0 -400 -36 -18 c-46
-22 -194 -44 -394 -57 -177 -11 -979 -14 -1204 -3 l-144 6 7 94 c15 216 86
544 173 798 244 715 698 1346 1213 1685 179 118 444 237 720 324 345 109 898
219 1230 246 144 12 443 4 570 -15z m-3202 -158 c29 -66 140 -256 182 -312 20
-27 50 -74 66 -103 15 -29 37 -58 47 -64 17 -9 12 -16 -53 -76 -40 -37 -76
-68 -80 -70 -4 -1 -44 50 -90 115 -46 65 -117 161 -157 213 -139 182 -145 192
-135 202 17 17 187 137 194 138 4 0 16 -19 26 -43z m-249 -181 c6 -25 46 -97
90 -163 43 -65 104 -158 136 -206 32 -49 72 -104 91 -122 l33 -33 -25 -23
c-14 -13 -43 -47 -66 -76 -22 -29 -43 -53 -47 -53 -3 0 -28 32 -56 72 -70 100
-225 309 -293 396 -31 40 -58 76 -60 81 -3 9 166 171 178 171 4 0 13 -20 19
-44z m-169 -288 c36 -67 92 -158 126 -202 33 -45 84 -119 114 -164 29 -46 61
-87 71 -91 17 -6 12 -17 -41 -96 -33 -50 -63 -91 -67 -92 -5 -1 -22 21 -40 50
-33 55 -182 234 -332 401 -84 93 -89 101 -75 120 27 38 166 196 172 196 4 0
36 -55 72 -122z m-168 -312 c28 -39 77 -105 108 -146 73 -97 159 -225 181
-270 l17 -34 -46 -86 c-25 -47 -47 -87 -50 -90 -8 -10 -150 151 -204 232 -31
46 -80 133 -111 193 -30 61 -64 119 -76 129 -12 11 -31 35 -42 53 l-21 33 62
85 62 86 34 -57 c19 -32 58 -89 86 -128z m-251 -94 c15 -20 63 -111 107 -202
67 -139 92 -179 157 -255 43 -49 93 -109 113 -133 l34 -42 -43 -100 c-24 -55
-47 -100 -51 -100 -17 0 -319 364 -441 532 -54 74 -58 83 -47 107 19 42 133
231 139 231 3 0 18 -17 32 -38z m-114 -439 c152 -203 277 -359 329 -415 35
-36 64 -72 64 -80 0 -26 -73 -219 -81 -211 -4 4 -47 63 -96 129 -48 67 -160
211 -248 320 -104 127 -159 205 -158 218 1 12 23 65 49 119 l47 98 33 -70 c18
-39 45 -87 61 -108z m3635 56 c90 -35 168 -71 168 -78 0 -4 -30 -12 -67 -19
-38 -6 -77 -14 -88 -17 -20 -6 -24 1 -72 123 -7 16 -3 16 59 -9z m-3662 -465
c161 -224 256 -348 292 -381 l24 -23 -35 -136 c-34 -134 -35 -135 -49 -108 -8
16 -43 63 -76 104 -34 41 -93 127 -133 190 -84 136 -180 251 -263 317 -33 27
-60 53 -60 60 0 14 52 164 81 229 l20 48 28 -50 c15 -28 92 -140 171 -250z
m3918 286 l65 0 69 -71 c38 -39 68 -73 66 -74 -2 -2 -32 3 -68 11 -36 8 -129
17 -208 21 l-142 6 -6 26 c-3 14 -10 39 -15 55 -5 16 -9 31 -9 34 0 3 41 2 92
-2 50 -3 120 -6 156 -6z m-2 -196 c72 -13 157 -33 189 -44 32 -11 66 -20 76
-20 18 0 47 -46 63 -96 6 -19 4 -20 -51 -12 -32 4 -151 10 -265 14 l-208 7 0
26 c0 14 -3 57 -7 94 l-6 68 39 -6 c21 -4 98 -17 170 -31z m-4188 -172 c56
-56 123 -147 182 -247 76 -130 95 -159 173 -270 88 -125 106 -145 129 -145 22
0 22 3 2 -123 -25 -165 -20 -156 -56 -105 -17 23 -61 79 -98 123 -85 102 -300
387 -368 488 -29 42 -60 77 -68 77 -10 0 -14 6 -10 18 2 9 17 63 32 120 15 56
31 102 35 102 5 0 26 -17 47 -38z m4049 -63 c15 -6 66 -15 113 -19 47 -5 158
-19 247 -31 l161 -22 11 -62 c6 -34 11 -82 11 -107 l0 -45 -102 24 c-57 13
-186 43 -288 68 -102 25 -192 45 -200 45 -37 0 -41 13 -29 88 13 78 19 83 76
61z m-4151 -201 c23 -45 235 -396 292 -483 25 -38 71 -101 102 -140 65 -78
110 -143 110 -157 0 -5 -24 9 -52 30 -29 22 -86 59 -125 83 -50 30 -76 54 -85
74 -7 17 -44 62 -83 100 -39 39 -96 102 -127 140 -30 39 -67 80 -81 93 -13 13
-23 31 -21 40 2 9 13 70 25 135 12 64 23 117 25 117 2 0 11 -15 20 -32z m4144
-51 c122 -54 248 -90 491 -139 l56 -11 -13 -70 c-8 -38 -16 -78 -19 -88 -5
-16 -31 -9 -253 67 -222 76 -372 135 -395 155 -5 4 1 34 13 67 25 68 14 66
120 19z m-85 -173 c99 -64 206 -113 390 -178 88 -31 163 -60 167 -64 3 -4 -10
-42 -29 -84 -25 -55 -41 -78 -54 -78 -26 0 -97 33 -180 83 -41 24 -129 72
-195 105 -67 34 -139 73 -160 87 -22 15 -49 31 -62 36 l-22 9 32 65 c18 35 35
65 38 65 3 0 37 -21 75 -46z m-4085 -159 c23 -41 45 -77 50 -80 5 -3 19 -20
31 -37 l23 -31 -60 32 c-32 17 -71 41 -85 54 -23 20 -25 27 -21 80 2 31 8 57
12 57 5 0 27 -34 50 -75z m3991 -34 c36 -33 112 -85 169 -116 57 -31 122 -69
145 -84 64 -43 127 -77 168 -90 20 -7 37 -16 37 -20 0 -4 -18 -33 -41 -64 -39
-55 -61 -69 -74 -47 -4 6 -55 35 -113 64 -91 46 -470 252 -480 261 -2 2 12 24
32 49 19 25 43 60 53 76 9 17 22 30 28 30 6 0 40 -27 76 -59z m-80 -221 c68
-45 174 -107 234 -137 99 -50 150 -81 210 -128 19 -15 15 -20 -90 -125 -60
-61 -112 -110 -115 -110 -3 0 -6 12 -5 27 0 24 -20 41 -166 143 -91 63 -194
137 -230 164 -35 27 -81 56 -101 64 l-37 15 77 87 c42 49 82 87 88 85 6 -2 67
-40 135 -85z m-211 -220 c119 -106 171 -148 275 -217 112 -75 133 -86 147 -77
29 18 -8 -18 -76 -74 -70 -58 -75 -61 -81 -41 -19 58 -168 176 -360 286 -103
59 -164 97 -164 103 0 3 30 31 66 62 77 68 69 70 193 -42z m-3120 50 c0 -5 -4
-10 -10 -10 -5 0 -10 5 -10 10 0 6 5 10 10 10 6 0 10 -4 10 -10z m3023 -247
c106 -81 212 -167 237 -190 25 -23 59 -47 75 -53 l28 -11 -93 -68 -93 -69 -16
31 c-9 17 -38 49 -66 70 -27 21 -117 89 -200 151 -143 108 -214 171 -204 180
14 14 132 106 136 106 3 0 91 -66 196 -147z m-347 -20 c31 -49 156 -172 254
-251 52 -42 116 -95 142 -119 l47 -43 -77 -53 c-99 -69 -103 -71 -96 -53 9 24
-14 54 -74 95 -61 41 -149 135 -222 236 -23 33 -59 77 -78 97 -20 21 -34 39
-31 41 39 31 104 77 109 77 4 0 16 -12 26 -27z m-92 -202 c82 -135 247 -311
319 -340 15 -6 -14 -31 -142 -124 -88 -65 -166 -120 -174 -123 -10 -3 -16 4
-20 23 -6 28 -166 267 -236 351 -20 24 -58 61 -84 82 l-48 39 53 38 c79 58
102 73 111 73 4 0 17 -21 29 -47 18 -43 59 -108 187 -302 51 -79 105 -133 124
-125 51 19 18 91 -120 265 -162 203 -188 241 -172 250 8 4 29 19 48 33 33 25
35 25 54 8 11 -9 42 -55 71 -101z m-342 -238 c162 -255 230 -359 249 -379 10
-11 19 -23 19 -26 0 -8 -130 -112 -133 -107 -2 2 -9 17 -17 34 -8 16 -55 84
-105 151 -174 236 -235 322 -235 333 0 10 128 111 141 111 4 0 40 -53 81 -117z
m-154 -231 c32 -48 77 -113 99 -143 38 -52 123 -185 123 -193 0 -2 -29 -29
-63 -59 l-64 -56 -76 117 c-43 64 -106 151 -142 192 -137 159 -178 211 -169
220 5 5 45 36 88 69 l80 61 33 -60 c18 -33 59 -99 91 -148z m-272 -46 c22 -34
65 -96 97 -139 31 -43 91 -132 133 -198 l76 -121 -69 -63 -68 -62 -12 27 c-6
15 -27 45 -46 66 -50 57 -132 171 -231 323 -99 153 -100 129 4 215 48 40 56
44 65 29 6 -9 28 -44 51 -77z m-207 -126 c19 -33 46 -88 61 -122 37 -87 127
-229 201 -317 l62 -73 -70 -70 -71 -71 -25 52 c-36 71 -219 370 -283 463 l-54
77 42 40 c56 50 92 80 98 80 3 0 20 -26 39 -59z m-72 -333 c143 -263 197 -373
190 -391 -3 -6 -31 -42 -63 -80 l-58 -68 -18 22 c-10 13 -44 68 -75 124 -31
55 -91 160 -134 231 -85 144 -129 228 -129 247 0 12 139 158 150 158 3 -1 64
-110 137 -243z m-83 -417 l105 -183 -46 -59 c-25 -33 -47 -57 -50 -54 -3 2
-31 53 -62 113 -59 110 -183 319 -266 451 l-46 72 56 65 57 64 74 -143 c40
-79 121 -226 178 -326z m-330 168 c35 -73 87 -168 115 -211 28 -43 74 -122
101 -175 27 -53 57 -109 66 -123 16 -25 15 -27 -21 -77 -20 -29 -41 -49 -47
-46 -15 10 -91 131 -128 204 -45 90 -118 196 -211 306 l-78 93 65 81 c37 44
68 80 70 80 2 0 33 -60 68 -132z m-142 -238 c45 -74 104 -175 131 -225 53 -95
119 -212 145 -257 18 -28 13 -44 -27 -97 l-18 -24 -99 162 c-54 89 -123 192
-151 229 -29 37 -78 100 -109 140 -31 39 -60 72 -65 72 -18 0 -8 22 43 92 39
53 54 68 60 57 5 -8 45 -75 90 -149z m-203 -87 c16 -32 60 -101 99 -153 38
-52 104 -155 145 -227 42 -73 90 -153 107 -178 l31 -45 -37 -67 -38 -66 -30
35 c-17 20 -68 96 -112 169 -45 74 -128 207 -184 296 l-103 163 43 65 c23 36
44 65 46 65 2 0 17 -26 33 -57z m65 -523 c59 -102 126 -212 148 -244 l40 -59
-33 -69 -33 -68 -54 52 c-29 29 -81 98 -115 152 -66 107 -215 317 -270 381
l-35 40 66 108 65 109 57 -109 c31 -59 105 -191 164 -293z m-324 65 c36 -80
91 -173 248 -423 36 -56 82 -118 103 -136 22 -18 39 -38 39 -43 0 -10 -58
-142 -68 -153 -5 -7 -37 33 -137 171 -46 64 -118 158 -160 209 -78 95 -114
150 -151 231 l-22 46 51 92 c28 50 52 91 54 91 2 0 21 -38 43 -85z m-161 -212
c21 -58 58 -118 152 -243 47 -63 112 -155 144 -205 32 -49 77 -115 100 -145
l43 -55 -47 -118 -47 -118 -55 83 c-30 46 -103 154 -162 240 -96 141 -237 384
-237 410 0 15 82 188 89 188 4 0 13 -17 20 -37z m-110 -311 c41 -98 134 -257
234 -402 77 -112 167 -252 176 -274 5 -13 -62 -217 -70 -214 -26 10 -146 186
-189 276 -28 59 -83 155 -121 214 -38 58 -87 146 -109 194 l-41 88 25 60 c43
108 57 138 60 135 2 -2 18 -37 35 -77z m-32 -447 c39 -71 83 -159 98 -194 34
-81 41 -93 144 -226 46 -60 88 -115 93 -122 5 -7 -4 -55 -23 -123 l-33 -112
-20 27 c-157 209 -368 533 -425 655 -17 36 -31 77 -31 91 0 22 26 106 71 228
l12 34 21 -64 c12 -35 53 -122 93 -194z m5226 55 c-32 -28 -125 -111 -208
-185 l-150 -134 -145 0 -145 -1 30 19 c17 10 103 63 193 117 90 55 201 127
247 161 84 62 101 69 188 72 l48 1 -58 -50z m-2083 22 c0 -4 -14 -16 -31 -26
-18 -11 -30 -15 -27 -10 3 5 8 17 11 27 6 16 47 25 47 9z m1840 4 c0 -9 -125
-94 -236 -162 -60 -37 -136 -88 -169 -114 -87 -68 -92 -70 -212 -70 l-108 0
52 35 c28 19 153 95 276 169 l225 135 79 4 c43 1 81 4 86 5 4 1 7 0 7 -2z
m437 -27 l45 -31 -49 -33 c-57 -39 -132 -110 -193 -183 l-45 -54 -110 -4
c-108 -5 -109 -4 -85 13 108 79 302 239 335 276 22 25 44 46 48 46 5 1 29 -13
54 -30z m-2107 13 c0 -4 -13 -15 -29 -25 -59 -34 -256 -180 -269 -199 -29 -40
-31 -15 -3 40 32 62 72 105 147 157 40 28 59 34 102 34 28 1 52 -3 52 -7z
m289 4 c-2 -2 -26 -19 -54 -38 -259 -177 -318 -218 -372 -260 -59 -47 -67 -50
-145 -58 -46 -4 -84 -7 -86 -5 -2 1 0 14 3 28 5 17 15 27 33 30 15 3 101 54
192 112 91 59 185 117 210 130 25 13 56 32 70 44 19 16 39 20 89 21 35 0 62
-2 60 -4z m301 -3 c-1 -8 -118 -96 -264 -198 -39 -27 -93 -67 -121 -90 l-51
-42 -112 -6 c-62 -4 -111 -3 -108 1 8 13 134 96 225 148 92 52 189 126 222
168 19 25 25 26 115 26 52 0 94 -3 94 -7z m307 -60 c-41 -32 -135 -106 -208
-165 l-132 -108 -149 0 c-81 0 -148 2 -148 4 0 3 98 70 218 149 120 80 224
152 231 161 11 13 36 16 138 16 l124 0 -74 -57z m428 48 c-6 -5 -75 -52 -155
-103 -80 -52 -179 -123 -220 -156 l-75 -62 -119 0 -119 0 94 66 c52 37 126 93
164 124 39 32 99 76 135 98 l65 41 120 0 c71 1 115 -3 110 -8z m936 -108 c21
-16 39 -33 39 -39 0 -6 -32 -41 -71 -78 l-70 -66 -105 0 -105 0 59 58 c54 55
186 152 205 152 5 0 26 -12 48 -27z m-5787 -113 c43 -119 140 -285 301 -513
49 -71 105 -152 123 -179 l33 -51 -21 -81 c-12 -44 -25 -87 -29 -94 -5 -9 -28
21 -66 90 -32 56 -113 184 -180 283 -67 99 -139 209 -160 244 -21 35 -51 78
-66 95 l-27 32 31 112 c18 62 34 112 38 112 3 0 13 -22 23 -50z m5996 -50 l25
-19 -115 -1 -115 0 55 49 55 48 35 -28 c19 -16 46 -38 60 -49z m-6048 -312
c29 -57 92 -163 141 -237 108 -163 187 -299 238 -410 l39 -84 -17 -83 c-10
-46 -21 -84 -24 -84 -7 0 -76 117 -287 480 -46 80 -110 184 -142 231 l-59 86
15 64 c22 95 34 139 39 139 2 0 28 -46 57 -102z m-54 -323 c33 -60 104 -196
160 -301 100 -191 166 -303 223 -380 l31 -41 -9 -104 -8 -104 -51 80 c-28 44
-79 134 -114 200 -35 66 -114 201 -175 300 -62 99 -126 205 -143 235 l-31 55
15 70 c23 112 25 118 34 109 4 -5 35 -58 68 -119z m-83 -252 c22 -48 64 -128
94 -178 29 -49 96 -169 148 -265 52 -96 100 -181 105 -187 17 -21 -1 -15 -58
18 -41 23 -53 35 -52 52 1 20 -106 172 -198 281 -18 21 -52 75 -75 119 l-42
80 13 84 c6 45 15 83 19 83 3 -1 24 -40 46 -87z m32 -364 c36 -41 74 -91 85
-112 l19 -39 -33 19 c-18 10 -72 57 -120 105 -84 82 -88 88 -88 130 0 24 3 54
7 67 5 22 9 18 36 -36 16 -34 58 -94 94 -134z"/>
</g>
</svg>
