<?xml version="1.0" standalone="no"?>
<!DOCTYPE svg PUBLIC "-//W3C//DTD SVG 20010904//EN"
 "http://www.w3.org/TR/2001/REC-SVG-20010904/DTD/svg10.dtd">
<svg version="1.0" xmlns="http://www.w3.org/2000/svg"
 width="745.000000pt" height="987.000000pt" viewBox="0 0 745.000000 987.000000"
 preserveAspectRatio="xMidYMid meet">

<g transform="translate(0.000000,987.000000) scale(0.100000,-0.100000)"
fill="#000000" stroke="none">
<path d="M3300 9463 c-367 -28 -795 -109 -1095 -208 -615 -204 -1075 -556
-1362 -1043 -61 -103 -231 -458 -257 -536 -47 -143 8 -249 182 -346 42 -24
122 -70 177 -104 250 -152 368 -196 903 -345 161 -45 350 -102 419 -126 153
-55 203 -58 241 -16 15 16 46 74 70 129 128 299 324 509 609 655 224 114 446
174 689 184 149 6 328 -8 366 -28 24 -13 87 -107 132 -197 80 -158 123 -338
133 -548 21 -464 -144 -733 -582 -944 -185 -90 -551 -204 -820 -255 -143 -28
-182 -44 -192 -83 -11 -37 -5 -480 7 -618 19 -208 49 -248 260 -351 74 -36
169 -87 211 -113 94 -60 148 -87 295 -150 129 -56 176 -90 316 -232 183 -186
292 -372 349 -593 27 -103 32 -144 36 -285 4 -143 2 -179 -17 -270 -58 -283
-201 -485 -425 -601 -145 -76 -269 -102 -475 -102 -168 1 -330 29 -515 91
-129 42 -174 77 -236 183 -48 84 -107 136 -207 185 -89 44 -410 220 -473 259
-23 15 -53 28 -66 28 -12 0 -116 -23 -230 -51 -115 -28 -408 -92 -653 -142
-468 -95 -737 -153 -745 -162 -8 -7 54 -184 110 -318 178 -421 450 -786 755
-1015 172 -130 505 -341 664 -421 81 -42 189 -101 240 -131 364 -221 812 -376
1336 -462 606 -100 1097 -94 1535 19 405 104 842 355 1168 669 418 403 646
865 698 1411 14 153 6 443 -16 590 -76 491 -313 958 -757 1492 -149 179 -293
300 -421 352 l-57 23 69 47 c90 61 229 206 318 331 92 129 217 348 314 550
211 437 299 771 299 1128 0 168 -20 310 -65 466 -101 350 -262 611 -559 907
-169 168 -320 288 -508 407 -145 90 -653 375 -808 452 -272 136 -532 207 -855
235 -111 9 -400 11 -505 3z m157 -130 c4 -9 -1 -37 -11 -62 -34 -89 -56 -176
-56 -226 l0 -50 -132 -27 c-72 -15 -133 -27 -134 -25 -1 1 -4 88 -6 194 l-4
191 95 7 c53 3 103 8 111 9 8 2 41 4 73 5 45 1 59 -3 64 -16z m401 1 c38 -6
42 -9 42 -35 0 -16 -14 -51 -30 -78 -17 -27 -36 -75 -42 -106 -10 -43 -17 -57
-33 -60 -11 -2 -85 -12 -164 -23 l-143 -19 3 146 c2 80 0 157 -5 170 l-8 24
168 -6 c93 -4 188 -10 212 -13z m-798 -21 c0 -4 -9 -75 -21 -158 -12 -82 -19
-170 -17 -195 l5 -45 -166 -56 c-91 -30 -174 -59 -183 -63 -14 -6 -18 -4 -18
11 0 11 -11 57 -25 104 -25 81 -55 246 -55 300 0 24 5 27 78 42 90 19 307 56
390 66 6 0 12 -2 12 -6z m1040 -27 l85 -21 3 -37 c2 -20 -4 -61 -13 -91 l-16
-54 -67 -7 c-37 -3 -89 -6 -116 -6 l-48 0 6 30 c16 81 19 190 5 206 -12 15
-10 16 31 9 25 -4 83 -17 130 -29z m196 -56 c32 -11 84 -33 114 -48 30 -15 56
-27 57 -27 1 -1 -3 -20 -9 -43 -12 -47 -12 -48 -140 -35 l-68 6 0 58 c0 32 -4
69 -10 83 -5 14 -8 26 -6 26 1 0 29 -9 62 -20z m-1740 -421 l20 -55 -104 -51
-104 -51 -15 36 c-9 20 -33 106 -54 190 -37 149 -74 239 -94 231 -5 -2 -9 -29
-8 -61 2 -73 50 -340 72 -398 l17 -45 -103 -68 c-56 -38 -106 -68 -110 -68 -4
0 -13 15 -19 34 -6 18 -32 69 -58 113 -25 43 -63 122 -84 174 -22 52 -49 117
-62 143 -12 26 -21 50 -18 52 2 2 56 26 119 53 141 61 286 111 449 155 l125
34 6 -181 c4 -143 10 -193 25 -237z m2094 274 c60 -26 108 -49 106 -51 -2 -1
-56 5 -120 14 l-116 18 0 33 c0 18 5 33 11 33 6 0 60 -21 119 -47z m-2846
-175 c13 -101 48 -214 101 -328 29 -63 58 -132 65 -152 l11 -38 -91 -87 c-51
-49 -96 -89 -100 -91 -4 -2 -17 13 -29 33 -12 20 -47 71 -79 113 -66 87 -232
357 -232 378 0 22 302 223 336 224 6 0 15 -24 18 -52z m2733 27 c321 -42 675
-177 960 -364 147 -97 222 -157 342 -274 305 -296 492 -622 572 -997 20 -90
23 -135 23 -320 0 -180 -3 -236 -23 -343 -27 -155 -77 -339 -127 -473 -48
-131 -339 -710 -406 -810 -29 -43 -96 -122 -149 -174 -79 -79 -113 -105 -197
-149 -113 -59 -124 -69 -124 -108 0 -37 35 -65 124 -98 192 -71 273 -121 407
-250 174 -168 382 -479 496 -745 224 -516 299 -1107 204 -1585 -57 -285 -207
-599 -407 -850 -74 -94 -259 -282 -352 -359 -365 -303 -815 -503 -1285 -572
-504 -74 -1337 34 -1940 251 -615 221 -1085 629 -1366 1186 -85 168 -150 333
-135 341 33 18 311 82 515 118 394 70 491 90 721 146 124 30 232 57 241 60 11
3 25 -10 44 -38 68 -103 252 -269 411 -371 623 -397 1306 -446 1729 -124 150
114 276 313 332 522 24 92 26 116 27 305 1 220 -8 291 -60 455 -108 340 -363
641 -768 906 -120 79 -430 242 -562 294 l-71 29 -12 136 c-6 74 -17 219 -23
323 -10 161 -10 189 2 200 8 8 80 26 160 42 624 119 992 284 1245 557 121 130
178 251 210 448 33 196 7 498 -60 705 -102 311 -336 579 -638 731 -422 213
-992 187 -1478 -67 -230 -121 -477 -358 -583 -559 -38 -72 -66 -158 -66 -202
0 -15 -4 -28 -9 -28 -5 0 -38 11 -74 25 -85 31 -193 59 -400 101 -200 40 -262
58 -450 129 -214 80 -200 71 -192 124 23 150 214 532 367 734 291 382 631 621
1128 789 336 114 778 196 1195 222 107 7 385 -4 502 -19z m-3041 -391 c29 -61
85 -159 123 -217 39 -59 79 -124 90 -146 l20 -39 -55 -68 c-30 -38 -68 -88
-84 -112 l-29 -43 -20 46 c-11 26 -56 99 -99 163 -44 64 -96 151 -117 192 -21
41 -55 104 -77 140 l-40 65 103 99 103 99 14 -34 c8 -19 38 -84 68 -145z
m-286 -149 c32 -91 169 -365 221 -442 16 -22 42 -55 59 -71 l29 -30 -42 -75
c-23 -41 -85 -165 -137 -275 -52 -111 -97 -201 -100 -202 -9 0 -157 250 -180
304 -11 28 -57 142 -102 255 l-80 206 22 40 c13 22 38 64 57 93 l34 54 85
-174 c47 -95 99 -206 115 -246 47 -118 75 -166 118 -205 78 -71 96 -14 30 98
-23 39 -61 112 -85 163 -24 52 -65 126 -91 165 -88 135 -144 239 -135 251 31
42 147 185 149 183 1 -2 16 -43 33 -92z m-305 -550 c80 -273 103 -335 162
-439 31 -56 65 -113 75 -128 10 -14 18 -28 18 -31 0 -3 -38 11 -85 31 -66 28
-84 40 -80 53 8 24 -10 64 -64 144 -99 145 -183 297 -177 320 8 30 96 219 100
214 2 -2 25 -76 51 -164z m-95 -282 c44 -92 90 -178 102 -190 30 -32 15 -29
-57 12 -81 45 -138 102 -160 159 -17 45 -17 47 5 116 12 38 24 70 26 70 2 0
39 -75 84 -167z m3720 17 c33 -17 75 -39 92 -50 l33 -20 -70 0 -70 0 -27 50
c-16 28 -26 50 -23 50 3 0 32 -14 65 -30z m124 -126 l111 -26 88 -90 c49 -49
87 -91 85 -93 -2 -3 -52 11 -111 30 -58 19 -136 38 -173 43 l-66 7 -23 60
c-12 33 -26 68 -30 78 -9 22 -12 22 119 -9z m89 -220 c64 -25 151 -68 192 -95
42 -27 80 -49 86 -49 15 0 65 -113 94 -214 39 -135 37 -137 -57 -55 -102 88
-334 244 -386 260 -38 11 -39 12 -50 83 -7 39 -15 81 -18 94 -9 31 5 29 139
-24z m-46 -225 c97 -65 378 -328 439 -410 32 -44 34 -51 34 -126 0 -148 -25
-294 -67 -389 l-17 -39 -7 73 c-6 58 -17 94 -52 167 -101 208 -286 473 -358
511 -14 7 -18 30 -20 127 -3 64 -3 117 -1 117 2 0 24 -14 49 -31z m75 -446
c124 -219 196 -367 223 -458 15 -49 34 -98 42 -107 18 -20 10 -37 -58 -119
-37 -44 -169 -159 -183 -159 -3 0 -6 44 -6 98 0 181 -82 607 -139 726 -20 40
-20 49 -10 121 l12 79 26 -31 c14 -18 56 -85 93 -150z m-87 -438 c17 -111 27
-216 28 -306 2 -164 5 -158 -127 -222 -75 -37 -225 -97 -241 -97 -3 0 9 21 25
46 38 61 59 126 121 379 41 170 52 231 55 320 3 85 9 124 28 170 13 33 27 69
31 80 9 25 42 -129 80 -370z m-238 33 c-14 -114 -88 -469 -119 -570 l-33 -107
-80 -25 c-181 -56 -468 -126 -520 -126 -14 0 -11 7 12 33 69 79 216 367 238
468 6 24 19 36 78 66 40 19 96 51 126 70 29 19 55 32 58 30 9 -10 -72 -190
-156 -347 -122 -228 -132 -248 -122 -255 18 -10 215 285 291 436 43 84 80 184
80 214 0 17 21 45 73 94 39 39 74 71 76 71 2 0 1 -24 -2 -52z m-614 -420 c-22
-71 -147 -329 -185 -381 -12 -16 -18 -15 -84 20 l-71 38 27 35 c16 19 45 82
65 140 56 158 49 150 161 192 55 20 102 37 106 37 3 1 -5 -36 -19 -81z m-273
-28 c0 -6 -6 -26 -14 -44 -8 -19 -20 -60 -26 -93 -12 -57 -41 -127 -58 -137
-5 -3 -32 9 -61 25 l-52 30 22 37 c12 20 40 67 61 104 31 53 47 70 71 77 44
13 57 13 57 1z m-180 -34 c0 -2 -13 -33 -30 -68 -16 -34 -30 -71 -30 -81 0
-10 -3 -17 -7 -15 -31 13 -162 84 -181 96 -23 15 -19 17 105 42 70 15 131 28
136 29 4 0 7 -1 7 -3z m-279 -199 c42 -56 143 -196 224 -312 81 -115 169 -237
195 -270 45 -59 47 -64 54 -145 4 -47 10 -100 13 -119 7 -41 -11 -35 -22 6
-16 67 -186 301 -376 519 -181 207 -167 182 -175 312 -4 64 -3 112 2 112 5 -1
43 -47 85 -103z m229 -107 c41 -27 96 -95 140 -174 18 -31 45 -67 61 -80 27
-23 29 -30 28 -93 l0 -68 -24 30 c-14 17 -51 64 -82 106 -32 42 -113 145 -180
228 -68 84 -123 154 -123 156 0 5 124 -67 180 -105z m-189 -235 c129 -162 319
-442 319 -469 0 -3 -21 7 -47 22 -32 18 -77 64 -133 132 -47 58 -119 140 -162
183 l-76 79 -7 96 c-4 59 -4 93 2 87 5 -5 52 -64 104 -130z m389 120 c18 -9
30 -24 30 -35 0 -29 -14 -24 -44 15 -30 39 -28 42 14 20z m-380 -397 c23 -32
38 -58 34 -58 -15 0 -93 66 -113 96 -12 16 -21 43 -21 60 l1 29 29 -35 c16
-19 48 -61 70 -92z m1180 -788 l25 -20 -35 6 c-34 6 -51 20 -71 56 -8 16 -6
15 23 -2 18 -11 44 -29 58 -40z m67 -71 c32 -12 72 -32 88 -44 38 -28 187
-167 183 -170 -2 -2 -32 3 -68 11 -36 7 -91 14 -122 14 l-57 0 -26 57 c-14 31
-39 78 -55 105 -35 56 -29 58 57 27z m144 -238 c42 -11 110 -34 152 -51 65
-28 83 -41 117 -86 22 -29 40 -56 40 -60 0 -8 -83 3 -200 26 -52 10 -111 21
-130 24 -35 6 -37 8 -61 86 -29 93 -33 90 82 61z m103 -237 c68 -19 157 -41
197 -47 l73 -12 38 -90 c20 -50 38 -96 38 -103 0 -15 -53 -11 -250 19 -69 10
-145 20 -170 21 l-45 3 -6 75 c-4 41 -10 96 -14 123 -5 30 -4 47 3 47 6 0 67
-16 136 -36z m-13 -269 c113 -34 330 -85 363 -85 14 0 26 -1 26 -2 0 -2 6 -40
14 -85 7 -46 10 -83 7 -83 -5 0 -161 26 -361 60 -30 6 -80 10 -112 10 l-56 0
4 38 c2 20 6 67 10 105 3 37 9 67 13 67 4 0 45 -11 92 -25z m160 -286 c81 -22
172 -40 203 -41 l56 -2 0 -73 0 -73 -37 0 c-21 0 -92 9 -158 20 -66 11 -151
20 -190 20 -77 0 -184 15 -196 27 -5 6 27 157 40 189 2 4 155 -32 282 -67z
m-2775 -39 l41 -29 -25 -73 c-13 -40 -35 -120 -48 -177 -12 -57 -25 -106 -28
-108 -7 -7 -188 -44 -193 -40 -2 2 23 62 55 133 49 108 95 220 125 307 9 24
27 21 73 -13z m-176 -23 c0 -24 -47 -154 -106 -291 l-57 -134 -89 -17 c-89
-18 -109 -16 -91 7 18 23 70 170 87 245 9 40 26 93 38 117 l21 44 91 19 c50
11 94 21 99 22 4 0 7 -5 7 -12z m-291 -74 c-6 -16 -19 -73 -30 -128 -27 -136
-59 -252 -72 -263 -9 -8 -152 -42 -173 -42 -3 0 4 17 15 38 10 21 27 64 36 97
9 33 37 115 62 182 l47 123 40 9 c23 5 51 9 63 10 21 1 22 -1 12 -26z m642
-14 c59 -35 68 -44 57 -57 -7 -8 -24 -51 -38 -95 l-25 -81 -85 -17 c-47 -10
-86 -16 -88 -14 -9 9 93 305 105 305 2 0 36 -19 74 -41z m-861 -5 c0 -3 -13
-52 -29 -108 -17 -55 -37 -132 -45 -171 -9 -38 -23 -88 -31 -111 -14 -37 -19
-41 -68 -51 -93 -20 -93 -14 10 281 l48 140 50 12 c64 15 65 15 65 8z m3170
-14 c19 -6 73 -15 120 -20 72 -9 408 -70 418 -76 6 -4 -20 -124 -28 -129 -13
-8 -179 15 -331 46 -82 16 -185 32 -228 36 l-79 6 36 73 c20 41 41 74 47 74 5
0 26 -5 45 -10z m-3404 -47 c-16 -56 -76 -272 -81 -296 l-5 -27 -50 25 c-28
14 -50 28 -50 31 0 3 20 56 44 117 24 62 46 121 48 132 2 13 14 22 33 26 55
12 67 10 61 -8z m1275 -42 l82 -50 -39 -16 c-34 -14 -146 -44 -166 -45 -4 0 5
25 19 56 14 31 23 66 20 80 -2 13 -3 24 -1 24 1 0 40 -22 85 -49z m-1426 12
c-20 -50 -53 -152 -59 -185 -4 -21 -10 -38 -13 -38 -5 0 -90 47 -101 56 -5 3
36 136 47 152 9 15 58 29 105 31 23 1 27 -2 21 -16z m-194 -54 c-5 -19 -12
-47 -15 -62 l-7 -28 -69 37 c-39 20 -70 40 -70 43 0 6 161 50 167 46 1 -1 -1
-17 -6 -36z m3789 -83 c220 -55 369 -86 414 -86 20 0 36 -2 36 -5 0 -2 -11
-29 -24 -60 -18 -40 -30 -55 -45 -55 -32 0 -148 26 -302 69 -79 22 -175 45
-214 51 -38 7 -85 15 -103 18 l-34 7 42 53 c23 28 45 52 48 52 4 0 86 -20 182
-44z m-3877 -95 c62 -37 137 -84 167 -103 30 -19 83 -49 116 -66 47 -24 64
-39 72 -62 6 -16 9 -30 6 -30 -3 0 -51 23 -107 52 -139 71 -390 241 -405 273
-17 37 -15 39 14 20 14 -9 76 -47 137 -84z m3912 -111 c132 -43 255 -81 273
-85 35 -7 35 -11 -11 -65 l-28 -33 -62 13 c-34 7 -132 30 -217 51 -85 21 -196
45 -247 54 -103 17 -195 44 -191 56 2 4 35 32 73 62 l70 54 50 -14 c28 -8 158
-50 290 -93z m-3945 29 c60 -48 218 -150 349 -226 l84 -48 33 -77 c17 -43 28
-78 23 -78 -14 0 -177 98 -299 181 -188 127 -195 134 -257 279 -12 27 -12 32
-1 24 7 -6 38 -31 68 -55z m3450 -94 c27 -14 98 -38 157 -54 263 -73 430 -120
457 -130 l28 -11 -23 -19 c-13 -10 -49 -33 -81 -50 -56 -32 -57 -32 -135 -22
-92 12 -333 94 -503 171 -63 29 -118 56 -122 59 -6 5 98 54 170 80 1 1 25 -10
52 -24z m-695 -97 c145 -11 151 -13 187 -42 20 -17 100 -69 177 -115 78 -47
141 -89 141 -93 0 -9 -9 -7 -131 23 -168 41 -419 146 -549 229 l-35 22 30 -6
c17 -3 98 -11 180 -18z m459 -28 c96 -64 220 -124 373 -180 68 -25 123 -48
123 -51 0 -8 -105 -19 -177 -19 -66 0 -140 29 -277 109 -55 32 -135 75 -176
96 -41 21 -86 45 -99 54 -25 16 -24 16 44 27 108 17 110 17 189 -36z m-3101
-28 c82 -64 353 -246 397 -267 24 -11 40 -29 52 -56 9 -21 13 -39 8 -39 -20 0
-159 63 -214 96 -34 21 -103 69 -154 108 -83 62 -97 77 -128 138 -19 37 -32
68 -29 68 3 0 33 -22 68 -48z m147 -258 c85 -64 186 -121 272 -154 42 -16 81
-30 85 -30 4 -1 27 -32 50 -71 24 -39 39 -69 35 -67 -25 10 -316 176 -360 206
-29 19 -57 43 -63 54 -5 10 -16 18 -23 18 -8 0 -21 11 -30 25 -9 14 -24 37
-33 52 -21 32 -15 29 67 -33z m345 -330 c170 -105 195 -124 242 -183 29 -36
81 -95 117 -131 36 -35 63 -66 61 -68 -5 -5 -299 195 -385 262 -100 77 -195
163 -248 225 -47 55 -47 56 -12 34 19 -13 121 -75 225 -139z"/>
</g>
</svg>
