<?xml version="1.0" standalone="no"?>
<!DOCTYPE svg PUBLIC "-//W3C//DTD SVG 20010904//EN"
 "http://www.w3.org/TR/2001/REC-SVG-20010904/DTD/svg10.dtd">
<svg version="1.0" xmlns="http://www.w3.org/2000/svg"
 width="784.000000pt" height="1006.000000pt" viewBox="0 0 784.000000 1006.000000"
 preserveAspectRatio="xMidYMid meet">

<g transform="translate(0.000000,1006.000000) scale(0.100000,-0.100000)"
fill="#000000" stroke="none">
<path d="M5115 9625 c-49 -8 -229 -18 -400 -24 -406 -14 -499 -19 -607 -33
l-90 -12 -104 -110 c-212 -226 -729 -742 -1029 -1028 -435 -415 -918 -906
-1064 -1083 -69 -82 -231 -258 -361 -390 -266 -270 -376 -398 -570 -665 -74
-101 -219 -289 -321 -418 -126 -157 -189 -243 -193 -265 -3 -18 -5 -171 -5
-342 1 -316 0 -364 -27 -777 -14 -221 -14 -239 2 -273 24 -51 92 -107 229
-188 66 -38 212 -132 325 -208 179 -121 213 -140 265 -150 59 -11 577 -9 1891
7 l491 6 7 -41 c13 -85 25 -919 23 -1731 -1 -718 1 -849 14 -874 25 -53 303
-255 530 -388 212 -122 241 -136 311 -148 48 -7 271 -7 765 0 808 12 1079 22
1120 42 27 13 28 17 34 98 3 47 4 749 2 1561 l-4 1476 39 6 c21 4 217 7 435 7
l397 1 17 32 c25 49 35 376 31 987 -5 609 3 559 -118 680 -73 74 -397 301
-565 397 -38 22 -97 57 -129 77 -33 20 -70 36 -82 36 -21 0 -22 5 -28 123 -10
208 -11 1945 -2 2472 9 528 3 670 -28 704 -10 11 -38 24 -64 31 -69 17 -210
86 -384 188 -306 179 -414 223 -563 227 -55 2 -140 -3 -190 -10z m155 -97 c0
-4 -4 -8 -9 -8 -17 0 -123 -103 -179 -175 -31 -38 -91 -104 -133 -145 -42 -41
-83 -86 -92 -99 l-16 -24 -40 41 c-22 22 -54 48 -70 57 -17 8 -31 17 -31 18 0
5 180 186 237 239 34 31 65 68 69 83 l6 26 129 -2 c71 -1 129 -6 129 -11z
m187 -28 c28 -16 55 -34 58 -40 7 -11 -11 -35 -135 -186 -141 -170 -133 -164
-214 -164 -39 0 -109 -5 -155 -10 -46 -6 -85 -9 -88 -6 -2 2 29 29 69 59 41
29 112 96 158 148 47 52 115 119 153 148 37 29 67 59 67 67 0 22 30 17 87 -16z
m-648 -67 c-29 -32 -78 -92 -109 -134 l-56 -77 -42 25 -42 25 33 22 c17 12 57
58 87 103 52 77 57 82 95 86 94 9 92 12 34 -50z m-201 -5 c-13 -23 -40 -59
-60 -81 l-37 -39 -58 39 c-32 22 -80 52 -108 68 -56 32 -56 32 38 38 l69 5
-27 -28 c-15 -16 -24 -33 -21 -38 10 -17 43 -1 81 39 33 36 40 39 91 39 l55 0
-23 -42z m-211 -203 c106 -71 216 -143 245 -160 29 -16 53 -35 53 -41 0 -6
-28 -34 -62 -63 -35 -28 -63 -46 -63 -38 0 33 -73 115 -255 285 -204 192 -262
258 -164 187 30 -22 141 -98 246 -170z m1270 149 c40 -22 61 -40 57 -47 -17
-29 -124 -175 -136 -185 -7 -6 -74 -14 -148 -17 l-135 -7 145 146 c79 80 146
146 149 146 2 0 33 -16 68 -36z m-1594 -13 c9 -16 56 -73 105 -127 48 -54 131
-147 184 -208 54 -61 113 -120 133 -131 l34 -21 -44 -44 c-25 -24 -46 -42 -48
-39 -2 2 -9 19 -17 37 -14 35 -33 55 -256 272 -76 74 -151 151 -165 170 l-27
35 36 41 c21 23 39 43 42 43 3 1 13 -12 23 -28z m1794 -108 l75 -46 -34 -33
-33 -33 -123 -3 c-67 -2 -122 -3 -122 -3 0 0 35 37 77 83 43 45 79 82 81 82 2
0 38 -21 79 -47z m-1907 3 c0 -47 136 -220 320 -408 l107 -109 -80 -74 -81
-74 -28 49 c-15 27 -67 91 -116 142 -116 123 -292 325 -292 335 -1 9 151 161
163 162 4 1 7 -10 7 -23z m2060 -91 c17 -9 30 -18 30 -20 0 -3 -26 -5 -57 -5
l-58 1 24 19 c28 24 25 24 61 5z m-2260 -99 c0 -22 183 -290 260 -381 68 -81
100 -115 133 -138 16 -11 8 -21 -75 -104 l-93 -93 -70 103 c-38 56 -101 138
-140 182 -38 44 -92 107 -120 140 -27 33 -63 71 -78 84 l-29 24 99 99 c53 54
101 98 105 98 5 0 8 -6 8 -14z m2433 -91 c9 -4 20 -19 24 -34 11 -37 10 -2423
-1 -3057 -5 -292 -6 -552 -2 -578 15 -98 113 -128 287 -86 83 20 122 23 334
24 268 1 283 -2 319 -64 20 -34 21 -53 24 -705 l4 -670 -449 -4 c-246 -2 -461
-4 -478 -5 -27 -1 -30 -4 -36 -46 -5 -35 -3 -2878 2 -3043 0 -21 -1 -41 -4
-43 -2 -3 -254 -6 -558 -8 -494 -3 -910 -18 -1144 -41 l-60 -6 3 443 c1 244
-2 506 -8 583 -5 77 -15 549 -21 1049 -8 714 -8 914 1 932 20 37 7 121 -22
151 l-25 25 -1004 -4 c-552 -1 -1258 -2 -1568 0 l-565 2 3 103 c2 56 7 318 11
582 10 577 21 721 57 784 14 24 105 126 203 227 104 107 301 330 473 536 280
336 515 601 590 664 102 87 497 443 586 529 116 112 246 256 436 485 71 85
180 214 243 285 145 163 601 619 747 745 60 52 132 118 160 145 l50 50 255 2
c173 2 346 11 540 28 157 13 308 27 335 29 68 5 236 -1 258 -9z m-2585 -252
c28 -45 86 -131 130 -190 44 -59 87 -122 95 -139 9 -17 31 -51 50 -76 l34 -44
-65 -69 -66 -69 -51 57 c-29 31 -102 129 -163 216 -62 88 -135 185 -163 216
l-52 56 34 37 c19 20 54 58 79 85 l44 47 22 -22 c13 -13 45 -60 72 -105z
m-202 -230 c50 -82 117 -192 150 -246 32 -54 80 -122 105 -150 l46 -52 -59
-67 -60 -67 -41 52 c-22 29 -77 90 -122 137 -44 47 -115 128 -157 181 -80 101
-130 149 -154 149 -8 0 -14 3 -14 6 0 8 202 203 210 204 3 0 46 -66 96 -147z
m-268 -128 c22 -25 59 -83 83 -128 63 -122 155 -252 235 -332 l70 -71 -66 -78
c-37 -44 -70 -79 -74 -80 -4 -1 -15 13 -24 31 -10 18 -107 123 -217 235 -111
112 -213 220 -229 240 -28 37 -56 42 -56 9 0 -40 165 -267 320 -441 61 -69
120 -130 131 -136 19 -10 15 -17 -62 -104 l-83 -93 -17 40 c-10 25 -49 68
-104 119 -48 43 -128 126 -178 184 -50 58 -122 137 -159 175 l-67 71 117 115
c203 200 302 289 322 289 10 0 36 -20 58 -45z m-309 -690 c95 -124 209 -245
256 -271 19 -10 35 -21 35 -25 0 -3 -46 -50 -102 -105 -94 -92 -102 -97 -109
-76 -13 35 -65 106 -134 186 -34 39 -104 130 -155 201 -51 72 -111 152 -133
178 l-40 48 83 84 83 84 70 -102 c38 -56 104 -147 146 -202z m-367 20 c34 -66
218 -356 264 -415 50 -65 89 -104 125 -122 l27 -14 -110 -97 -111 -96 -16 32
c-10 18 -87 130 -172 249 -85 119 -173 247 -197 285 l-43 67 93 93 c103 104
96 103 140 18z m-202 -238 c18 -40 50 -97 70 -127 20 -30 65 -106 101 -169 63
-112 145 -216 181 -230 15 -5 7 -17 -49 -67 l-68 -61 -102 111 c-115 126 -209
243 -268 334 -61 94 -81 65 -30 -45 39 -85 215 -343 278 -407 l58 -59 -84 -85
-85 -85 -17 36 c-9 20 -94 120 -188 223 -168 183 -247 278 -247 297 0 11 209
255 309 360 87 91 88 91 141 -26z m-452 -429 c36 -71 89 -144 222 -302 50 -61
104 -127 118 -148 15 -21 37 -41 50 -44 12 -3 22 -8 22 -11 0 -6 -132 -157
-141 -161 -10 -4 -183 190 -314 353 -62 77 -124 151 -138 164 l-26 24 87 93
c48 52 88 94 88 94 1 0 15 -28 32 -62z m-143 -290 c105 -153 296 -404 330
-433 l24 -20 -61 -79 -62 -79 -33 39 c-19 21 -93 122 -165 222 -153 214 -246
319 -271 309 -27 -10 1 -61 259 -466 26 -40 70 -97 99 -125 l53 -52 -37 -45
c-79 -99 -94 -114 -99 -101 -8 25 -102 157 -173 242 -39 47 -102 141 -141 210
-39 69 -84 142 -101 163 l-30 39 154 154 c85 85 156 154 159 154 3 0 46 -60
95 -132z m-336 -412 c91 -187 213 -380 293 -463 l31 -32 -83 -88 c-46 -48 -86
-89 -90 -91 -4 -1 -13 12 -21 30 -7 18 -76 116 -152 217 -76 101 -168 230
-204 288 l-66 105 24 31 c44 61 160 197 167 196 4 0 49 -87 101 -193z m-265
-163 c55 -113 128 -231 215 -347 38 -50 75 -105 84 -122 9 -18 28 -46 43 -63
l26 -31 -31 -38 c-50 -63 -59 -69 -77 -44 -8 12 -40 50 -70 85 -30 34 -102
132 -159 218 -58 86 -129 181 -159 211 l-54 54 65 88 c35 48 66 86 69 84 2 -3
24 -45 48 -95z m-143 -201 c30 -48 96 -154 145 -236 59 -99 112 -173 156 -220
l67 -70 -27 -38 c-15 -20 -30 -38 -34 -38 -3 0 -20 24 -37 53 -17 28 -76 108
-131 177 -56 69 -137 173 -182 233 -44 59 -85 107 -89 107 -5 0 -9 5 -9 10 0
11 71 108 80 109 3 1 30 -38 61 -87z m-120 -124 c55 -109 131 -226 209 -318
63 -75 143 -190 137 -197 -9 -8 -88 28 -141 66 -33 22 -65 41 -72 41 -7 0 -69
37 -136 83 -68 46 -154 101 -193 122 -38 21 -72 39 -74 41 -5 4 99 124 107
124 4 0 15 -20 25 -45 49 -117 213 -283 248 -248 18 18 -10 64 -86 142 -40 42
-90 103 -109 136 l-36 59 37 38 c20 21 38 38 40 38 1 0 21 -37 44 -82z m5594
-65 c19 -9 35 -21 35 -26 0 -5 -13 -32 -30 -59 -16 -26 -30 -53 -30 -58 0 -23
31 -7 61 33 18 23 36 46 41 51 4 6 16 2 27 -8 20 -18 20 -19 -18 -70 -22 -28
-50 -74 -64 -101 -14 -28 -34 -61 -46 -75 l-20 -25 -1 178 c0 97 2 177 5 177
2 0 20 -8 40 -17z m229 -166 l38 -33 -49 -54 c-27 -30 -65 -77 -85 -105 -53
-73 -77 -92 -130 -99 l-48 -7 0 44 c0 37 5 47 30 66 17 12 56 57 87 99 68 94
93 122 107 122 6 0 28 -15 50 -33z m135 -96 l24 -18 -31 -55 c-17 -30 -39 -61
-49 -70 -18 -15 -174 -36 -160 -21 41 44 183 183 187 183 3 0 16 -9 29 -19z
m-6195 -53 c55 -71 274 -391 359 -523 49 -77 107 -163 128 -191 l40 -52 -3
-123 -3 -124 -111 135 c-98 119 -238 308 -388 525 -27 39 -60 82 -73 96 -24
26 -24 26 -12 145 6 65 13 125 15 132 6 20 22 14 48 -20z m6357 -59 c38 -28
69 -53 69 -55 0 -5 -223 7 -229 12 -5 5 73 93 83 94 5 0 39 -23 77 -51z
m-6104 -97 c102 -69 136 -108 226 -264 56 -95 56 -97 49 -154 l-7 -57 -41 54
c-23 30 -76 106 -119 169 -43 63 -121 169 -174 235 -119 147 -127 160 -70 114
24 -20 86 -63 136 -97z m303 -217 c-5 -20 -10 -38 -12 -40 -1 -2 -25 28 -52
67 l-48 69 60 -30 60 -30 -8 -36z m-470 -152 c85 -130 195 -286 244 -347 49
-61 113 -142 142 -181 l52 -70 12 -176 c7 -97 11 -182 9 -188 -3 -7 -30 25
-62 71 -32 46 -114 164 -182 263 -69 99 -172 239 -229 311 -154 192 -145 170
-152 377 -4 104 -3 177 2 176 5 0 79 -107 164 -236z m-32 -383 c54 -74 143
-200 197 -280 54 -80 124 -179 156 -220 62 -81 123 -180 111 -180 -14 0 -95
51 -201 126 -92 66 -107 80 -99 94 16 26 -28 112 -103 200 -36 41 -76 91 -89
110 -13 19 -47 60 -75 90 l-52 55 11 94 c10 94 10 94 27 70 10 -13 62 -85 117
-159z m-33 -276 c85 -122 85 -123 -3 -51 -46 38 -99 78 -118 90 -37 23 -37 23
-18 120 6 30 9 27 139 -159z m3543 -695 c54 -50 107 -96 119 -101 20 -10 22
-19 25 -102 2 -50 2 -93 1 -95 -5 -8 -244 149 -393 259 -91 67 -167 124 -169
126 -2 2 69 4 158 4 l163 0 96 -91z m142 46 c0 -25 -2 -45 -4 -45 -9 0 -127
73 -132 81 -3 5 27 9 65 9 l71 0 0 -45z m-405 -190 c44 -37 133 -103 199 -148
65 -45 139 -97 165 -115 l46 -32 6 -133 c3 -72 4 -134 3 -136 -2 -1 -20 10
-41 26 -21 16 -91 69 -155 117 -64 48 -175 138 -245 198 l-128 111 -6 71 c-4
39 -7 102 -8 139 l-1 69 43 -51 c23 -27 78 -80 122 -116z m100 -452 c114 -101
213 -177 276 -208 l49 -25 0 -136 c0 -156 12 -151 -105 -49 -38 34 -104 88
-145 122 -41 33 -122 102 -179 153 -58 51 -115 97 -128 103 -22 10 -23 14 -23
146 l0 136 83 -81 c45 -44 123 -117 172 -161z m-158 -180 c79 -98 247 -252
405 -370 l77 -58 1 -110 0 -109 -67 65 c-86 83 -174 158 -288 245 -189 145
-236 188 -231 209 3 11 6 66 6 123 0 58 4 102 10 102 5 0 44 -44 87 -97z m-51
-279 c27 -26 117 -106 199 -179 83 -73 194 -178 248 -234 l97 -102 0 -67 c0
-37 3 -78 7 -92 5 -20 -3 -15 -45 27 -29 29 -96 84 -150 122 -149 107 -225
173 -287 251 -31 39 -72 78 -91 87 l-34 17 0 108 c0 59 2 108 3 108 2 0 26
-21 53 -46z m9 -313 c50 -76 161 -186 328 -323 59 -49 107 -93 107 -98 0 -4
27 -36 60 -69 l60 -61 6 -152 6 -153 -54 60 c-29 33 -100 109 -157 170 -57 60
-149 166 -204 235 -56 69 -125 149 -154 178 l-53 53 0 115 c0 63 2 114 5 114
2 0 25 -31 50 -69z m15 -326 c94 -141 199 -269 486 -592 l64 -72 0 -74 c0 -41
-3 -108 -6 -150 l-7 -76 -55 77 c-84 117 -166 216 -278 334 -79 83 -121 138
-183 242 -45 74 -86 138 -91 141 -11 7 -13 148 -4 219 8 54 5 56 74 -49z m19
-475 c23 -38 89 -122 148 -187 111 -122 154 -178 291 -375 113 -162 111 -167
-37 -84 -84 48 -98 59 -110 93 -8 21 -45 71 -86 113 -90 94 -183 203 -259 302
l-58 78 1 102 c1 57 4 118 8 137 6 32 6 32 33 -38 16 -40 47 -103 69 -141z
m-86 -259 c14 -21 47 -64 72 -96 26 -31 45 -58 43 -60 -2 -2 -36 20 -75 48
-72 52 -72 52 -73 100 0 26 2 47 4 47 2 0 15 -17 29 -39z"/>
<path d="M4555 7591 c-61 -25 -186 -166 -365 -411 -62 -85 -206 -267 -320
-405 -520 -630 -841 -1057 -936 -1247 -20 -40 -52 -99 -71 -130 -60 -101 -38
-131 123 -165 69 -14 175 -16 840 -17 823 -1 798 -3 824 53 10 19 15 153 21
506 9 523 20 809 43 1067 9 93 18 257 22 365 6 172 5 206 -10 258 -30 102
-101 154 -171 126z m50 -197 c4 -31 4 -58 1 -61 -2 -3 -21 7 -40 22 l-35 27
25 34 c15 19 30 34 34 34 4 0 11 -25 15 -56z m-41 -121 c43 -67 43 -69 37
-131 l-6 -64 -80 73 c-44 40 -79 76 -79 79 5 15 70 110 77 110 4 0 27 -30 51
-67z m-69 -203 c41 -54 79 -101 84 -104 5 -4 8 -21 6 -39 -3 -17 -7 -59 -11
-92 l-6 -59 -128 133 -129 133 46 69 c25 38 50 66 54 63 5 -3 43 -50 84 -104z
m-127 -198 c49 -65 113 -139 141 -164 l51 -46 0 -66 c0 -36 -4 -66 -9 -66 -11
0 -351 340 -351 352 0 8 71 108 77 108 1 0 42 -53 91 -118z m-174 -73 c39 -59
258 -310 311 -357 l45 -40 0 -74 c0 -42 -3 -96 -6 -122 l-7 -47 -31 38 c-112
136 -317 354 -407 433 l-66 57 60 77 c33 42 63 76 67 76 4 0 19 -18 34 -41z
m-11 -349 c110 -117 217 -247 298 -361 l54 -77 -3 -118 -3 -119 -92 95 c-85
88 -383 409 -504 544 -59 65 -62 47 25 174 l44 63 41 -48 c23 -26 86 -95 140
-153z m-244 -118 c57 -85 320 -396 505 -596 l91 -100 -1 -68 c-1 -38 -4 -71
-7 -75 -11 -11 -88 59 -192 177 -58 65 -161 172 -228 237 -67 65 -153 152
-191 193 l-69 75 -1 110 c-1 112 6 151 24 140 6 -4 37 -46 69 -93z m-217 -177
c-2 -74 1 -171 6 -217 6 -46 10 -84 8 -85 -1 -1 -58 -7 -126 -13 -69 -6 -171
-21 -227 -34 -57 -13 -103 -22 -103 -20 0 8 436 504 443 504 1 0 1 -61 -1
-135z m207 -137 c38 -51 136 -169 219 -263 83 -93 149 -171 147 -173 -2 -2
-48 26 -102 64 -187 128 -213 145 -266 165 l-54 20 -11 102 c-13 108 -15 177
-7 177 3 0 36 -42 74 -92z m-159 -316 c-13 -9 -83 -70 -155 -135 -71 -65 -157
-136 -189 -158 -57 -39 -62 -41 -153 -45 -55 -2 -93 1 -93 6 0 6 5 10 11 10 5
0 58 31 117 68 59 38 145 89 191 113 47 24 110 67 141 96 52 48 75 58 135 61
18 1 17 -1 -5 -16z m-260 -6 c0 -2 -48 -40 -107 -84 -60 -44 -137 -105 -173
-136 -70 -60 -173 -116 -211 -115 -67 2 -65 6 61 170 l119 155 36 -4 37 -4
-39 -40 c-21 -22 -68 -63 -105 -91 -60 -46 -80 -67 -63 -67 3 0 38 16 78 36
71 36 190 122 205 150 9 15 162 44 162 30z m470 -85 c0 -4 -13 -17 -29 -28
-15 -12 -62 -53 -104 -92 -128 -118 -141 -125 -263 -125 -57 -1 -104 1 -104 4
0 3 15 14 34 24 19 10 88 61 153 112 65 52 147 109 182 128 l65 34 33 -25 c18
-14 33 -28 33 -32z m116 -78 c24 -16 44 -32 44 -37 0 -5 -28 -38 -63 -73 l-64
-63 -121 0 c-67 0 -122 2 -122 4 0 2 17 15 38 27 20 13 71 48 112 79 78 58
122 89 129 89 2 1 23 -11 47 -26z m244 -169 c0 -2 -55 -4 -122 -4 l-122 0 54
49 55 48 67 -45 c38 -25 68 -47 68 -48z"/>
</g>
</svg>
