<svg xmlns="http://www.w3.org/2000/svg" viewBox="0 0 435.56 104.59"><defs><style>.cls-1{fill:#231f20;}</style></defs><g id="Layer_2" data-name="Layer 2"><g id="Layer_1-2" data-name="Layer 1"><path class="cls-1" d="M113.88,53.75c0-17.43,12.4-29.61,29.49-29.61,9.28,0,17.32,3.57,22.13,10.72l-4.14,3c-4.24-5.92-10.72-8.72-18-8.72-13.74,0-23.8,9.84-23.8,24.59s10.06,24.58,23.8,24.58c7.27,0,13.75-2.79,18-8.72l4.14,3c-4.81,7-12.85,10.73-22.13,10.73C126.28,83.36,113.88,71.07,113.88,53.75Z"/><path class="cls-1" d="M240.14,48.83V82.91h-5.59V49.28c0-13.19-7-20.12-18.88-20.12-13.75,0-22.13,8.83-22.13,22.69V82.91H188V0h5.58V36.76c4-7.93,12.07-12.62,22.91-12.62C230.64,24.14,240.14,32.52,240.14,48.83Z"/><path class="cls-1" d="M265.84,9.92a4.6,4.6,0,0,1,4.58-4.58,4.53,4.53,0,1,1-4.58,4.58Zm1.78,14.66h5.59V82.91h-5.59Z"/><path class="cls-1" d="M359.36,53.75c0,17.54-12.4,29.61-28.83,29.61-10.28,0-19-5-23.69-13.75v35h-5.59v-80h5.37V38.33c4.58-8.94,13.41-14.19,23.91-14.19C347,24.14,359.36,36.32,359.36,53.75Zm-5.59,0c0-14.64-10.17-24.59-23.58-24.59s-23.46,10-23.46,24.59,10.06,24.58,23.46,24.58S353.77,68.38,353.77,53.75Z"/><path class="cls-1" d="M435.56,48.83V82.91H430V49.28c0-13.19-7-20.12-18.88-20.12C397.35,29.16,389,38,389,51.85V82.91h-5.59V24.58h5.36V37.21c3.91-8.16,12.07-13.07,23.13-13.07C426.06,24.14,435.56,32.52,435.56,48.83Z"/><path class="cls-1" d="M63.17,20A21.5,21.5,0,0,1,82.31,32.22a17.65,17.65,0,0,1-.51,14.43c-4.52,9.9-29.38,32.2-37.55,39.53l-.7.62-.69-.62c-8.17-7.33-33-29.63-37.55-39.53A17.65,17.65,0,0,1,4.8,32.22,20.4,20.4,0,0,1,15.56,21.8,20.25,20.25,0,0,1,23.94,20a20.72,20.72,0,0,1,5.53.76c4.05,1.14,8.14,4.31,11.22,8.69l2.86,4.09,2.87-4.08c3.08-4.39,7.17-7.56,11.22-8.7A20.72,20.72,0,0,1,63.17,20m0-3.5a24.35,24.35,0,0,0-6.48.89c-5.21,1.47-9.9,5.45-13.14,10.05-3.23-4.6-7.92-8.58-13.14-10a24.23,24.23,0,0,0-6.47-.89,23.91,23.91,0,0,0-9.81,2.11A23.78,23.78,0,0,0,1.57,30.87,21.21,21.21,0,0,0,2.12,48.1C8,60.93,43.37,91.05,43.55,91.56,43.74,91.05,79.13,60.93,85,48.1a21.18,21.18,0,0,0,.56-17.23A23.78,23.78,0,0,0,73,18.6a23.91,23.91,0,0,0-9.81-2.11Z"/><path class="cls-1" d="M63,38.82a13.33,13.33,0,0,1,11.84,7.57,10.86,10.86,0,0,1-.33,8.84c-1.94,4.27-10.26,13-24.72,26.06C35.34,68.27,27,59.5,25.08,55.23a10.86,10.86,0,0,1-.33-8.84,13.33,13.33,0,0,1,11.84-7.57A12.32,12.32,0,0,1,40,39.3a13.66,13.66,0,0,1,6.93,5.42l2.87,4.1,2.87-4.1A13.62,13.62,0,0,1,59.6,39.3,12.32,12.32,0,0,1,63,38.82m0-3.5a16,16,0,0,0-4.36.61,17,17,0,0,0-8.85,6.79A17,17,0,0,0,41,35.93a16,16,0,0,0-11,.82A16,16,0,0,0,21.52,45a14.37,14.37,0,0,0,.37,11.64c3.95,8.67,26.89,29,27,29.36C49,85.7,73.76,65.35,77.7,56.68A14.34,14.34,0,0,0,78.08,45,16.82,16.82,0,0,0,63,35.32Z"/><path class="cls-1" d="M63.4,54.84a5.68,5.68,0,0,1,2.26.47A5.44,5.44,0,0,1,68.54,58a4.19,4.19,0,0,1-.16,3.45c-.66,1.4-3.34,4.74-12.31,12.69-9-8-11.64-11.29-12.3-12.69A4.19,4.19,0,0,1,43.61,58a5.4,5.4,0,0,1,2.88-2.66,5.68,5.68,0,0,1,2.26-.47,5.81,5.81,0,0,1,1.49.2,6,6,0,0,1,3,2.34l2.84,4,2.85-4a6,6,0,0,1,3-2.34,5.81,5.81,0,0,1,1.49-.2m0-3.5a9.35,9.35,0,0,0-2.42.32,9.51,9.51,0,0,0-4.91,3.68,8.5,8.5,0,0,0-7.32-4,9.16,9.16,0,0,0-3.67.77,8.79,8.79,0,0,0-4.69,4.49,7.61,7.61,0,0,0,.21,6.3C42.79,67.59,56,78.61,56.07,78.8c.07-.19,13.29-11.21,15.48-15.9a7.61,7.61,0,0,0,.21-6.3,8.83,8.83,0,0,0-4.69-4.49,9.19,9.19,0,0,0-3.67-.77Z"/></g></g></svg>