<?xml version="1.0" encoding="UTF-8" standalone="no"?>
<!DOCTYPE svg PUBLIC "-//W3C//DTD SVG 1.1//EN" "http://www.w3.org/Graphics/SVG/1.1/DTD/svg11.dtd">
<svg version="1.1" xmlns="http://www.w3.org/2000/svg" xmlns:xlink="http://www.w3.org/1999/xlink" preserveAspectRatio="xMidYMid meet" viewBox="0 0 640 640" width="640" height="640"><defs><path d="M243.18 294.37C242.57 294.81 237.71 298.34 237.1 298.78C230.87 290.08 221.35 285.97 210.65 285.97C190.46 285.97 175.68 300.43 175.68 322.1C175.68 343.77 190.46 358.22 210.65 358.22C221.33 358.22 230.85 354.12 237.1 345.4C237.71 345.84 242.57 349.37 243.18 349.81C236.11 360.1 224.3 365.58 210.66 365.58C185.55 365.64 167.33 347.58 167.33 322.13C167.33 296.52 185.55 278.62 210.66 278.62C224.3 278.62 236.11 283.87 243.18 294.37Z" id="jCoo9x0VS"></path><path d="M243.18 294.37C242.57 294.81 237.71 298.34 237.1 298.78C230.87 290.08 221.35 285.97 210.65 285.97C190.46 285.97 175.68 300.43 175.68 322.1C175.68 343.77 190.46 358.22 210.65 358.22C221.33 358.22 230.85 354.12 237.1 345.4C237.71 345.84 242.57 349.37 243.18 349.81C236.11 360.1 224.3 365.58 210.66 365.58C185.55 365.64 167.33 347.58 167.33 322.13C167.33 296.52 185.55 278.62 210.66 278.62C224.3 278.62 236.11 283.87 243.18 294.37Z" id="hkJ8gYkxh"></path><path d="M344.64 364.97C344.64 335.33 344.64 318.85 344.64 315.56C344.64 296.18 334.36 286 316.9 286C296.7 286 284.38 298.97 284.38 319.34C284.38 322.38 284.38 337.59 284.38 364.97C283.84 364.97 281.12 364.97 276.24 364.97L276.24 243.15C281.16 243.15 283.89 243.15 284.44 243.15C284.44 275.56 284.44 293.56 284.44 297.16C290.32 285.51 302.18 278.62 318.1 278.62C338.9 278.62 352.86 290.93 352.86 314.9C352.86 321.58 352.86 338.27 352.86 364.97C351.22 364.97 345.46 364.97 344.64 364.97Z" id="b2Gq9vuG5Y"></path><path d="M344.64 364.97C344.64 335.33 344.64 318.85 344.64 315.56C344.64 296.18 334.36 286 316.9 286C296.7 286 284.38 298.97 284.38 319.34C284.38 322.38 284.38 337.59 284.38 364.97C283.84 364.97 281.12 364.97 276.24 364.97L276.24 243.15C281.16 243.15 283.89 243.15 284.44 243.15C284.44 275.56 284.44 293.56 284.44 297.16C290.32 285.51 302.18 278.62 318.1 278.62C338.9 278.62 352.86 290.93 352.86 314.9C352.86 321.58 352.86 338.27 352.86 364.97C351.22 364.97 345.46 364.97 344.64 364.97Z" id="bHIQxO6d5"></path><path d="M403.93 257.73C403.89 261.4 400.88 264.35 397.2 264.31C393.58 264.27 390.66 261.34 390.62 257.73C390.63 254.02 393.64 251.01 397.35 251C401.02 251.04 403.97 254.05 403.93 257.73ZM401.45 279.27L401.45 364.97L393.23 364.97L393.23 279.27L401.45 279.27Z" id="b6GGS2VkE"></path><path d="M403.93 257.73C403.89 261.4 400.88 264.35 397.2 264.31C393.58 264.27 390.66 261.34 390.62 257.73C390.63 254.02 393.64 251.01 397.35 251C401.02 251.04 403.97 254.05 403.93 257.73ZM401.45 279.27L401.45 364.97L393.23 364.97L393.23 279.27L401.45 279.27Z" id="a2Vdzkww3"></path><path d="M450.86 345.43C450.86 348.86 450.86 366 450.86 396.86C450.31 396.86 447.58 396.86 442.65 396.86L442.65 279.31C447.38 279.3 450.01 279.3 450.54 279.31C450.54 291.41 450.54 298.13 450.54 299.47C457.27 286.33 470.24 278.62 485.67 278.62C509.87 278.62 528.03 296.52 528.03 322.13C528.03 347.9 509.81 365.64 485.67 365.64C470.57 365.64 457.75 358.29 450.86 345.43ZM450.7 322.13C450.7 343.57 465.48 358.25 485.17 358.25C504.86 358.25 519.82 343.62 519.82 322.13C519.82 300.62 504.88 286 485.17 286C465.47 286 450.7 300.69 450.7 322.13Z" id="cFk54Ml99"></path><path d="M450.86 345.43C450.86 348.86 450.86 366 450.86 396.86C450.31 396.86 447.58 396.86 442.65 396.86L442.65 279.31C447.38 279.3 450.01 279.3 450.54 279.31C450.54 291.41 450.54 298.13 450.54 299.47C457.27 286.33 470.24 278.62 485.67 278.62C509.87 278.62 528.03 296.52 528.03 322.13C528.03 347.9 509.81 365.64 485.67 365.64C470.57 365.64 457.75 358.29 450.86 345.43ZM450.7 322.13C450.7 343.57 465.48 358.25 485.17 358.25C504.86 358.25 519.82 343.62 519.82 322.13C519.82 300.62 504.88 286 485.17 286C465.47 286 450.7 300.69 450.7 322.13Z" id="b5vpXVSWaV"></path><path d="M631.83 364.97C631.83 335.33 631.83 318.85 631.83 315.56C631.83 296.18 621.54 286 604.09 286C583.86 286 571.59 298.99 571.59 319.34C571.59 322.38 571.59 337.59 571.59 364.97C571.04 364.97 568.3 364.97 563.37 364.97L563.37 279.27C568.1 279.27 570.72 279.27 571.25 279.27C571.25 290.4 571.25 296.59 571.25 297.82C576.99 285.83 588.98 278.62 605.23 278.62C626.04 278.62 640 290.93 640 314.9C640 321.58 640 338.27 640 364.97C638.37 364.97 632.65 364.97 631.83 364.97Z" id="a23zNRGIk3"></path><path d="M631.83 364.97C631.83 335.33 631.83 318.85 631.83 315.56C631.83 296.18 621.54 286 604.09 286C583.86 286 571.59 298.99 571.59 319.34C571.59 322.38 571.59 337.59 571.59 364.97C571.04 364.97 568.3 364.97 563.37 364.97L563.37 279.27C568.1 279.27 570.72 279.27 571.25 279.27C571.25 290.4 571.25 296.59 571.25 297.82C576.99 285.83 588.98 278.62 605.23 278.62C626.04 278.62 640 290.93 640 314.9C640 321.58 640 338.27 640 364.97C638.37 364.97 632.65 364.97 631.83 364.97Z" id="a2ze97gKWs"></path><path d="M92.82 272.54C104.85 272.68 115.75 279.64 120.94 290.49C123.73 297.34 123.46 305.06 120.19 311.7C113.55 326.24 77.02 359.01 65.02 369.78C64.95 369.84 64.61 370.14 63.99 370.69C63.38 370.14 63.04 369.84 62.98 369.78C50.97 359.01 14.49 326.24 7.8 311.7C4.54 305.06 4.27 297.34 7.05 290.49C10.19 283.57 15.84 278.1 22.86 275.18C26.73 273.43 30.93 272.53 35.18 272.54C37.92 272.54 40.66 272.92 43.3 273.65C49.25 275.33 55.26 279.99 59.79 286.42C60.07 286.82 61.47 288.83 63.99 292.43C66.52 288.83 67.93 286.84 68.21 286.44C72.73 279.99 78.74 275.33 84.69 273.65C87.34 272.92 90.07 272.54 92.82 272.54M63.99 283.47C59.25 276.71 52.35 270.86 44.68 268.78C41.59 267.91 38.39 267.47 35.18 267.47C30.21 267.47 25.29 268.53 20.76 270.57C12.55 273.98 5.95 280.4 2.31 288.51C-1.02 296.68 -0.73 305.88 3.12 313.83C11.75 332.68 63.73 376.94 63.99 377.68C64.27 376.94 116.27 332.68 124.9 313.83C128.75 305.89 129.05 296.68 125.72 288.51C122.09 280.36 115.49 273.91 107.26 270.48C102.73 268.44 97.82 267.38 92.85 267.38C89.6 267.4 86.4 267.84 83.3 268.7C75.64 270.86 68.75 276.71 63.99 283.47Z" id="a18fzfu1x"></path><path d="M92.82 272.54C104.85 272.68 115.75 279.64 120.94 290.49C123.73 297.34 123.46 305.06 120.19 311.7C113.55 326.24 77.02 359.01 65.02 369.78C64.95 369.84 64.61 370.14 63.99 370.69C63.38 370.14 63.04 369.84 62.98 369.78C50.97 359.01 14.49 326.24 7.8 311.7C4.54 305.06 4.27 297.34 7.05 290.49C10.19 283.57 15.84 278.1 22.86 275.18C26.73 273.43 30.93 272.53 35.18 272.54C37.92 272.54 40.66 272.92 43.3 273.65C49.25 275.33 55.26 279.99 59.79 286.42C60.07 286.82 61.47 288.83 63.99 292.43C66.52 288.83 67.93 286.84 68.21 286.44C72.73 279.99 78.74 275.33 84.69 273.65C87.34 272.92 90.07 272.54 92.82 272.54M63.99 283.47C59.25 276.71 52.35 270.86 44.68 268.78C41.59 267.91 38.39 267.47 35.18 267.47C30.21 267.47 25.29 268.53 20.76 270.57C12.55 273.98 5.95 280.4 2.31 288.51C-1.02 296.68 -0.73 305.88 3.12 313.83C11.75 332.68 63.73 376.94 63.99 377.68C64.27 376.94 116.27 332.68 124.9 313.83C128.75 305.89 129.05 296.68 125.72 288.51C122.09 280.36 115.49 273.91 107.26 270.48C102.73 268.44 97.82 267.38 92.85 267.38C89.6 267.4 86.4 267.84 83.3 268.7C75.64 270.86 68.75 276.71 63.99 283.47Z" id="bjBKdqrzI"></path><path d="M92.57 300.19C100.01 300.29 106.75 304.6 109.97 311.31C111.66 315.52 111.48 320.24 109.48 324.3C106.63 330.58 94.41 343.4 73.16 362.59C51.93 343.46 39.67 330.58 36.85 324.3C34.85 320.24 34.68 315.52 36.37 311.31C39.58 304.6 46.32 300.29 53.76 300.19C55.46 300.19 57.15 300.43 58.77 300.9C62.95 302.35 66.53 305.15 68.96 308.86C69.24 309.26 70.64 311.27 73.17 314.88C75.71 311.27 77.11 309.26 77.39 308.86C79.81 305.15 83.39 302.35 87.57 300.9C89.2 300.43 90.88 300.19 92.57 300.19M73.16 305.92C70.09 301.24 65.55 297.73 60.24 295.94C54.88 294.42 49.16 294.84 44.08 297.15C38.53 299.45 34.07 303.79 31.62 309.27C29.38 314.79 29.58 321.01 32.16 326.37C37.97 339.11 71.68 368.99 71.84 369.52C72 369.07 108.38 339.17 114.17 326.43C116.78 321.05 116.99 314.81 114.73 309.27C110.69 300.66 102.08 295.13 92.57 295.05C90.4 295.05 88.25 295.35 86.16 295.94C80.83 297.71 76.25 301.23 73.16 305.92Z" id="d3hxN1vuPO"></path><path d="M92.57 300.19C100.01 300.29 106.75 304.6 109.97 311.31C111.66 315.52 111.48 320.24 109.48 324.3C106.63 330.58 94.41 343.4 73.16 362.59C51.93 343.46 39.67 330.58 36.85 324.3C34.85 320.24 34.68 315.52 36.37 311.31C39.58 304.6 46.32 300.29 53.76 300.19C55.46 300.19 57.15 300.43 58.77 300.9C62.95 302.35 66.53 305.15 68.96 308.86C69.24 309.26 70.64 311.27 73.17 314.88C75.71 311.27 77.11 309.26 77.39 308.86C79.81 305.15 83.39 302.35 87.57 300.9C89.2 300.43 90.88 300.19 92.57 300.19M73.16 305.92C70.09 301.24 65.55 297.73 60.24 295.94C54.88 294.42 49.16 294.84 44.08 297.15C38.53 299.45 34.07 303.79 31.62 309.27C29.38 314.79 29.58 321.01 32.16 326.37C37.97 339.11 71.68 368.99 71.84 369.52C72 369.07 108.38 339.17 114.17 326.43C116.78 321.05 116.99 314.81 114.73 309.27C110.69 300.66 102.08 295.13 92.57 295.05C90.4 295.05 88.25 295.35 86.16 295.94C80.83 297.71 76.25 301.23 73.16 305.92Z" id="j4mVKDMQe"></path><path d="M93.16 323.73C94.3 323.73 95.43 323.97 96.48 324.42C98.33 325.16 99.84 326.57 100.71 328.37C101.36 330.02 101.28 331.86 100.48 333.44C99.51 335.5 95.57 340.41 82.39 352.09C69.16 340.33 65.28 335.5 64.31 333.44C63.51 331.86 63.43 330.02 64.08 328.37C64.95 326.59 66.46 325.19 68.31 324.46C69.36 324.01 70.49 323.77 71.63 323.77C72.37 323.78 73.11 323.88 73.82 324.07C75.62 324.71 77.17 325.91 78.23 327.51C78.51 327.9 79.9 329.86 82.4 333.38C84.92 329.86 86.31 327.9 86.59 327.51C87.65 325.91 89.19 324.71 91 324.07C91.71 323.88 92.45 323.78 93.19 323.77M82.42 324.51C80.11 320.8 76.03 318.58 71.66 318.63C69.8 318.63 67.97 319.02 66.27 319.76C63.21 321 60.75 323.36 59.38 326.36C58.14 329.34 58.25 332.72 59.69 335.62C62.87 342.46 82.28 358.66 82.39 358.94C82.49 358.66 101.92 342.46 105.13 335.57C106.57 332.68 106.68 329.3 105.44 326.32C104.07 323.32 101.6 320.96 98.55 319.72C96.85 318.97 95.01 318.59 93.16 318.59C91.99 318.63 90.79 318.79 89.63 319.1C86.7 320.06 84.16 321.96 82.42 324.51Z" id="aQKAs2osA"></path><path d="M93.16 323.73C94.3 323.73 95.43 323.97 96.48 324.42C98.33 325.16 99.84 326.57 100.71 328.37C101.36 330.02 101.28 331.86 100.48 333.44C99.51 335.5 95.57 340.41 82.39 352.09C69.16 340.33 65.28 335.5 64.31 333.44C63.51 331.86 63.43 330.02 64.08 328.37C64.95 326.59 66.46 325.19 68.31 324.46C69.36 324.01 70.49 323.77 71.63 323.77C72.37 323.78 73.11 323.88 73.82 324.07C75.62 324.71 77.17 325.91 78.23 327.51C78.51 327.9 79.9 329.86 82.4 333.38C84.92 329.86 86.31 327.9 86.59 327.51C87.65 325.91 89.19 324.71 91 324.07C91.71 323.88 92.45 323.78 93.19 323.77M82.42 324.51C80.11 320.8 76.03 318.58 71.66 318.63C69.8 318.63 67.97 319.02 66.27 319.76C63.21 321 60.75 323.36 59.38 326.36C58.14 329.34 58.25 332.72 59.69 335.62C62.87 342.46 82.28 358.66 82.39 358.94C82.49 358.66 101.92 342.46 105.13 335.57C106.57 332.68 106.68 329.3 105.44 326.32C104.07 323.32 101.6 320.96 98.55 319.72C96.85 318.97 95.01 318.59 93.16 318.59C91.99 318.63 90.79 318.79 89.63 319.1C86.7 320.06 84.16 321.96 82.42 324.51Z" id="duDUx2Yyz"></path><path d="M505.49 283.18L505.49 283.18L506.94 283.94L508.34 284.76L509.71 285.63L511.04 286.56L512.32 287.54L513.57 288.57L513.57 288.57L514.77 289.64L515.93 290.77L517.04 291.95L518.1 293.17L519.12 294.44L520.09 295.75L521.01 297.11L521.88 298.51L522.69 299.95L523.45 301.44L524.16 302.96L524.81 304.53L525.41 306.13L525.95 307.77L526.43 309.45L526.85 311.16L527.2 312.91L527.5 314.69L527.73 316.5L527.9 318.35L528 320.23L528 320.49L528.03 322.13L528.03 322.13L528 324.05L527.89 325.94L527.73 327.79L527.5 329.61L527.2 331.4L526.84 333.16L526.42 334.87L525.94 336.55L525.4 338.2L524.81 339.8L524.15 341.37L523.44 342.9L522.68 344.38L521.86 345.83L520.99 347.23L520.07 348.58L519.1 349.9L518.08 351.16L517.02 352.38L515.9 353.55L515.77 353.69L514.74 354.68L513.54 355.75L512.3 356.78L511.01 357.75L509.68 358.67L508.31 359.54L506.91 360.36L505.47 361.12L505.4 361.15L503.99 361.82L503.69 361.95L502.47 362.47L500.93 363.06L499.35 363.6L497.73 364.07L497.51 364.13L496.09 364.48L494.42 364.83L492.72 365.12L491 365.35L489.25 365.52L487.47 365.61L485.67 365.65L484.54 365.63L483.42 365.59L482.31 365.52L481.21 365.43L480.12 365.31L479.49 365.22L479.04 365.16L477.97 364.98L476.91 364.78L475.95 364.57L475.87 364.55L474.83 364.3L473.81 364.02L473.33 363.87L472.79 363.71L471.8 363.38L470.81 363.02L469.84 362.64L468.88 362.24L467.93 361.81L467 361.35L466.09 360.87L465.19 360.36L464.3 359.84L463.43 359.28L462.58 358.71L461.74 358.11L460.92 357.48L460.12 356.84L459.33 356.17L458.56 355.47L457.81 354.76L457.08 354.02L456.37 353.26L455.68 352.48L455 351.67L454.35 350.84L453.71 350L453.1 349.13L452.51 348.23L451.94 347.32L451.39 346.39L450.86 345.43L450.86 396.87L442.65 396.87L442.65 279.31L450.54 279.31L450.54 299.47L451.06 298.5L451.6 297.54L452.16 296.61L452.74 295.69L453.35 294.8L453.98 293.93L454.63 293.08L455.3 292.26L455.99 291.45L456.7 290.67L457.43 289.91L458.18 289.17L458.89 288.51L458.95 288.46L459.74 287.77L460.54 287.1L461.37 286.45L462.21 285.83L463.07 285.24L463.95 284.66L464.84 284.12L465.75 283.59L466.68 283.09L466.95 282.96L467.62 282.62L468.58 282.17L469.55 281.75L470.53 281.35L471.54 280.98L472.55 280.64L473.58 280.32L474.62 280.03L475.67 279.76L476.74 279.53L477.82 279.31L478.91 279.13L479.92 278.99L480.01 278.98L481.12 278.85L482.24 278.75L483.37 278.68L484.52 278.63L485.67 278.62L487.47 278.65L489.25 278.75L491.01 278.92L492.74 279.15L494.44 279.44L496.11 279.79L497.76 280.21L499.37 280.69L500.95 281.22L502.5 281.82L504.01 282.47L504.01 282.47L505.49 283.18ZM97.3 267.66L97.67 267.71L98.03 267.76L98.4 267.82L98.76 267.88L99.13 267.95L99.49 268.01L99.86 268.09L100.22 268.16L100.58 268.24L100.94 268.33L101.3 268.41L101.66 268.5L102.02 268.6L102.38 268.7L102.43 268.71L102.73 268.8L103.09 268.91L103.19 268.94L103.44 269.02L103.8 269.13L104.15 269.25L104.5 269.37L104.85 269.5L105.2 269.63L105.54 269.76L105.89 269.9L106.23 270.04L106.58 270.18L106.92 270.33L107.26 270.48L107.87 270.74L108.48 271.01L109.08 271.3L109.68 271.6L110.27 271.9L110.85 272.22L111.42 272.55L111.99 272.89L112.55 273.24L112.55 273.24L113.11 273.6L113.65 273.97L114.19 274.34L114.72 274.73L115.25 275.13L115.76 275.54L116.27 275.96L116.77 276.39L117.26 276.82L117.74 277.27L118.22 277.72L118.68 278.19L119.14 278.66L119.59 279.14L120.02 279.63L120.45 280.13L120.87 280.63L120.88 280.64L121.29 281.15L121.69 281.67L122.08 282.2L122.46 282.74L122.83 283.28L123.2 283.83L123.55 284.39L123.89 284.96L124.22 285.54L124.54 286.12L124.55 286.13L124.85 286.7L125.15 287.3L125.44 287.9L125.72 288.51L125.72 288.51L125.96 289.12L126.19 289.74L126.41 290.36L126.61 290.99L126.8 291.62L126.97 292.25L127.14 292.88L127.28 293.52L127.42 294.16L127.54 294.8L127.65 295.44L127.74 296.08L127.82 296.73L127.89 297.37L127.94 298.02L127.98 298.67L127.98 298.69L128 299.31L128.02 299.96L128.02 300.61L128 301.26L127.97 301.9L127.93 302.55L127.88 303.2L127.81 303.84L127.73 304.48L127.63 305.13L127.53 305.77L127.4 306.4L127.27 307.04L127.12 307.67L126.96 308.31L126.78 308.93L126.59 309.56L126.39 310.18L126.18 310.8L125.95 311.41L125.94 311.43L125.71 312.02L125.45 312.63L125.18 313.23L124.9 313.83L124.17 315.29L124.02 315.56L123.29 316.84L122.27 318.47L121.1 320.18L119.82 321.96L118.41 323.8L116.89 325.69L115.28 327.64L113.57 329.63L113.57 329.63L111.78 331.66L109.92 333.72L107.99 335.8L106.01 337.9L103.98 340.01L101.91 342.13L99.81 344.24L99.81 344.24L97.7 346.35L95.57 348.44L93.44 350.51L91.31 352.55L89.21 354.56L87.12 356.53L85.07 358.45L83.07 360.32L81.11 362.13L79.21 363.87L77.39 365.54L75.64 367.13L73.98 368.64L72.41 370.05L70.95 371.36L69.6 372.57L68.38 373.67L67.29 374.65L66.33 375.51L65.53 376.23L64.89 376.82L64.41 377.26L64.11 377.55L63.99 377.69L63.88 377.55L63.57 377.26L63.1 376.82L62.46 376.23L61.65 375.51L60.7 374.65L59.61 373.67L58.39 372.57L57.04 371.36L55.58 370.05L54.02 368.64L52.36 367.13L50.61 365.54L48.79 363.87L46.89 362.13L44.94 360.32L43.06 358.58L42.93 358.45L40.88 356.53L38.8 354.56L36.69 352.55L34.57 350.51L32.44 348.44L30.32 346.35L28.2 344.24L26.1 342.13L24.04 340.01L22.01 337.9L20.02 335.8L18.1 333.72L16.24 331.66L14.45 329.63L12.74 327.64L11.12 325.69L9.61 323.8L8.2 321.96L6.91 320.18L5.75 318.47L4.73 316.84L3.85 315.29L3.12 313.83L2.84 313.23L2.57 312.63L2.31 312.02L2.07 311.41L1.84 310.8L1.63 310.18L1.43 309.56L1.24 308.93L1.24 308.93L1.06 308.3L0.9 307.67L0.75 307.04L0.62 306.4L0.5 305.76L0.39 305.12L0.29 304.48L0.29 304.48L0.21 303.84L0.14 303.19L0.09 302.55L0.05 301.9L0.02 301.25L0.01 300.61L0.01 299.96L0.02 299.31L0.05 298.66L0.09 298.02L0.14 297.37L0.14 297.37L0.21 296.72L0.29 296.08L0.38 295.44L0.49 294.8L0.61 294.16L0.61 294.16L0.75 293.52L0.89 292.88L1.06 292.25L1.23 291.62L1.42 290.99L1.62 290.36L1.84 289.74L2.07 289.12L2.31 288.51L2.59 287.9L2.88 287.31L3.18 286.71L3.49 286.13L3.81 285.55L4.14 284.98L4.49 284.41L4.84 283.86L5.16 283.37L5.2 283.31L5.57 282.76L5.96 282.23L6.35 281.7L6.75 281.18L7.16 280.67L7.58 280.17L8.01 279.67L8.44 279.19L8.45 279.19L8.9 278.71L9.36 278.24L9.82 277.78L10.3 277.32L10.78 276.88L11.27 276.45L11.77 276.02L12.27 275.6L12.79 275.2L13.31 274.8L13.84 274.41L14.38 274.04L14.93 273.67L15.48 273.31L16.04 272.96L16.6 272.63L17.18 272.3L17.76 271.99L18.35 271.68L18.94 271.39L19.54 271.1L20.15 270.83L20.76 270.57L21.1 270.42L21.44 270.27L21.79 270.13L22.13 269.99L22.48 269.85L22.82 269.72L23.17 269.59L23.52 269.46L23.87 269.34L24.23 269.22L24.58 269.11L24.93 269L25.29 268.89L25.65 268.79L26 268.69L26.36 268.6L26.72 268.5L27.08 268.42L27.44 268.33L27.81 268.25L28.17 268.18L28.53 268.1L28.89 268.04L28.9 268.04L29.21 267.98L29.26 267.97L29.63 267.91L29.99 267.85L30.36 267.8L30.73 267.75L31.1 267.71L31.47 267.66L31.84 267.63L32.21 267.59L32.58 267.56L32.95 267.54L33.32 267.52L33.59 267.5L33.69 267.5L33.99 267.49L34.06 267.49L34.43 267.48L34.81 267.47L35.18 267.47L35.42 267.47L35.66 267.47L35.9 267.47L36.14 267.48L36.38 267.49L36.62 267.5L36.86 267.51L37.1 267.52L37.34 267.53L37.58 267.55L37.82 267.57L38.06 267.59L38.16 267.59L38.3 267.61L38.41 267.62L38.54 267.63L38.78 267.65L39.02 267.68L39.26 267.71L39.5 267.73L39.74 267.76L39.98 267.8L40.21 267.83L40.37 267.85L40.45 267.87L40.69 267.9L40.93 267.94L41.16 267.98L41.4 268.02L41.64 268.07L41.73 268.08L41.87 268.11L42.11 268.16L42.34 268.21L42.58 268.26L42.81 268.31L43.05 268.36L43.28 268.42L43.52 268.47L43.75 268.53L43.98 268.59L44.22 268.65L44.45 268.71L44.68 268.78L45.25 268.94L45.82 269.12L46.39 269.31L46.48 269.34L46.96 269.51L47.52 269.73L47.59 269.76L48.07 269.96L48.63 270.2L49.18 270.46L49.72 270.72L50.27 271L50.8 271.29L51.34 271.59L51.87 271.9L52.39 272.22L52.91 272.56L53.43 272.9L53.94 273.25L53.95 273.27L54.44 273.62L54.94 273.99L55.43 274.37L55.92 274.76L56.41 275.16L56.88 275.56L56.93 275.6L57.35 275.98L57.82 276.4L58.28 276.83L58.73 277.26L59.18 277.71L59.62 278.16L60.05 278.61L60.48 279.08L60.48 279.08L60.9 279.54L61.31 280.02L61.72 280.5L61.72 280.5L62.11 280.98L62.5 281.47L62.89 281.96L63.26 282.46L63.63 282.96L63.99 283.47L64.35 282.96L64.72 282.46L65.1 281.96L65.48 281.47L65.87 280.98L66.27 280.5L66.68 280.02L67.09 279.54L67.51 279.08L67.94 278.61L68.37 278.16L68.81 277.71L69.26 277.26L69.71 276.82L70.17 276.39L70.64 275.97L71.11 275.56L71.59 275.15L72.07 274.75L72.54 274.37L72.56 274.36L73.05 273.98L73.55 273.6L74.06 273.24L74.56 272.88L75.08 272.54L75.6 272.2L76.12 271.88L76.65 271.56L77.18 271.26L77.66 271L77.72 270.97L78.26 270.68L78.81 270.41L79.36 270.16L79.91 269.91L80.47 269.68L81.03 269.45L81.59 269.24L82.16 269.05L82.73 268.87L83.3 268.7L83.53 268.63L83.77 268.57L84 268.51L84.23 268.45L84.47 268.39L84.7 268.34L84.94 268.28L85.17 268.23L85.41 268.18L85.64 268.13L85.88 268.08L86.12 268.04L86.35 267.99L86.59 267.95L86.83 267.91L87.06 267.87L87.3 267.83L87.54 267.79L87.78 267.76L88.02 267.72L88.26 267.69L88.5 267.66L88.74 267.63L88.98 267.6L89.22 267.58L89.46 267.55L89.7 267.53L89.94 267.51L90.18 267.49L90.42 267.47L90.66 267.45L90.91 267.44L91.15 267.43L91.39 267.41L91.63 267.4L91.88 267.4L92.12 267.39L92.36 267.38L92.61 267.38L92.85 267.38L92.85 267.38L93.22 267.38L93.6 267.39L93.97 267.4L94.34 267.41L94.71 267.43L95.08 267.45L95.45 267.47L95.82 267.5L96.19 267.54L96.56 267.57L96.93 267.62L96.93 267.62L97.3 267.66ZM90.35 272.64L90.15 272.66L89.94 272.68L89.74 272.7L89.53 272.72L89.33 272.74L89.13 272.77L88.92 272.79L88.72 272.82L88.51 272.85L88.31 272.88L88.11 272.91L87.9 272.94L87.7 272.98L87.5 273.01L87.3 273.05L87.09 273.09L86.89 273.13L86.86 273.13L86.69 273.17L86.49 273.21L86.29 273.25L86.09 273.3L85.89 273.34L85.69 273.39L85.49 273.44L85.29 273.49L85.09 273.54L84.89 273.59L84.69 273.65L84.24 273.78L83.8 273.92L83.35 274.08L82.9 274.24L82.46 274.42L82.43 274.43L82.01 274.6L81.57 274.8L81.13 275L80.68 275.22L80.24 275.45L79.8 275.69L79.36 275.93L78.92 276.19L78.49 276.46L78.05 276.73L77.62 277.02L77.19 277.31L76.76 277.62L76.34 277.93L75.91 278.25L75.49 278.59L75.08 278.93L74.66 279.28L74.25 279.63L73.84 280L73.44 280.37L73.04 280.76L72.64 281.15L72.62 281.16L72.24 281.55L71.86 281.96L71.47 282.37L71.09 282.79L70.71 283.22L70.34 283.66L69.97 284.11L69.61 284.56L69.25 285.02L68.9 285.49L68.55 285.96L68.21 286.44L68.19 286.47L68.16 286.51L68.13 286.56L68.09 286.61L68.05 286.66L68.01 286.73L67.96 286.8L67.91 286.87L67.85 286.95L67.79 287.04L67.72 287.13L67.58 287.33L67.42 287.56L67.24 287.81L67.15 287.95L67.05 288.09L66.94 288.23L66.84 288.39L66.72 288.55L66.61 288.71L66.49 288.88L66.36 289.06L66.23 289.24L66.1 289.43L65.96 289.62L65.82 289.82L65.68 290.03L65.53 290.24L65.37 290.46L65.22 290.69L65.05 290.92L64.89 291.16L64.87 291.18L64.72 291.4L64.54 291.65L64.36 291.9L64.18 292.16L63.99 292.43L63.8 292.16L63.62 291.9L63.44 291.65L63.27 291.4L63.1 291.15L62.93 290.92L62.77 290.69L62.61 290.46L62.46 290.24L62.31 290.03L62.17 289.82L62.02 289.62L61.89 289.43L61.89 289.42L61.76 289.24L61.76 289.23L61.63 289.05L61.5 288.87L61.38 288.7L61.27 288.54L61.16 288.38L61.05 288.22L60.95 288.08L60.85 287.94L60.75 287.8L60.66 287.67L60.58 287.55L60.5 287.43L60.42 287.32L60.28 287.11L60.15 286.93L59.99 286.71L59.95 286.64L59.91 286.59L59.87 286.54L59.84 286.49L59.81 286.45L59.79 286.42L59.45 285.94L59.1 285.47L58.75 285L58.39 284.54L58.02 284.09L57.66 283.65L57.28 283.21L56.91 282.78L56.53 282.36L56.14 281.95L55.75 281.54L55.35 281.14L54.96 280.75L54.56 280.37L54.15 280L53.75 279.63L53.74 279.63L53.34 279.28L53.33 279.27L52.92 278.92L52.5 278.58L52.08 278.25L51.65 277.93L51.23 277.62L50.8 277.31L50.37 277.02L49.94 276.73L49.5 276.46L49.07 276.19L48.63 275.93L48.19 275.69L47.75 275.45L47.31 275.22L46.86 275L46.42 274.8L45.98 274.6L45.53 274.42L45.09 274.24L44.64 274.08L44.19 273.92L43.75 273.78L43.3 273.65L43.1 273.59L42.9 273.54L42.7 273.49L42.51 273.44L42.31 273.39L42.11 273.34L41.91 273.3L41.7 273.25L41.5 273.21L41.3 273.17L41.1 273.13L40.9 273.09L40.7 273.05L40.51 273.01L40.5 273.01L40.29 272.98L40.09 272.94L39.89 272.91L39.68 272.88L39.48 272.85L39.28 272.82L39.07 272.79L38.87 272.77L38.67 272.74L38.46 272.72L38.26 272.7L38.05 272.68L37.85 272.66L37.64 272.64L37.44 272.62L37.23 272.61L37.03 272.6L36.82 272.58L36.62 272.57L36.41 272.56L36.21 272.56L36 272.55L35.8 272.54L35.59 272.54L35.39 272.54L35.18 272.54L34.86 272.54L34.54 272.54L34.22 272.55L33.91 272.56L33.59 272.58L33.27 272.59L32.95 272.62L32.64 272.64L32.32 272.67L32.01 272.7L31.69 272.73L31.38 272.77L31.06 272.81L30.75 272.86L30.43 272.91L30.12 272.96L29.81 273.01L29.5 273.07L29.19 273.13L28.88 273.2L28.57 273.27L28.26 273.34L27.95 273.41L27.93 273.42L27.64 273.49L27.34 273.57L27.03 273.66L26.73 273.74L26.42 273.83L26.29 273.88L26.12 273.93L25.82 274.03L25.52 274.13L25.22 274.23L24.92 274.34L24.62 274.45L24.33 274.56L24.03 274.68L23.74 274.8L23.44 274.92L23.15 275.05L23.11 275.07L22.86 275.18L22.34 275.4L21.82 275.64L21.3 275.88L20.8 276.13L20.29 276.39L20.29 276.39L19.8 276.66L19.31 276.94L18.82 277.23L18.34 277.52L18.2 277.62L17.87 277.83L17.72 277.93L17.4 278.14L16.94 278.47L16.49 278.8L16.04 279.13L15.6 279.48L15.17 279.84L14.74 280.2L14.32 280.57L13.91 280.95L13.5 281.33L13.1 281.73L12.71 282.13L12.67 282.17L12.33 282.54L11.95 282.95L11.58 283.37L11.22 283.8L11.2 283.83L10.87 284.24L10.52 284.68L10.19 285.13L9.86 285.59L9.54 286.05L9.23 286.52L9.22 286.54L8.92 287L8.63 287.48L8.34 287.96L8.07 288.46L8.04 288.51L7.8 288.96L7.54 289.46L7.29 289.97L7.05 290.49L6.85 291.01L6.66 291.52L6.48 292.04L6.31 292.57L6.15 293.1L6 293.62L5.87 294.16L5.75 294.69L5.64 295.22L5.63 295.25L5.54 295.76L5.45 296.3L5.37 296.84L5.3 297.38L5.25 297.92L5.21 298.46L5.17 299L5.15 299.55L5.14 300.09L5.15 300.63L5.16 301.17L5.18 301.72L5.22 302.26L5.27 302.8L5.33 303.34L5.4 303.88L5.48 304.42L5.57 304.95L5.67 305.49L5.79 306.02L5.92 306.55L6.05 307.08L6.2 307.6L6.36 308.13L6.54 308.65L6.72 309.16L6.91 309.68L7.12 310.19L7.33 310.7L7.56 311.2L7.8 311.7L8.36 312.83L9.02 314.01L9.79 315.26L10.65 316.57L11.6 317.93L12.64 319.34L13.76 320.8L14.95 322.29L16.22 323.83L17.56 325.4L17.81 325.69L18.95 327L20.4 328.63L21.9 330.28L23.45 331.95L25.03 333.63L26.65 335.33L28.31 337.03L29.98 338.74L31.68 340.45L33.4 342.16L35.12 343.86L36.85 345.55L38.57 347.22L40.3 348.88L42.01 350.51L43.7 352.12L45.38 353.69L47.03 355.24L48.65 356.75L50.23 358.21L51.77 359.63L53.27 361.01L53.31 361.04L54.72 362.33L56.11 363.59L57.44 364.8L58.7 365.94L59.89 367.01L61 368.01L62.03 368.94L62.98 369.79L62.99 369.79L63 369.8L63.01 369.81L63.02 369.82L63.03 369.83L63.04 369.84L63.05 369.85L63.06 369.86L63.08 369.88L63.09 369.89L63.13 369.92L63.15 369.94L63.19 369.98L63.23 370.02L63.28 370.06L63.33 370.11L63.45 370.21L63.51 370.27L63.55 370.3L63.62 370.36L63.66 370.4L63.69 370.43L63.73 370.47L63.82 370.54L63.86 370.58L63.9 370.62L63.94 370.66L63.99 370.7L64.12 370.58L64.21 370.5L64.25 370.47L64.33 370.4L64.37 370.36L64.37 370.36L64.44 370.3L64.51 370.24L64.57 370.18L64.66 370.11L64.71 370.06L64.76 370.02L64.83 369.96L64.88 369.91L64.92 369.88L64.95 369.85L64.98 369.82L65 369.8L65.02 369.79L65.97 368.94L67 368.01L68.11 367.01L68.68 366.5L68.21 366.06L67.34 365.24L66.39 364.35L65.37 363.4L64.3 362.38L63.16 361.31L61.98 360.18L60.75 359L59.48 357.78L58.17 356.52L56.84 355.22L55.49 353.89L54.12 352.53L52.74 351.15L51.35 349.75L49.97 348.34L48.59 346.91L47.23 345.49L45.88 344.06L44.56 342.63L43.26 341.21L42.01 339.81L40.79 338.42L39.62 337.05L38.5 335.7L37.44 334.39L36.45 333.11L35.53 331.86L34.68 330.66L33.91 329.51L33.23 328.41L32.65 327.36L32.16 326.37L31.97 325.97L31.79 325.56L31.62 325.15L31.48 324.79L31.46 324.74L31.3 324.33L31.16 323.91L31.02 323.49L30.9 323.07L30.78 322.64L30.67 322.22L30.57 321.79L30.48 321.36L30.4 320.93L30.33 320.5L30.26 320.06L30.21 319.63L30.16 319.19L30.13 318.76L30.1 318.32L30.08 317.88L30.07 317.44L30.07 317.01L30.08 316.57L30.1 316.13L30.12 315.72L30.16 315.26L30.21 314.82L30.26 314.39L30.32 313.95L30.4 313.52L30.48 313.09L30.57 312.67L30.57 312.66L30.67 312.23L30.78 311.8L30.89 311.37L31.02 310.95L31.16 310.52L31.3 310.1L31.46 309.69L31.62 309.27L31.81 308.86L32 308.46L32.2 308.06L32.41 307.66L32.63 307.27L32.86 306.89L33.09 306.5L33.32 306.13L33.57 305.76L33.82 305.39L34.08 305.03L34.34 304.67L34.61 304.32L34.89 303.97L35.18 303.63L35.47 303.3L35.76 302.97L36.06 302.65L36.37 302.33L36.69 302.02L37.01 301.71L37.33 301.41L37.67 301.12L38 300.83L38.34 300.55L38.69 300.28L39.05 300.01L39.4 299.75L39.77 299.49L40.14 299.24L40.51 299L40.89 298.77L41.27 298.54L41.66 298.32L42.05 298.11L42.41 297.92L42.45 297.9L42.85 297.7L43.26 297.51L43.67 297.33L44.08 297.15L44.46 296.98L44.85 296.82L45.23 296.66L45.62 296.51L46.01 296.37L46.41 296.24L46.8 296.11L47.2 295.99L47.59 295.88L47.99 295.77L48.4 295.67L48.8 295.58L49.2 295.5L49.61 295.42L50.01 295.35L50.42 295.29L50.83 295.23L51.16 295.19L51.24 295.18L51.65 295.14L52.06 295.11L52.4 295.09L52.47 295.08L52.88 295.06L53.29 295.05L53.7 295.04L54.11 295.05L54.52 295.05L54.93 295.07L55.35 295.09L55.76 295.13L56.17 295.16L56.58 295.21L56.99 295.26L57.08 295.27L57.4 295.32L57.4 295.32L57.81 295.39L57.88 295.4L58.22 295.46L58.62 295.54L59.03 295.63L59.43 295.73L59.84 295.83L60.24 295.94L60.64 296.08L61.03 296.22L61.42 296.37L61.81 296.53L62.19 296.69L62.58 296.86L62.95 297.04L63.33 297.22L63.7 297.4L64.07 297.6L64.43 297.8L64.79 298L65.15 298.21L65.5 298.43L65.85 298.65L66.2 298.88L66.54 299.11L66.88 299.35L67.21 299.6L67.54 299.85L67.87 300.1L68.19 300.36L68.5 300.63L68.82 300.9L68.83 300.91L69.12 301.18L69.43 301.46L69.72 301.75L70.02 302.04L70.31 302.34L70.59 302.64L70.87 302.95L71.15 303.26L71.42 303.57L71.68 303.9L71.94 304.22L71.95 304.24L72.2 304.55L72.44 304.89L72.69 305.23L72.93 305.57L73.16 305.92L73.39 305.57L73.63 305.23L73.88 304.89L74.13 304.55L74.39 304.22L74.65 303.89L74.91 303.57L74.92 303.57L75.19 303.25L75.46 302.94L75.75 302.63L76.03 302.33L76.03 302.33L76.32 302.03L76.62 301.74L76.92 301.45L77.23 301.17L77.54 300.89L77.85 300.62L78.17 300.35L78.49 300.09L78.82 299.84L79.15 299.59L79.47 299.35L79.49 299.34L79.83 299.1L80.17 298.87L80.5 298.65L80.52 298.64L80.87 298.42L81.23 298.2L81.59 297.99L81.95 297.79L82.31 297.59L82.68 297.39L83.06 297.21L83.42 297.04L83.43 297.03L83.81 296.85L84.2 296.68L84.58 296.52L84.97 296.37L85.37 296.22L85.76 296.08L86.16 295.94L86.32 295.9L86.47 295.85L86.63 295.81L86.79 295.77L86.95 295.73L87.1 295.69L87.26 295.66L87.42 295.62L87.58 295.59L87.74 295.55L87.79 295.54L87.9 295.52L88.06 295.49L88.22 295.46L88.37 295.43L88.53 295.4L88.69 295.37L88.85 295.35L89.01 295.32L89.17 295.3L89.34 295.27L89.5 295.25L89.66 295.23L89.82 295.21L89.98 295.19L90.14 295.18L90.3 295.16L90.46 295.14L90.62 295.13L90.79 295.12L90.95 295.11L91 295.1L91.11 295.1L91.27 295.09L91.43 295.08L91.59 295.07L91.76 295.06L91.92 295.06L92.08 295.06L92.24 295.05L92.41 295.05L92.57 295.05L93.28 295.07L93.99 295.1L94.69 295.16L95.39 295.24L96.09 295.33L96.78 295.45L97.46 295.58L98.14 295.73L98.81 295.9L99.48 296.1L100.14 296.3L100.79 296.53L101.43 296.77L101.45 296.78L102.07 297.04L102.7 297.31L103.32 297.61L103.93 297.92L104.53 298.25L105.12 298.6L105.7 298.96L106.27 299.34L106.83 299.73L107.38 300.14L107.92 300.57L107.95 300.59L108.45 301.01L108.97 301.46L109.47 301.93L109.96 302.42L110.44 302.92L110.9 303.43L111.35 303.95L111.79 304.49L112.21 305.05L112.62 305.61L113.01 306.19L113.38 306.78L113.75 307.39L114.09 308L114.42 308.63L114.73 309.27L114.89 309.69L115.05 310.11L115.2 310.53L115.33 310.95L115.46 311.38L115.58 311.81L115.69 312.24L115.79 312.67L115.88 313.1L115.96 313.53L116.04 313.97L116.04 314.01L116.1 314.4L116.15 314.84L116.16 314.88L116.2 315.28L116.23 315.72L116.26 316.16L116.28 316.6L116.29 317.03L116.29 317.47L116.28 317.91L116.27 318.12L116.41 317.93L117.36 316.57L118.21 315.26L118.98 314.01L119.64 312.83L120.19 311.7L120.43 311.2L120.66 310.7L120.88 310.19L121.08 309.68L121.28 309.16L121.46 308.65L121.63 308.13L121.79 307.6L121.94 307.08L122.08 306.55L122.21 306.02L122.32 305.49L122.43 304.95L122.52 304.42L122.6 303.88L122.67 303.34L122.73 302.8L122.78 302.26L122.81 301.72L122.84 301.17L122.85 300.63L122.85 300.09L122.84 299.55L122.82 299L122.79 298.46L122.75 297.92L122.69 297.38L122.63 296.84L122.63 296.84L122.55 296.3L122.46 295.76L122.36 295.22L122.26 294.76L122.25 294.69L122.12 294.16L121.99 293.62L121.84 293.1L121.69 292.57L121.52 292.04L121.34 291.52L121.14 291.01L120.94 290.49L120.54 289.68L120.12 288.89L119.68 288.12L119.22 287.35L118.74 286.61L118.23 285.88L117.72 285.17L117.18 284.47L116.62 283.79L116.05 283.13L115.46 282.48L114.85 281.85L114.23 281.24L113.61 280.67L113.59 280.65L112.95 280.09L112.93 280.08L112.26 279.52L111.58 278.99L110.88 278.47L110.17 277.97L109.45 277.5L108.71 277.04L107.96 276.6L107.19 276.19L106.42 275.79L105.64 275.42L104.84 275.07L104.03 274.74L103.22 274.43L102.39 274.14L101.56 273.88L100.72 273.63L99.87 273.42L99.01 273.22L98.14 273.05L97.27 272.9L96.39 272.78L95.51 272.68L94.69 272.62L94.62 272.61L93.72 272.56L92.82 272.54L92.61 272.54L92.41 272.54L92.2 272.54L92 272.55L91.79 272.56L91.58 272.56L91.38 272.57L91.17 272.58L90.97 272.6L90.76 272.61L90.56 272.62L90.56 272.62L90.35 272.64ZM222.36 280.04L223.28 280.28L224.18 280.55L225.08 280.83L225.96 281.14L226.84 281.46L227.7 281.81L228.55 282.17L229.38 282.56L230.21 282.96L231.02 283.38L231.82 283.83L232.61 284.29L233.38 284.77L234.14 285.27L234.88 285.8L235.62 286.34L236.33 286.9L237.03 287.48L237.72 288.08L238.39 288.7L239.05 289.34L239.69 290L240.31 290.68L240.92 291.38L241.51 292.1L242.08 292.83L242.64 293.59L243.18 294.37L243.13 294.41L243.06 294.46L242.97 294.52L242.88 294.59L242.77 294.67L242.65 294.76L242.51 294.85L242.37 294.96L242.22 295.07L242.06 295.18L241.89 295.31L241.71 295.43L241.53 295.57L241.34 295.7L241.15 295.84L240.95 295.99L240.55 296.28L239.94 296.72L239.73 296.87L239.33 297.16L239.13 297.31L238.94 297.45L238.75 297.58L238.57 297.72L238.39 297.84L238.22 297.97L238.06 298.08L237.91 298.2L237.77 298.3L237.63 298.39L237.51 298.48L237.4 298.56L237.31 298.63L237.22 298.69L237.15 298.74L237.1 298.78L236.63 298.14L236.14 297.51L235.64 296.9L235.13 296.31L234.61 295.73L234.08 295.17L233.54 294.63L232.98 294.11L232.42 293.6L231.84 293.11L231.26 292.63L230.66 292.18L230.06 291.74L229.44 291.31L228.81 290.9L228.18 290.51L227.54 290.14L226.88 289.78L226.22 289.44L225.55 289.11L224.87 288.8L224.19 288.51L223.49 288.23L222.79 287.97L222.08 287.73L221.36 287.5L220.64 287.29L219.9 287.09L219.17 286.91L218.42 286.75L217.67 286.6L216.91 286.47L216.15 286.35L215.38 286.25L214.6 286.16L213.82 286.09L213.04 286.04L212.25 286L211.45 285.98L210.65 285.97L209.15 286L207.66 286.08L206.2 286.21L204.76 286.4L203.35 286.63L201.96 286.92L200.6 287.26L199.26 287.65L197.95 288.08L196.67 288.57L195.42 289.1L194.19 289.68L193 290.3L191.84 290.97L190.71 291.69L189.62 292.45L188.56 293.25L187.53 294.09L186.55 294.98L185.59 295.91L184.68 296.88L183.81 297.89L182.97 298.93L182.17 300.02L181.42 301.15L180.71 302.31L180.04 303.51L179.42 304.74L178.84 306.01L178.3 307.31L177.82 308.65L177.38 310.02L176.99 311.43L176.65 312.86L176.35 314.33L176.11 315.82L175.93 317.35L175.79 318.91L175.71 320.49L175.68 322.1L175.71 323.71L175.79 325.3L175.93 326.85L176.11 328.38L176.35 329.88L176.65 331.34L176.99 332.78L177.38 334.18L177.82 335.55L178.3 336.89L178.84 338.19L179.42 339.46L180.04 340.7L180.71 341.89L181.42 343.06L182.17 344.18L182.97 345.27L183.81 346.31L184.68 347.32L185.59 348.29L186.55 349.22L187.53 350.11L188.56 350.95L189.62 351.75L190.71 352.51L191.84 353.23L193 353.9L194.19 354.52L195.42 355.1L196.67 355.63L197.95 356.11L199.26 356.55L200.6 356.94L201.96 357.28L203.35 357.56L204.76 357.8L206.2 357.99L207.66 358.12L209.15 358.2L210.65 358.23L211.45 358.22L212.24 358.2L213.03 358.16L213.82 358.1L214.6 358.03L215.37 357.95L216.14 357.85L216.9 357.73L217.66 357.6L218.41 357.45L219.15 357.29L219.89 357.11L220.62 356.91L221.35 356.7L222.06 356.47L222.77 356.22L223.48 355.96L224.17 355.69L224.86 355.4L225.54 355.09L226.21 354.76L226.87 354.42L227.52 354.06L228.17 353.69L228.8 353.29L229.43 352.89L230.04 352.46L230.65 352.02L231.25 351.56L231.83 351.09L232.41 350.6L232.97 350.09L233.53 349.56L234.07 349.02L234.61 348.46L235.13 347.88L235.64 347.29L236.14 346.68L236.63 346.05L237.1 345.4L237.15 345.44L237.22 345.49L237.31 345.55L237.4 345.62L237.51 345.7L237.63 345.79L237.77 345.89L237.91 345.99L238.06 346.1L238.22 346.22L238.39 346.34L238.57 346.47L238.75 346.6L238.94 346.74L239.13 346.88L239.33 347.02L239.73 347.31L240.34 347.76L240.55 347.91L240.95 348.2L241.15 348.34L241.34 348.48L241.53 348.62L241.71 348.75L241.89 348.88L242.06 349L242.22 349.12L242.37 349.23L242.51 349.33L242.65 349.43L242.77 349.52L242.88 349.6L242.97 349.67L243.06 349.73L243.13 349.78L243.18 349.82L242.64 350.58L242.08 351.32L241.51 352.05L240.92 352.76L240.31 353.45L239.69 354.12L239.05 354.77L238.39 355.41L237.72 356.02L237.03 356.62L236.33 357.2L235.62 357.76L234.88 358.3L234.14 358.82L233.38 359.33L232.61 359.81L231.82 360.28L231.02 360.72L230.21 361.15L229.38 361.56L228.55 361.95L227.7 362.32L226.84 362.67L225.96 363L225.08 363.31L224.18 363.6L223.28 363.87L222.36 364.13L221.44 364.36L220.5 364.57L219.56 364.76L218.6 364.93L217.64 365.09L216.66 365.22L215.68 365.33L214.69 365.42L213.7 365.49L212.69 365.55L211.68 365.58L210.66 365.59L208.79 365.56L206.95 365.46L205.13 365.3L203.35 365.07L201.59 364.78L199.86 364.43L198.17 364.01L196.51 363.53L194.89 363L193.3 362.4L191.74 361.75L190.23 361.04L188.75 360.27L187.31 359.45L185.92 358.58L184.56 357.65L183.25 356.67L181.98 355.64L180.76 354.56L179.58 353.43L178.45 352.25L177.37 351.03L176.33 349.76L175.35 348.44L174.42 347.08L173.54 345.68L172.71 344.24L171.94 342.75L171.23 341.23L170.57 339.67L169.97 338.07L169.43 336.43L168.94 334.76L168.52 333.05L168.16 331.31L167.87 329.54L167.63 327.73L167.47 325.89L167.36 324.03L167.33 322.13L167.36 320.23L167.47 318.35L167.63 316.5L167.87 314.69L168.16 312.91L168.52 311.16L168.94 309.45L169.43 307.77L169.97 306.13L170.57 304.53L171.23 302.96L171.94 301.44L172.71 299.95L173.54 298.51L174.42 297.11L175.35 295.75L176.33 294.44L177.37 293.17L178.45 291.95L179.58 290.77L180.76 289.64L181.98 288.57L183.25 287.54L184.56 286.56L185.92 285.63L187.31 284.76L188.75 283.94L190.23 283.18L191.74 282.47L193.3 281.82L194.89 281.22L196.51 280.69L198.17 280.21L199.86 279.79L201.59 279.44L203.35 279.15L205.13 278.92L206.95 278.75L208.79 278.65L210.66 278.62L211.68 278.63L212.69 278.66L213.7 278.71L214.69 278.78L215.68 278.86L216.66 278.97L217.64 279.1L218.6 279.25L219.56 279.42L220.5 279.6L221.44 279.81L221.44 279.81L222.36 280.04ZM620.7 281.4L620.7 281.4L621.92 281.92L623.11 282.5L624.26 283.11L625.38 283.78L626.46 284.49L627.51 285.24L628.51 286.04L629.49 286.88L630.42 287.77L631.31 288.7L632.17 289.68L632.98 290.71L633.75 291.77L634.49 292.89L635.17 294.04L635.82 295.25L636.42 296.49L636.98 297.78L637.49 299.12L637.96 300.5L638.38 301.92L638.76 303.39L639.08 304.9L639.36 306.46L639.59 308.06L639.77 309.71L639.9 311.39L639.97 313.13L639.98 313.46L640 314.9L640 364.98L631.83 364.98L631.83 315.56L631.81 314.13L631.75 312.72L631.66 311.36L631.52 310.02L631.35 308.73L631.15 307.46L630.9 306.24L630.62 305.04L630.3 303.89L629.95 302.77L629.56 301.68L629.14 300.63L629.14 300.63L628.68 299.61L628.18 298.63L627.65 297.69L627.09 296.78L627.09 296.78L626.49 295.91L625.86 295.08L625.86 295.08L625.2 294.28L624.5 293.51L623.77 292.79L623.01 292.09L623.01 292.09L622.22 291.44L621.39 290.82L620.54 290.24L619.65 289.7L618.73 289.19L617.78 288.72L616.8 288.29L615.79 287.89L614.75 287.53L613.68 287.21L612.58 286.93L611.45 286.68L610.29 286.47L609.11 286.3L607.89 286.17L606.65 286.08L605.39 286.02L604.09 286L602.59 286.02L601.12 286.1L599.67 286.22L598.26 286.38L596.89 286.6L595.54 286.86L594.22 287.16L592.94 287.51L591.69 287.91L590.48 288.35L589.3 288.83L588.15 289.35L587.04 289.92L585.96 290.53L584.92 291.18L583.91 291.87L582.94 292.61L582.01 293.38L581.11 294.19L580.25 295.04L579.43 295.93L578.65 296.85L577.91 297.81L577.2 298.81L576.54 299.85L575.91 300.92L575.33 302.02L574.79 303.17L574.28 304.34L573.82 305.55L573.4 306.79L573.03 308.06L572.69 309.36L572.68 309.45L572.4 310.7L572.16 312.07L571.95 313.46L571.8 314.89L571.79 314.9L571.68 316.35L571.67 316.5L571.61 317.83L571.59 319.34L571.59 364.98L563.37 364.98L563.37 279.27L571.25 279.27L571.25 297.82L571.69 296.93L572.16 296.06L572.62 295.25L572.65 295.2L573.16 294.37L573.69 293.55L574.23 292.79L574.25 292.76L574.83 291.98L575.43 291.22L576.02 290.51L576.05 290.48L576.7 289.76L577.36 289.06L577.98 288.46L578.05 288.38L578.76 287.73L579.49 287.09L580.24 286.48L581.01 285.88L581.8 285.31L582.61 284.76L583.45 284.23L584.3 283.72L585.17 283.24L586.06 282.78L586.97 282.34L587.9 281.92L588.85 281.53L589.67 281.22L589.82 281.16L590.8 280.82L591.81 280.5L592.83 280.2L593.87 279.93L594.93 279.69L596.01 279.46L597.1 279.27L597.1 279.27L598.21 279.1L599.34 278.95L600.48 278.83L601.65 278.74L602.82 278.67L604.02 278.63L605.23 278.62L606.78 278.64L608.3 278.71L609.79 278.83L611.26 278.99L612.7 279.19L614.11 279.45L614.11 279.45L615.49 279.75L616.84 280.09L618.16 280.48L619.44 280.92L619.44 280.92L620.7 281.4ZM401.45 279.27L401.45 364.98L393.23 364.98L393.23 279.27L393.23 279.27L401.45 279.27ZM290.61 288.67L291.29 288.02L292 287.38L292.73 286.77L293.48 286.17L294.24 285.6L295.03 285.05L295.84 284.52L296.66 284.01L297.51 283.52L298.37 283.05L299.25 282.61L300.15 282.19L301.07 281.79L302 281.41L302.96 281.06L303.93 280.73L304.92 280.42L305.93 280.14L306.95 279.88L307.99 279.64L309.05 279.43L310.13 279.24L311.22 279.08L312.32 278.94L313.45 278.82L314.59 278.73L315.74 278.67L316.6 278.64L316.91 278.63L318.1 278.62L319.65 278.64L321.17 278.71L322.66 278.83L324.13 278.99L325.57 279.19L325.82 279.24L326.97 279.45L327.69 279.6L328.35 279.75L329.7 280.09L331.02 280.48L332.31 280.92L333.56 281.4L334.78 281.92L335.97 282.5L337.12 283.11L338.24 283.78L339.32 284.49L340.37 285.24L341.38 286.04L342.35 286.88L343.28 287.77L344.17 288.7L345.03 289.68L345.84 290.71L346.61 291.77L347.35 292.89L348.03 294.04L348.68 295.25L349.28 296.49L349.84 297.78L350.35 299.12L350.82 300.5L351.24 301.92L351.62 303.39L351.94 304.9L352.22 306.46L352.45 308.06L352.63 309.71L352.76 311.39L352.76 311.43L352.83 313.13L352.86 314.9L352.86 364.98L344.64 364.98L344.64 315.56L344.62 314.13L344.56 312.72L344.47 311.36L344.33 310.02L344.16 308.73L343.96 307.46L343.71 306.24L343.43 305.04L343.11 303.89L342.76 302.77L342.37 301.68L342.06 300.91L341.95 300.63L341.49 299.61L341 298.63L340.47 297.69L339.94 296.84L339.9 296.78L339.31 295.91L338.75 295.17L338.68 295.08L338.01 294.28L337.32 293.51L336.59 292.79L335.83 292.1L335.83 292.09L335.03 291.44L334.21 290.82L333.35 290.24L332.46 289.7L331.54 289.19L330.59 288.72L329.61 288.29L328.6 287.89L327.56 287.53L326.49 287.21L325.39 286.93L324.26 286.68L323.1 286.47L321.92 286.3L320.71 286.17L319.46 286.08L318.2 286.02L316.9 286L315.4 286.02L313.93 286.1L312.49 286.22L311.08 286.38L309.7 286.6L309.69 286.6L308.36 286.86L307.04 287.16L305.76 287.51L304.51 287.91L303.3 288.34L302.12 288.83L300.97 289.35L299.85 289.92L298.78 290.53L298.53 290.68L297.73 291.18L296.73 291.87L295.76 292.6L295.72 292.63L294.82 293.37L293.92 294.18L293.07 295.03L292.24 295.92L291.46 296.84L290.72 297.81L290.69 297.84L290.01 298.8L289.34 299.84L289.28 299.95L288.72 300.91L288.13 302.02L287.59 303.16L287.08 304.33L286.62 305.54L286.2 306.78L285.82 308.05L285.82 308.06L285.49 309.36L285.47 309.45L285.2 310.69L284.95 312.06L284.75 313.46L284.59 314.89L284.47 316.34L284.4 317.83L284.38 319.34L284.38 364.98L276.24 364.98L276.24 243.15L284.44 243.15L284.44 297.16L284.89 296.3L285.37 295.45L285.86 294.62L286.38 293.81L286.92 293.02L287.48 292.25L288.07 291.49L288.67 290.76L289.3 290.04L289.94 289.35L289.94 289.35L290.61 288.67ZM91.05 300.26L90.93 300.27L90.8 300.28L90.68 300.29L90.55 300.31L90.42 300.32L90.3 300.34L90.17 300.35L90.05 300.37L89.92 300.39L89.8 300.41L89.67 300.43L89.55 300.45L89.42 300.47L89.3 300.49L89.17 300.52L89.05 300.54L89.05 300.54L88.93 300.57L88.8 300.59L88.68 300.62L88.55 300.65L88.43 300.68L88.31 300.7L88.18 300.74L88.06 300.77L87.94 300.8L87.81 300.83L87.69 300.87L87.57 300.9L87.26 301.01L86.95 301.13L86.64 301.25L86.33 301.38L86.03 301.51L85.73 301.64L85.43 301.78L85.14 301.93L84.85 302.08L84.56 302.23L84.27 302.39L83.99 302.56L83.7 302.73L83.43 302.9L83.15 303.08L82.88 303.26L82.61 303.45L82.34 303.64L82.08 303.83L81.82 304.03L81.56 304.24L81.31 304.45L81.06 304.66L80.81 304.87L80.57 305.09L80.33 305.32L80.1 305.55L79.87 305.78L79.64 306.02L79.41 306.26L79.19 306.5L78.98 306.75L78.76 307L78.76 307L78.56 307.25L78.35 307.51L78.15 307.78L77.95 308.04L77.76 308.31L77.57 308.58L77.39 308.86L77.37 308.89L77.34 308.93L77.27 309.03L77.09 309.29L76.97 309.46L76.9 309.56L76.84 309.66L76.76 309.76L76.76 309.76L76.68 309.87L76.6 309.99L76.52 310.11L76.42 310.24L76.33 310.38L76.23 310.52L76.23 310.52L76.13 310.67L76.02 310.82L75.91 310.98L75.79 311.15L75.67 311.32L75.55 311.5L75.54 311.51L75.42 311.68L75.29 311.87L75.15 312.06L75.15 312.07L75.01 312.27L74.86 312.47L74.71 312.69L74.56 312.91L74.4 313.13L74.4 313.13L74.24 313.37L74.07 313.6L73.9 313.85L73.72 314.1L73.54 314.35L73.36 314.61L73.17 314.88L72.98 314.61L72.8 314.35L72.62 314.1L72.44 313.85L72.27 313.6L72.11 313.37L72.02 313.23L71.95 313.13L71.79 312.91L71.63 312.69L71.48 312.47L71.34 312.27L71.2 312.06L71.06 311.87L70.93 311.68L70.8 311.5L70.68 311.32L70.56 311.15L70.44 310.98L70.33 310.82L70.22 310.67L70.12 310.52L70.12 310.52L70.02 310.38L69.92 310.24L69.83 310.11L69.75 309.99L69.67 309.87L69.65 309.84L69.59 309.76L69.45 309.56L69.26 309.29L69.16 309.15L69.12 309.09L69.08 309.03L69.01 308.93L68.98 308.89L68.96 308.86L68.78 308.58L68.59 308.31L68.39 308.04L68.2 307.78L68 307.51L67.79 307.25L67.58 307L67.37 306.75L67.15 306.5L66.93 306.26L66.71 306.02L66.48 305.78L66.25 305.55L66.01 305.32L65.77 305.09L65.53 304.87L65.3 304.67L65.28 304.66L65.03 304.45L64.78 304.24L64.52 304.03L64.26 303.83L64 303.64L63.73 303.45L63.46 303.26L63.19 303.08L62.91 302.9L62.64 302.73L62.36 302.56L62.07 302.39L61.78 302.23L61.49 302.08L61.2 301.93L60.91 301.78L60.61 301.64L60.31 301.51L60.01 301.38L59.7 301.25L59.39 301.13L59.08 301.01L59.08 301.01L58.77 300.9L58.77 300.9L58.65 300.87L58.53 300.83L58.4 300.8L58.28 300.77L58.16 300.74L58.04 300.7L57.91 300.68L57.79 300.65L57.79 300.65L57.67 300.62L57.54 300.59L57.42 300.57L57.29 300.54L57.17 300.52L57.17 300.52L57.05 300.49L56.92 300.47L56.8 300.45L56.67 300.43L56.55 300.41L56.42 300.39L56.3 300.37L56.17 300.35L56.04 300.34L55.92 300.32L55.79 300.31L55.67 300.29L55.54 300.28L55.41 300.27L55.29 300.26L55.16 300.24L55.03 300.24L54.91 300.23L54.78 300.22L54.65 300.21L54.52 300.21L54.4 300.2L54.27 300.2L54.14 300.19L54.01 300.19L53.89 300.19L53.76 300.19L53.2 300.21L52.65 300.24L52.1 300.28L51.55 300.35L51.01 300.42L50.98 300.43L50.47 300.51L49.93 300.62L49.4 300.74L48.88 300.88L48.36 301.03L47.84 301.19L47.33 301.37L46.82 301.56L46.33 301.77L45.83 301.98L45.35 302.22L44.87 302.46L44.4 302.72L43.94 302.99L43.48 303.27L43.03 303.57L42.59 303.88L42.16 304.2L41.74 304.53L41.32 304.87L40.92 305.23L40.52 305.59L40.14 305.97L39.76 306.36L39.4 306.76L39.04 307.17L38.7 307.59L38.36 308.02L38.04 308.46L37.73 308.91L37.44 309.37L37.15 309.84L36.88 310.32L36.62 310.81L36.37 311.31L36.25 311.63L36.13 311.95L36.02 312.27L35.92 312.59L35.82 312.91L35.73 313.24L35.65 313.56L35.58 313.89L35.51 314.22L35.45 314.55L35.4 314.88L35.35 315.21L35.31 315.54L35.28 315.87L35.25 316.2L35.23 316.53L35.22 316.87L35.22 317.2L35.22 317.53L35.23 317.86L35.24 318.2L35.26 318.53L35.29 318.86L35.33 319.19L35.37 319.52L35.42 319.85L35.48 320.18L35.54 320.5L35.62 320.83L35.69 321.15L35.78 321.48L35.87 321.79L35.87 321.8L35.97 322.12L36.07 322.44L36.15 322.64L36.19 322.75L36.3 323.07L36.43 323.38L36.56 323.69L36.7 324L36.85 324.3L37.08 324.79L37.34 325.29L37.64 325.83L37.98 326.38L38.35 326.97L38.75 327.57L39.2 328.2L39.67 328.86L40.18 329.54L40.73 330.25L41.31 330.97L41.92 331.73L42.57 332.51L43.26 333.31L43.98 334.13L44.74 334.99L45.52 335.86L46.35 336.76L47.21 337.68L48.1 338.63L49.03 339.6L49.99 340.6L50.99 341.62L52.02 342.66L53.09 343.73L54.19 344.82L54.57 345.2L55.32 345.94L55.38 345.99L56.49 347.08L57.69 348.24L58.93 349.43L60.2 350.64L61.5 351.87L62.84 353.13L64.21 354.41L65.62 355.72L67.06 357.04L68.53 358.4L68.59 358.45L70.04 359.77L71.58 361.17L73.07 362.52L73.28 362.33L74.73 361.01L76.23 359.63L77.77 358.21L79.35 356.75L79.63 356.49L79.24 356.15L78.4 355.4L77.59 354.68L77.48 354.58L76.51 353.71L75.48 352.78L74.41 351.8L73.31 350.79L72.2 349.75L72.19 349.75L71.14 348.75L71.06 348.68L69.92 347.59L68.8 346.49L67.69 345.38L66.71 344.38L66.61 344.28L65.56 343.19L64.56 342.11L63.62 341.06L62.74 340.04L61.94 339.06L61.23 338.12L61.23 338.11L60.61 337.22L60.09 336.39L59.73 335.7L59.69 335.62L59.54 335.31L59.52 335.26L59.4 335L59.27 334.68L59.15 334.35L59.06 334.08L59.05 334.03L58.95 333.7L58.86 333.37L58.78 333.04L58.71 332.71L58.66 332.37L58.61 332.04L58.58 331.73L58.57 331.7L58.55 331.36L58.53 331.02L58.52 330.7L58.52 330.68L58.53 330.35L58.54 330.01L58.57 329.67L58.6 329.33L58.65 329L58.7 328.66L58.76 328.35L58.77 328.33L58.84 327.99L58.93 327.66L59.03 327.33L59.13 327.01L59.25 326.68L59.38 326.36L59.53 326.04L59.69 325.73L59.86 325.42L60.03 325.12L60.22 324.82L60.41 324.53L60.6 324.24L60.81 323.96L61.02 323.68L61.24 323.42L61.47 323.15L61.7 322.9L61.94 322.65L62.19 322.4L62.44 322.17L62.7 321.94L62.97 321.71L63.24 321.5L63.52 321.29L63.81 321.09L64.1 320.9L64.39 320.71L64.69 320.53L65 320.36L65.31 320.2L65.62 320.05L65.94 319.9L66.27 319.76L66.45 319.68L66.64 319.61L66.82 319.54L67.01 319.47L67.19 319.4L67.38 319.34L67.57 319.27L67.76 319.21L67.95 319.16L68.14 319.11L68.33 319.05L68.52 319.01L68.52 319.01L68.71 318.96L68.71 318.96L68.91 318.92L69.1 318.88L69.29 318.84L69.49 318.81L69.68 318.78L69.88 318.75L70.08 318.73L70.27 318.7L70.47 318.69L70.67 318.67L70.86 318.66L70.86 318.66L71.06 318.65L71.26 318.64L71.46 318.63L71.66 318.63L72.13 318.64L72.19 318.64L72.59 318.66L73.05 318.69L73.51 318.75L73.96 318.82L74.41 318.91L74.86 319.01L75.3 319.13L75.73 319.26L76.16 319.41L76.59 319.58L77 319.76L77.41 319.95L77.81 320.16L78.21 320.39L78.59 320.62L78.97 320.88L79.34 321.14L79.69 321.42L80.04 321.72L80.38 322.02L80.71 322.34L81.02 322.67L81.33 323.02L81.62 323.37L81.9 323.74L82.17 324.12L82.42 324.51L82.61 324.24L82.8 323.98L83.01 323.72L83.21 323.46L83.43 323.21L83.64 322.97L83.87 322.73L84.1 322.49L84.33 322.26L84.57 322.04L84.82 321.83L85.07 321.62L85.32 321.41L85.58 321.21L85.84 321.02L86.11 320.83L86.38 320.65L86.66 320.48L86.94 320.31L87.22 320.15L87.51 319.99L87.8 319.85L88.1 319.71L88.4 319.57L88.7 319.44L89.01 319.32L89.32 319.21L89.63 319.1L89.75 319.07L89.88 319.04L90 319.01L90.13 318.98L90.25 318.95L90.38 318.92L90.51 318.9L90.63 318.87L90.76 318.85L90.88 318.83L91.01 318.8L91.14 318.78L91.26 318.76L91.39 318.75L91.52 318.73L91.64 318.71L91.77 318.7L91.9 318.68L92.02 318.67L92.15 318.66L92.28 318.65L92.4 318.63L92.53 318.63L92.66 318.62L92.78 318.61L92.91 318.6L93.03 318.6L93.16 318.59L93.36 318.59L93.56 318.6L93.75 318.61L93.95 318.62L94.15 318.63L94.35 318.64L94.54 318.66L94.6 318.67L94.74 318.69L94.74 318.69L94.94 318.71L95.13 318.74L95.33 318.77L95.52 318.8L95.72 318.84L95.91 318.88L96.1 318.92L96.3 318.96L96.49 319.01L96.68 319.06L96.87 319.11L97.06 319.17L97.25 319.23L97.44 319.29L97.63 319.36L97.81 319.42L98 319.49L98.18 319.57L98.19 319.57L98.37 319.64L98.55 319.72L98.87 319.86L99.19 320.01L99.51 320.16L99.52 320.16L99.82 320.32L99.89 320.36L100.13 320.49L100.43 320.67L100.72 320.86L101.01 321.05L101.29 321.25L101.57 321.46L101.84 321.67L102.11 321.9L102.37 322.13L102.63 322.36L102.87 322.61L103.11 322.86L103.35 323.11L103.57 323.38L103.8 323.64L104.01 323.92L104.21 324.2L104.41 324.49L104.6 324.78L104.79 325.08L104.96 325.38L105.13 325.69L105.29 326L105.44 326.32L105.57 326.64L105.69 326.97L105.79 327.29L105.89 327.62L105.98 327.95L106.05 328.29L106.12 328.62L106.17 328.95L106.22 329.29L106.23 329.41L106.65 328.85L107.12 328.2L107.57 327.57L107.97 326.96L108.34 326.38L108.68 325.83L108.98 325.29L109.25 324.79L109.48 324.3L109.63 324L109.77 323.69L109.9 323.38L110.03 323.07L110.14 322.75L110.26 322.44L110.36 322.13L110.36 322.12L110.46 321.8L110.55 321.48L110.64 321.15L110.72 320.83L110.79 320.5L110.85 320.18L110.91 319.85L110.96 319.52L111 319.19L111.04 318.86L111.07 318.53L111.08 318.32L111.09 318.2L111.11 317.88L111.11 317.86L111.12 317.53L111.12 317.2L111.12 316.87L111.1 316.53L111.08 316.2L111.06 315.87L111.03 315.54L110.99 315.21L110.94 314.88L110.89 314.55L110.83 314.22L110.76 313.89L110.69 313.56L110.6 313.24L110.52 312.91L110.42 312.59L110.32 312.27L110.21 311.95L110.09 311.63L109.97 311.31L109.73 310.82L109.72 310.81L109.46 310.32L109.19 309.84L108.9 309.37L108.6 308.91L108.29 308.46L107.97 308.02L107.64 307.59L107.29 307.17L106.94 306.76L106.57 306.36L106.2 305.97L105.81 305.59L105.42 305.23L105.01 304.87L104.6 304.53L104.17 304.2L103.74 303.88L103.3 303.57L103.3 303.57L102.85 303.27L102.4 302.99L101.93 302.72L101.46 302.46L100.98 302.22L100.5 301.98L100 301.77L99.51 301.56L99 301.37L98.49 301.19L97.97 301.03L97.45 300.88L96.93 300.74L96.4 300.62L95.86 300.51L95.32 300.42L94.78 300.35L94.23 300.28L93.68 300.24L93.13 300.21L92.57 300.19L92.44 300.19L92.32 300.19L92.19 300.19L92.06 300.2L91.94 300.2L91.81 300.21L91.68 300.21L91.56 300.22L91.43 300.23L91.31 300.24L91.18 300.24L91.18 300.24L91.05 300.26ZM469.04 289.75L467.86 290.38L466.72 291.06L465.61 291.78L464.53 292.54L463.48 293.35L462.47 294.2L461.49 295.09L461.41 295.17L460.55 296.03L459.64 297L459.55 297.11L458.78 298.01L457.95 299.06L457.16 300.15L456.41 301.28L455.71 302.44L455.04 303.64L454.42 304.87L453.85 306.14L453.32 307.44L452.83 308.78L452.39 310.14L452 311.54L451.66 312.97L451.37 314.42L451.13 315.91L450.95 317.43L450.81 318.97L450.73 320.54L450.7 322.13L450.73 323.73L450.81 325.3L450.95 326.84L451.13 328.35L451.37 329.84L451.66 331.3L452.01 332.73L452.39 334.12L452.83 335.49L453.32 336.82L453.85 338.12L454.42 339.39L455.04 340.62L455.71 341.82L456.41 342.99L457.16 344.11L457.95 345.2L458.78 346.25L459.65 347.26L460.55 348.24L460.57 348.25L461.49 349.17L462.47 350.06L463.48 350.91L464.53 351.72L465.61 352.48L466.72 353.2L467.87 353.88L469.04 354.51L470.24 355.09L471.48 355.63L471.48 355.63L472.74 356.12L474.02 356.56L475.34 356.95L476.67 357.29L478.04 357.58L479.42 357.82L480.83 358.01L482.25 358.15L483.7 358.23L485.17 358.26L486.64 358.23L488.09 358.15L489.52 358.01L490.92 357.83L492.31 357.59L493.68 357.29L495.02 356.95L496.33 356.56L497.63 356.12L498.89 355.63L500.13 355.1L501.34 354.52L502.52 353.89L503.67 353.21L504.79 352.49L505.84 351.75L505.87 351.73L506.93 350.92L507.95 350.08L508.89 349.22L508.93 349.19L509.88 348.25L510.79 347.28L511.66 346.27L512.5 345.22L513.29 344.13L514.05 343.01L514.76 341.84L515.4 340.7L515.43 340.65L516.06 339.41L516.64 338.15L517.16 336.89L517.17 336.84L517.65 335.55L517.66 335.51L518.11 334.14L518.5 332.74L518.84 331.31L519.14 329.86L519.38 328.37L519.57 326.85L519.71 325.3L519.79 323.73L519.82 322.13L519.79 320.53L519.71 318.96L519.57 317.41L519.38 315.89L519.14 314.4L518.85 312.94L518.5 311.51L518.11 310.11L517.67 308.75L517.18 307.41L516.64 306.11L516.06 304.84L515.45 303.64L515.44 303.61L514.77 302.41L514.05 301.25L513.3 300.12L512.51 299.03L511.69 298.01L511.67 297.98L510.8 296.97L509.89 296L508.94 295.07L507.95 294.18L506.93 293.33L505.88 292.52L504.8 291.76L503.68 291.04L502.53 290.37L501.35 289.74L500.14 289.16L498.92 288.63L498.9 288.62L497.63 288.13L496.34 287.69L495.04 287.31L495.03 287.3L493.7 286.96L493.68 286.96L492.32 286.67L490.94 286.43L490.93 286.43L489.52 286.24L488.09 286.11L486.64 286.03L485.17 286L483.7 286.03L482.25 286.11L480.82 286.24L479.42 286.43L478.03 286.67L476.67 286.96L475.33 287.31L474.02 287.7L472.73 288.14L471.47 288.63L470.24 289.17L470.24 289.17L469.04 289.75ZM92.18 323.84L92.08 323.86L91.98 323.87L91.88 323.88L91.79 323.9L91.69 323.92L91.59 323.94L91.56 323.94L91.49 323.96L91.39 323.98L91.29 324L91.19 324.02L91.1 324.05L91 324.07L90.75 324.16L90.51 324.26L90.45 324.29L90.28 324.37L90.04 324.48L90.02 324.49L89.81 324.59L89.58 324.72L89.36 324.85L89.14 324.99L89.08 325.03L88.93 325.13L88.72 325.28L88.51 325.43L88.31 325.59L88.12 325.76L87.93 325.93L87.92 325.94L87.74 326.11L87.56 326.3L87.38 326.49L87.21 326.68L87.05 326.88L86.89 327.09L86.74 327.3L86.59 327.51L86.54 327.58L86.49 327.66L86.41 327.76L86.33 327.88L86.23 328.02L86.11 328.18L85.98 328.36L85.84 328.56L85.69 328.78L85.52 329.02L85.49 329.06L85.34 329.27L85.14 329.55L84.93 329.85L84.7 330.16L84.46 330.5L84.36 330.64L84.21 330.85L83.94 331.23L83.66 331.62L83.37 332.03L83.06 332.46L82.74 332.91L82.4 333.38L82.07 332.91L81.75 332.46L81.44 332.03L81.15 331.62L80.87 331.23L80.6 330.85L80.45 330.64L80.35 330.5L80.16 330.23L80.11 330.16L79.89 329.85L79.68 329.55L79.48 329.27L79.3 329.02L79.13 328.78L78.98 328.56L78.83 328.36L78.71 328.18L78.59 328.02L78.49 327.88L78.41 327.76L78.33 327.66L78.28 327.58L78.23 327.51L78.08 327.3L78.02 327.21L77.93 327.09L77.77 326.88L77.6 326.68L77.43 326.49L77.26 326.3L77.08 326.11L76.89 325.93L76.7 325.76L76.5 325.59L76.3 325.43L76.1 325.28L75.89 325.13L75.67 324.99L75.45 324.85L75.23 324.72L75.01 324.59L74.78 324.48L74.54 324.37L74.3 324.26L74.06 324.16L73.82 324.07L73.72 324.05L73.63 324.02L73.6 324.02L73.53 324L73.43 323.98L73.33 323.96L73.23 323.94L73.13 323.92L73.03 323.9L72.94 323.88L72.84 323.87L72.74 323.86L72.64 323.84L72.54 323.83L72.44 323.82L72.34 323.81L72.23 323.8L72.13 323.79L72.03 323.79L71.93 323.78L71.83 323.78L71.73 323.77L71.63 323.77L71.47 323.77L71.32 323.78L71.16 323.79L71.01 323.8L70.86 323.81L70.7 323.83L70.55 323.84L70.39 323.87L70.24 323.89L70.09 323.92L69.94 323.95L69.78 323.98L69.72 324L69.63 324.02L69.48 324.06L69.33 324.1L69.19 324.14L69.04 324.19L68.89 324.24L68.74 324.29L68.6 324.35L68.45 324.4L68.31 324.46L68.06 324.57L67.81 324.68L67.73 324.72L67.57 324.8L67.34 324.93L67.1 325.06L67.08 325.08L66.88 325.2L66.66 325.35L66.44 325.51L66.23 325.68L66.03 325.85L65.83 326.02L65.63 326.21L65.45 326.4L65.27 326.6L65.1 326.8L64.93 327.01L64.77 327.22L64.62 327.44L64.47 327.67L64.33 327.9L64.2 328.13L64.08 328.37L64 328.6L63.92 328.83L63.85 329.06L63.8 329.27L63.8 329.29L63.8 329.29L63.75 329.52L63.71 329.76L63.71 329.76L63.68 329.99L63.66 330.23L63.65 330.46L63.65 330.7L63.65 330.93L63.67 331.17L63.69 331.4L63.69 331.4L63.72 331.64L63.77 331.87L63.82 332.1L63.88 332.33L63.95 332.56L64.02 332.78L64.11 333.01L64.21 333.23L64.31 333.44L64.46 333.74L64.65 334.08L64.89 334.45L65.17 334.87L65.5 335.33L65.88 335.83L66.33 336.39L66.83 336.99L67.4 337.65L67.42 337.67L68.04 338.36L68.75 339.13L69.54 339.96L70.41 340.86L70.44 340.89L71.36 341.81L72.39 342.84L73.52 343.93L74.74 345.1L76.06 346.34L77.48 347.66L79.01 349.06L80.64 350.53L82.39 352.1L84.13 350.54L85.76 349.07L87.28 347.68L88.7 346.37L90.02 345.13L91.24 343.97L92.37 342.88L93.4 341.85L94.36 340.89L95.22 340L96.01 339.16L96.73 338.39L97.37 337.67L97.94 337.01L98.43 336.43L98.45 336.4L98.9 335.84L99.28 335.34L99.57 334.95L99.62 334.87L99.9 334.46L100.14 334.08L100.33 333.74L100.48 333.44L100.58 333.23L100.68 333.01L100.77 332.78L100.84 332.56L100.91 332.33L100.97 332.1L101.02 331.87L101.07 331.64L101.1 331.4L101.12 331.17L101.14 330.93L101.14 330.7L101.14 330.46L101.13 330.23L101.11 329.99L101.08 329.76L101.04 329.52L100.99 329.29L100.94 329.06L100.87 328.83L100.79 328.6L100.71 328.37L100.59 328.13L100.46 327.9L100.46 327.89L100.32 327.66L100.17 327.43L100.03 327.22L100.02 327.21L99.86 326.99L99.69 326.78L99.52 326.58L99.34 326.38L99.16 326.19L98.96 326L98.76 325.82L98.56 325.65L98.35 325.48L98.13 325.32L97.91 325.17L97.69 325.03L97.45 324.89L97.22 324.76L96.98 324.64L96.73 324.53L96.58 324.46L96.48 324.42L96.34 324.36L96.24 324.33L96.19 324.31L96.05 324.25L95.9 324.2L95.75 324.15L95.6 324.1L95.46 324.06L95.31 324.02L95.16 323.98L95.01 323.94L94.85 323.91L94.7 323.88L94.55 323.85L94.4 323.83L94.24 323.8L94.09 323.79L93.93 323.77L93.78 323.76L93.63 323.75L93.47 323.74L93.32 323.73L93.16 323.73L93.19 323.77L93.09 323.77L92.99 323.78L92.89 323.78L92.81 323.79L92.79 323.79L92.69 323.79L92.59 323.8L92.48 323.81L92.38 323.82L92.28 323.83L92.28 323.83L92.18 323.84ZM403.38 260.31L402.75 261.43L401.93 262.41L400.94 263.21L399.8 263.81L398.54 264.19L397.2 264.31L395.88 264.16L394.65 263.77L393.54 263.16L392.57 262.36L391.77 261.38L391.16 260.27L390.77 259.04L390.62 257.73L390.76 256.37L391.15 255.11L391.76 253.99L391.78 253.97L392.6 252.97L393.57 252.17L393.59 252.15L394.73 251.53L396 251.14L397.35 251L398.69 251.15L399.88 251.53L399.93 251.55L401.06 252.17L402.03 253L402.83 253.99L403.43 255.13L403.81 256.37L403.81 256.38L403.93 257.73L403.78 259.06L403.78 259.06L403.38 260.31Z" id="a8Hc0Bcm6z"></path></defs><g><g><g><use xlink:href="#jCoo9x0VS" opacity="1" fill="#ffffff" fill-opacity="1"></use><g><use xlink:href="#jCoo9x0VS" opacity="1" fill-opacity="0" stroke="#000000" stroke-width="1" stroke-opacity="0"></use></g></g><g><use xlink:href="#hkJ8gYkxh" opacity="1" fill="#000000" fill-opacity="0"></use><g><use xlink:href="#hkJ8gYkxh" opacity="1" fill-opacity="0" stroke="#000000" stroke-width="1" stroke-opacity="0"></use></g></g><g><use xlink:href="#b2Gq9vuG5Y" opacity="1" fill="#ffffff" fill-opacity="1"></use><g><use xlink:href="#b2Gq9vuG5Y" opacity="1" fill-opacity="0" stroke="#000000" stroke-width="1" stroke-opacity="0"></use></g></g><g><use xlink:href="#bHIQxO6d5" opacity="1" fill="#000000" fill-opacity="0"></use><g><use xlink:href="#bHIQxO6d5" opacity="1" fill-opacity="0" stroke="#000000" stroke-width="1" stroke-opacity="0"></use></g></g><g><use xlink:href="#b6GGS2VkE" opacity="1" fill="#ffffff" fill-opacity="1"></use><g><use xlink:href="#b6GGS2VkE" opacity="1" fill-opacity="0" stroke="#000000" stroke-width="1" stroke-opacity="0"></use></g></g><g><use xlink:href="#a2Vdzkww3" opacity="1" fill="#000000" fill-opacity="0"></use><g><use xlink:href="#a2Vdzkww3" opacity="1" fill-opacity="0" stroke="#000000" stroke-width="1" stroke-opacity="0"></use></g></g><g><use xlink:href="#cFk54Ml99" opacity="1" fill="#ffffff" fill-opacity="1"></use><g><use xlink:href="#cFk54Ml99" opacity="1" fill-opacity="0" stroke="#000000" stroke-width="1" stroke-opacity="0"></use></g></g><g><use xlink:href="#b5vpXVSWaV" opacity="1" fill="#000000" fill-opacity="0"></use><g><use xlink:href="#b5vpXVSWaV" opacity="1" fill-opacity="0" stroke="#000000" stroke-width="1" stroke-opacity="0"></use></g></g><g><use xlink:href="#a23zNRGIk3" opacity="1" fill="#ffffff" fill-opacity="1"></use><g><use xlink:href="#a23zNRGIk3" opacity="1" fill-opacity="0" stroke="#000000" stroke-width="1" stroke-opacity="0"></use></g></g><g><use xlink:href="#a2ze97gKWs" opacity="1" fill="#000000" fill-opacity="0"></use><g><use xlink:href="#a2ze97gKWs" opacity="1" fill-opacity="0" stroke="#000000" stroke-width="1" stroke-opacity="0"></use></g></g><g><use xlink:href="#a18fzfu1x" opacity="1" fill="#ffffff" fill-opacity="1"></use><g><use xlink:href="#a18fzfu1x" opacity="1" fill-opacity="0" stroke="#000000" stroke-width="1" stroke-opacity="0"></use></g></g><g><use xlink:href="#bjBKdqrzI" opacity="1" fill="#000000" fill-opacity="0"></use><g><use xlink:href="#bjBKdqrzI" opacity="1" fill-opacity="0" stroke="#000000" stroke-width="1" stroke-opacity="0"></use></g></g><g><use xlink:href="#d3hxN1vuPO" opacity="1" fill="#ffffff" fill-opacity="1"></use><g><use xlink:href="#d3hxN1vuPO" opacity="1" fill-opacity="0" stroke="#000000" stroke-width="1" stroke-opacity="0"></use></g></g><g><use xlink:href="#j4mVKDMQe" opacity="1" fill="#000000" fill-opacity="0"></use><g><use xlink:href="#j4mVKDMQe" opacity="1" fill-opacity="0" stroke="#000000" stroke-width="1" stroke-opacity="0"></use></g></g><g><use xlink:href="#aQKAs2osA" opacity="1" fill="#ffffff" fill-opacity="1"></use><g><use xlink:href="#aQKAs2osA" opacity="1" fill-opacity="0" stroke="#000000" stroke-width="1" stroke-opacity="0"></use></g></g><g><use xlink:href="#duDUx2Yyz" opacity="1" fill="#000000" fill-opacity="0"></use><g><use xlink:href="#duDUx2Yyz" opacity="1" fill-opacity="0" stroke="#000000" stroke-width="1" stroke-opacity="0"></use></g></g><g><use xlink:href="#a8Hc0Bcm6z" opacity="1" fill="#ffffff" fill-opacity="1"></use><g><use xlink:href="#a8Hc0Bcm6z" opacity="1" fill-opacity="0" stroke="#000000" stroke-width="1" stroke-opacity="0"></use></g></g></g></g></svg>