<?xml version="1.0" encoding="UTF-8" standalone="no"?>
<!DOCTYPE svg PUBLIC "-//W3C//DTD SVG 1.1//EN" "http://www.w3.org/Graphics/SVG/1.1/DTD/svg11.dtd">
<svg version="1.1" xmlns="http://www.w3.org/2000/svg" xmlns:xlink="http://www.w3.org/1999/xlink" preserveAspectRatio="xMidYMid meet" viewBox="0 0 640 640" width="400" height="400"><defs><path d="M151.99 275.17C151.61 275.45 148.57 277.65 148.19 277.93C144.3 272.49 138.35 269.92 131.66 269.92C119.04 269.92 109.8 278.96 109.8 292.5C109.8 306.05 119.04 315.08 131.66 315.08C138.34 315.08 144.29 312.52 148.19 307.07C148.57 307.34 151.61 309.55 151.99 309.82C147.57 316.25 140.19 319.68 131.67 319.68C115.97 319.72 104.58 308.43 104.58 292.52C104.58 276.52 115.97 265.33 131.67 265.33C140.19 265.33 147.57 268.61 151.99 275.17Z" id="a2BRixztcU"></path><path d="M151.99 275.17C151.61 275.45 148.57 277.65 148.19 277.93C144.3 272.49 138.35 269.92 131.66 269.92C119.04 269.92 109.8 278.96 109.8 292.5C109.8 306.05 119.04 315.08 131.66 315.08C138.34 315.08 144.29 312.52 148.19 307.07C148.57 307.34 151.61 309.55 151.99 309.82C147.57 316.25 140.19 319.68 131.67 319.68C115.97 319.72 104.58 308.43 104.58 292.52C104.58 276.52 115.97 265.33 131.67 265.33C140.19 265.33 147.57 268.61 151.99 275.17Z" id="c1oh80l39K"></path><path d="M215.4 319.3C215.4 300.77 215.4 290.47 215.4 288.42C215.4 276.3 208.98 269.94 198.07 269.94C185.44 269.94 177.74 278.05 177.74 290.78C177.74 292.68 177.74 302.19 177.74 319.3C177.4 319.3 175.71 319.3 172.65 319.3L172.65 243.16C175.73 243.16 177.44 243.16 177.78 243.16C177.78 263.42 177.78 274.67 177.78 276.92C181.45 269.64 188.87 265.33 198.82 265.33C211.82 265.33 220.54 273.02 220.54 288C220.54 292.18 220.54 302.61 220.54 319.3C219.51 319.3 215.92 319.3 215.4 319.3Z" id="b4RkCN9Ip"></path><path d="M215.4 319.3C215.4 300.77 215.4 290.47 215.4 288.42C215.4 276.3 208.98 269.94 198.07 269.94C185.44 269.94 177.74 278.05 177.74 290.78C177.74 292.68 177.74 302.19 177.74 319.3C177.4 319.3 175.71 319.3 172.65 319.3L172.65 243.16C175.73 243.16 177.44 243.16 177.78 243.16C177.78 263.42 177.78 274.67 177.78 276.92C181.45 269.64 188.87 265.33 198.82 265.33C211.82 265.33 220.54 273.02 220.54 288C220.54 292.18 220.54 302.61 220.54 319.3C219.51 319.3 215.92 319.3 215.4 319.3Z" id="h9gaXU1SwG"></path><path d="M252.46 252.27C252.44 254.57 250.56 256.41 248.26 256.39C245.99 256.36 244.17 254.53 244.14 252.27C244.15 249.95 246.03 248.07 248.35 248.07C250.64 248.09 252.49 249.97 252.46 252.27ZM250.91 265.74L250.91 319.3L245.77 319.3L245.77 265.74L250.91 265.74Z" id="a6gXLsujP"></path><path d="M252.46 252.27C252.44 254.57 250.56 256.41 248.26 256.39C245.99 256.36 244.17 254.53 244.14 252.27C244.15 249.95 246.03 248.07 248.35 248.07C250.64 248.09 252.49 249.97 252.46 252.27ZM250.91 265.74L250.91 319.3L245.77 319.3L245.77 265.74L250.91 265.74Z" id="a4Srikwaz0"></path><path d="M281.79 307.09C281.79 309.23 281.79 319.94 281.79 339.23C281.45 339.23 279.74 339.23 276.66 339.23L276.66 265.76C279.62 265.76 281.26 265.76 281.59 265.76C281.59 273.32 281.59 277.52 281.59 278.36C285.8 270.15 293.91 265.33 303.55 265.33C318.67 265.33 330.02 276.52 330.02 292.52C330.02 308.63 318.64 319.72 303.55 319.72C294.11 319.72 286.1 315.12 281.79 307.09ZM281.69 292.52C281.69 305.92 290.93 315.1 303.24 315.1C315.54 315.1 324.89 305.95 324.89 292.52C324.89 279.08 315.56 269.94 303.24 269.94C290.92 269.94 281.69 279.12 281.69 292.52Z" id="n2ojm1KZYO"></path><path d="M281.79 307.09C281.79 309.23 281.79 319.94 281.79 339.23C281.45 339.23 279.74 339.23 276.66 339.23L276.66 265.76C279.62 265.76 281.26 265.76 281.59 265.76C281.59 273.32 281.59 277.52 281.59 278.36C285.8 270.15 293.91 265.33 303.55 265.33C318.67 265.33 330.02 276.52 330.02 292.52C330.02 308.63 318.64 319.72 303.55 319.72C294.11 319.72 286.1 315.12 281.79 307.09ZM281.69 292.52C281.69 305.92 290.93 315.1 303.24 315.1C315.54 315.1 324.89 305.95 324.89 292.52C324.89 279.08 315.56 269.94 303.24 269.94C290.92 269.94 281.69 279.12 281.69 292.52Z" id="anxtZOLej"></path><path d="M394.9 319.3C394.9 300.77 394.9 290.47 394.9 288.42C394.9 276.3 388.47 269.94 377.56 269.94C364.92 269.94 357.25 278.06 357.25 290.78C357.25 292.68 357.25 302.19 357.25 319.3C356.91 319.3 355.19 319.3 352.11 319.3L352.11 265.74C355.07 265.74 356.71 265.74 357.04 265.74C357.04 272.69 357.04 276.56 357.04 277.33C360.63 269.84 368.12 265.33 378.28 265.33C391.28 265.33 400.01 273.02 400.01 288C400.01 292.18 400.01 302.61 400.01 319.3C398.99 319.3 395.41 319.3 394.9 319.3Z" id="aA5c92QsR"></path><path d="M394.9 319.3C394.9 300.77 394.9 290.47 394.9 288.42C394.9 276.3 388.47 269.94 377.56 269.94C364.92 269.94 357.25 278.06 357.25 290.78C357.25 292.68 357.25 302.19 357.25 319.3C356.91 319.3 355.19 319.3 352.11 319.3L352.11 265.74C355.07 265.74 356.71 265.74 357.04 265.74C357.04 272.69 357.04 276.56 357.04 277.33C360.63 269.84 368.12 265.33 378.28 265.33C391.28 265.33 400.01 273.02 400.01 288C400.01 292.18 400.01 302.61 400.01 319.3C398.99 319.3 395.41 319.3 394.9 319.3Z" id="a4dTnqLMI"></path><path d="M58.02 261.53C65.53 261.62 72.35 265.97 75.59 272.75C77.33 277.03 77.17 281.85 75.12 286C70.97 295.09 48.14 315.57 40.64 322.3C40.6 322.34 40.38 322.53 40 322.87C39.62 322.53 39.4 322.34 39.37 322.3C31.86 315.57 9.06 295.09 4.88 286C2.84 281.85 2.67 277.03 4.41 272.75C6.37 268.42 9.9 265 14.29 263.18C16.71 262.09 19.33 261.52 21.99 261.53C23.7 261.53 25.42 261.77 27.07 262.22C30.78 263.27 34.54 266.19 37.37 270.2C37.55 270.45 38.42 271.71 40 273.96C41.58 271.71 42.46 270.47 42.63 270.22C45.46 266.19 49.22 263.27 52.93 262.22C54.59 261.77 56.3 261.53 58.02 261.53M40 268.36C37.03 264.14 32.72 260.48 27.93 259.18C26 258.64 24 258.36 21.99 258.36C18.88 258.36 15.81 259.02 12.98 260.3C7.85 262.43 3.72 266.44 1.45 271.51C-0.63 276.62 -0.45 282.37 1.95 287.34C7.35 299.12 39.83 326.78 40 327.24C40.17 326.78 72.67 299.12 78.07 287.34C80.47 282.37 80.66 276.62 78.58 271.51C76.31 266.42 72.18 262.39 67.04 260.24C64.21 258.97 61.14 258.3 58.03 258.3C56 258.32 54 258.59 52.07 259.13C47.28 260.48 42.97 264.14 40 268.36Z" id="cEad6kTkW"></path><path d="M58.02 261.53C65.53 261.62 72.35 265.97 75.59 272.75C77.33 277.03 77.17 281.85 75.12 286C70.97 295.09 48.14 315.57 40.64 322.3C40.6 322.34 40.38 322.53 40 322.87C39.62 322.53 39.4 322.34 39.37 322.3C31.86 315.57 9.06 295.09 4.88 286C2.84 281.85 2.67 277.03 4.41 272.75C6.37 268.42 9.9 265 14.29 263.18C16.71 262.09 19.33 261.52 21.99 261.53C23.7 261.53 25.42 261.77 27.07 262.22C30.78 263.27 34.54 266.19 37.37 270.2C37.55 270.45 38.42 271.71 40 273.96C41.58 271.71 42.46 270.47 42.63 270.22C45.46 266.19 49.22 263.27 52.93 262.22C54.59 261.77 56.3 261.53 58.02 261.53M40 268.36C37.03 264.14 32.72 260.48 27.93 259.18C26 258.64 24 258.36 21.99 258.36C18.88 258.36 15.81 259.02 12.98 260.3C7.85 262.43 3.72 266.44 1.45 271.51C-0.63 276.62 -0.45 282.37 1.95 287.34C7.35 299.12 39.83 326.78 40 327.24C40.17 326.78 72.67 299.12 78.07 287.34C80.47 282.37 80.66 276.62 78.58 271.51C76.31 266.42 72.18 262.39 67.04 260.24C64.21 258.97 61.14 258.3 58.03 258.3C56 258.32 54 258.59 52.07 259.13C47.28 260.48 42.97 264.14 40 268.36Z" id="axgs1G6Ow"></path><path d="M57.86 278.81C62.51 278.87 66.72 281.57 68.73 285.76C69.79 288.39 69.68 291.34 68.43 293.88C66.65 297.8 59.01 305.82 45.73 317.81C32.46 305.85 24.8 297.8 23.03 293.88C21.78 291.34 21.68 288.39 22.73 285.76C24.74 281.57 28.95 278.87 33.6 278.81C34.67 278.81 35.72 278.96 36.73 279.25C39.35 280.16 41.58 281.91 43.1 284.23C43.28 284.48 44.15 285.74 45.73 287.99C47.32 285.74 48.2 284.48 48.37 284.23C49.88 281.91 52.12 280.16 54.73 279.25C55.75 278.96 56.8 278.81 57.86 278.81M45.73 282.39C43.81 279.47 40.97 277.27 37.65 276.15C34.3 275.2 30.73 275.47 27.55 276.91C24.08 278.35 21.3 281.06 19.77 284.49C18.37 287.94 18.49 291.82 20.1 295.17C23.73 303.14 44.8 321.81 44.9 322.14C45 321.86 67.74 303.17 71.36 295.21C72.99 291.85 73.12 287.95 71.71 284.49C69.18 279.1 63.8 275.65 57.86 275.6C56.5 275.6 55.16 275.79 53.85 276.15C50.52 277.26 47.66 279.46 45.73 282.39Z" id="c186rybnrQ"></path><path d="M57.86 278.81C62.51 278.87 66.72 281.57 68.73 285.76C69.79 288.39 69.68 291.34 68.43 293.88C66.65 297.8 59.01 305.82 45.73 317.81C32.46 305.85 24.8 297.8 23.03 293.88C21.78 291.34 21.68 288.39 22.73 285.76C24.74 281.57 28.95 278.87 33.6 278.81C34.67 278.81 35.72 278.96 36.73 279.25C39.35 280.16 41.58 281.91 43.1 284.23C43.28 284.48 44.15 285.74 45.73 287.99C47.32 285.74 48.2 284.48 48.37 284.23C49.88 281.91 52.12 280.16 54.73 279.25C55.75 278.96 56.8 278.81 57.86 278.81M45.73 282.39C43.81 279.47 40.97 277.27 37.65 276.15C34.3 275.2 30.73 275.47 27.55 276.91C24.08 278.35 21.3 281.06 19.77 284.49C18.37 287.94 18.49 291.82 20.1 295.17C23.73 303.14 44.8 321.81 44.9 322.14C45 321.86 67.74 303.17 71.36 295.21C72.99 291.85 73.12 287.95 71.71 284.49C69.18 279.1 63.8 275.65 57.86 275.6C56.5 275.6 55.16 275.79 53.85 276.15C50.52 277.26 47.66 279.46 45.73 282.39Z" id="a9Le64KJy"></path><path d="M58.23 293.52C58.94 293.52 59.65 293.67 60.3 293.95C61.46 294.42 62.4 295.3 62.95 296.42C63.35 297.45 63.3 298.6 62.8 299.59C62.2 300.88 59.73 303.95 51.5 311.25C43.23 303.9 40.8 300.88 40.2 299.59C39.7 298.6 39.65 297.45 40.05 296.42C40.6 295.31 41.54 294.44 42.7 293.98C43.35 293.7 44.06 293.55 44.77 293.55C45.23 293.55 45.7 293.62 46.14 293.74C47.27 294.14 48.23 294.89 48.9 295.89C49.07 296.13 49.94 297.35 51.5 299.55C53.08 297.35 53.95 296.13 54.12 295.89C54.78 294.89 55.75 294.14 56.88 293.74C57.32 293.62 57.78 293.55 58.25 293.55M51.52 294.01C50.07 291.69 47.52 290.3 44.79 290.34C43.63 290.34 42.48 290.58 41.42 291.04C39.51 291.82 37.97 293.29 37.12 295.17C36.34 297.03 36.41 299.14 37.31 300.95C39.3 305.23 51.43 315.35 51.5 315.53C51.56 315.35 63.7 305.23 65.71 300.92C66.61 299.12 66.68 297 65.9 295.14C65.05 293.27 63.5 291.79 61.6 291.02C60.53 290.55 59.38 290.31 58.23 290.31C57.5 290.34 56.75 290.44 56.02 290.63C54.19 291.23 52.6 292.42 51.52 294.01Z" id="e2xQAIO79v"></path><path d="M58.23 293.52C58.94 293.52 59.65 293.67 60.3 293.95C61.46 294.42 62.4 295.3 62.95 296.42C63.35 297.45 63.3 298.6 62.8 299.59C62.2 300.88 59.73 303.95 51.5 311.25C43.23 303.9 40.8 300.88 40.2 299.59C39.7 298.6 39.65 297.45 40.05 296.42C40.6 295.31 41.54 294.44 42.7 293.98C43.35 293.7 44.06 293.55 44.77 293.55C45.23 293.55 45.7 293.62 46.14 293.74C47.27 294.14 48.23 294.89 48.9 295.89C49.07 296.13 49.94 297.35 51.5 299.55C53.08 297.35 53.95 296.13 54.12 295.89C54.78 294.89 55.75 294.14 56.88 293.74C57.32 293.62 57.78 293.55 58.25 293.55M51.52 294.01C50.07 291.69 47.52 290.3 44.79 290.34C43.63 290.34 42.48 290.58 41.42 291.04C39.51 291.82 37.97 293.29 37.12 295.17C36.34 297.03 36.41 299.14 37.31 300.95C39.3 305.23 51.43 315.35 51.5 315.53C51.56 315.35 63.7 305.23 65.71 300.92C66.61 299.12 66.68 297 65.9 295.14C65.05 293.27 63.5 291.79 61.6 291.02C60.53 290.55 59.38 290.31 58.23 290.31C57.5 290.34 56.75 290.44 56.02 290.63C54.19 291.23 52.6 292.42 51.52 294.01Z" id="c39aXExOl"></path></defs><g><g><g><use xlink:href="#a2BRixztcU" opacity="1" fill="#ffffff" fill-opacity="1"></use><g><use xlink:href="#a2BRixztcU" opacity="1" fill-opacity="0" stroke="#000000" stroke-width="1" stroke-opacity="0"></use></g></g><g><use xlink:href="#c1oh80l39K" opacity="1" fill="#000000" fill-opacity="0"></use><g><use xlink:href="#c1oh80l39K" opacity="1" fill-opacity="0" stroke="#000000" stroke-width="1" stroke-opacity="0"></use></g></g><g><use xlink:href="#b4RkCN9Ip" opacity="1" fill="#ffffff" fill-opacity="1"></use><g><use xlink:href="#b4RkCN9Ip" opacity="1" fill-opacity="0" stroke="#000000" stroke-width="1" stroke-opacity="0"></use></g></g><g><use xlink:href="#h9gaXU1SwG" opacity="1" fill="#000000" fill-opacity="0"></use><g><use xlink:href="#h9gaXU1SwG" opacity="1" fill-opacity="0" stroke="#000000" stroke-width="1" stroke-opacity="0"></use></g></g><g><use xlink:href="#a6gXLsujP" opacity="1" fill="#ffffff" fill-opacity="1"></use><g><use xlink:href="#a6gXLsujP" opacity="1" fill-opacity="0" stroke="#000000" stroke-width="1" stroke-opacity="0"></use></g></g><g><use xlink:href="#a4Srikwaz0" opacity="1" fill="#000000" fill-opacity="0"></use><g><use xlink:href="#a4Srikwaz0" opacity="1" fill-opacity="0" stroke="#000000" stroke-width="1" stroke-opacity="0"></use></g></g><g><use xlink:href="#n2ojm1KZYO" opacity="1" fill="#ffffff" fill-opacity="1"></use><g><use xlink:href="#n2ojm1KZYO" opacity="1" fill-opacity="0" stroke="#000000" stroke-width="1" stroke-opacity="0"></use></g></g><g><use xlink:href="#anxtZOLej" opacity="1" fill="#000000" fill-opacity="0"></use><g><use xlink:href="#anxtZOLej" opacity="1" fill-opacity="0" stroke="#000000" stroke-width="1" stroke-opacity="0"></use></g></g><g><use xlink:href="#aA5c92QsR" opacity="1" fill="#ffffff" fill-opacity="1"></use><g><use xlink:href="#aA5c92QsR" opacity="1" fill-opacity="0" stroke="#000000" stroke-width="1" stroke-opacity="0"></use></g></g><g><use xlink:href="#a4dTnqLMI" opacity="1" fill="#000000" fill-opacity="0"></use><g><use xlink:href="#a4dTnqLMI" opacity="1" fill-opacity="0" stroke="#000000" stroke-width="1" stroke-opacity="0"></use></g></g><g><use xlink:href="#cEad6kTkW" opacity="1" fill="#ffffff" fill-opacity="1"></use><g><use xlink:href="#cEad6kTkW" opacity="1" fill-opacity="0" stroke="#000000" stroke-width="1" stroke-opacity="0"></use></g></g><g><use xlink:href="#axgs1G6Ow" opacity="1" fill="#000000" fill-opacity="0"></use><g><use xlink:href="#axgs1G6Ow" opacity="1" fill-opacity="0" stroke="#000000" stroke-width="1" stroke-opacity="0"></use></g></g><g><use xlink:href="#c186rybnrQ" opacity="1" fill="#ffffff" fill-opacity="1"></use><g><use xlink:href="#c186rybnrQ" opacity="1" fill-opacity="0" stroke="#000000" stroke-width="1" stroke-opacity="0"></use></g></g><g><use xlink:href="#a9Le64KJy" opacity="1" fill="#000000" fill-opacity="0"></use><g><use xlink:href="#a9Le64KJy" opacity="1" fill-opacity="0" stroke="#000000" stroke-width="1" stroke-opacity="0"></use></g></g><g><use xlink:href="#e2xQAIO79v" opacity="1" fill="#ffffff" fill-opacity="1"></use><g><use xlink:href="#e2xQAIO79v" opacity="1" fill-opacity="0" stroke="#000000" stroke-width="1" stroke-opacity="0"></use></g></g><g><use xlink:href="#c39aXExOl" opacity="1" fill="#000000" fill-opacity="0"></use><g><use xlink:href="#c39aXExOl" opacity="1" fill-opacity="0" stroke="#000000" stroke-width="1" stroke-opacity="0"></use></g></g></g></g></svg>