<svg width="459" height="397" xmlns="http://www.w3.org/2000/svg">
 <!-- Created with Method Draw - http://github.com/duopixel/Method-Draw/ -->

 <g>
  <title>Layer 1</title>
  <rect stroke="null" id="svg_25" height="422.00005" width="492" y="-10.00001" x="-11.52511" stroke-opacity="null" stroke-width="2" fill="#ffcc00"/>
  <g id="svg_18">
   <defs stroke-width="2" transform="translate(-144.02511596679688,-104.99999237060547) translate(-221,-110) translate(254,128) translate(-13,20) translate(-54,-44) translate(178,111) ">
    <style stroke-width="2">.cls-1{fill:#231f20;}</style>
   </defs>
   <g transform="matrix(5.27137516028256,0,0,5.27137516028256,0,0) " id="svg_16">
    <g id="svg_17">
     <path stroke-width="2" id="svg_19" d="m63.16523,3.5a21.44,21.44 0 0 1 19.14,12.23a17.63,17.63 0 0 1 -0.51,14.42c-4.52,9.91 -29.38,32.21 -37.55,39.53l-0.7,0.63l-0.69,-0.63c-8.17,-7.32 -33,-29.62 -37.55,-39.53a17.63,17.63 0 0 1 -0.51,-14.42a20.42,20.42 0 0 1 10.76,-10.43a20.4,20.4 0 0 1 8.38,-1.8a20.72,20.72 0 0 1 5.53,0.76c4.05,1.14 8.14,4.3 11.22,8.74l2.86,4l2.87,-4c3.08,-4.44 7.17,-7.6 11.22,-8.74a20.72,20.72 0 0 1 5.53,-0.76m0,-3.5a24,24 0 0 0 -6.48,0.89c-5.21,1.46 -9.9,5.45 -13.14,10c-3.23,-4.6 -7.92,-8.59 -13.14,-10a23.9,23.9 0 0 0 -16.28,1.22a23.71,23.71 0 0 0 -12.56,12.27a21.21,21.21 0 0 0 0.55,17.23c5.88,12.83 41.25,42.95 41.43,43.46c0.19,-0.51 35.58,-30.63 41.43,-43.46a21.18,21.18 0 0 0 0.56,-17.23a23.75,23.75 0 0 0 -12.54,-12.27a23.91,23.91 0 0 0 -9.83,-2.11z" class="cls-1"/>
     <path stroke-width="2" id="svg_20" d="m62.99523,22.33a12.5,12.5 0 0 1 5.17,1.12a12.63,12.63 0 0 1 6.67,6.44a10.88,10.88 0 0 1 -0.33,8.85c-1.93,4.26 -10.25,13.03 -24.71,26.06c-14.46,-13.03 -22.8,-21.8 -24.72,-26.06a10.88,10.88 0 0 1 -0.33,-8.85a12.63,12.63 0 0 1 6.67,-6.44a12.5,12.5 0 0 1 5.17,-1.12a12.7,12.7 0 0 1 3.41,0.47a13.73,13.73 0 0 1 6.93,5.43l2.87,4.1l2.87,-4.1a13.69,13.69 0 0 1 6.93,-5.43a12.7,12.7 0 0 1 3.4,-0.47m0,-3.5a16.38,16.38 0 0 0 -4.36,0.6a17.11,17.11 0 0 0 -8.85,6.79a17.11,17.11 0 0 0 -8.79,-6.79a16.38,16.38 0 0 0 -4.36,-0.6a16,16 0 0 0 -6.64,1.43a16,16 0 0 0 -8.46,8.29a14.37,14.37 0 0 0 0.37,11.64c3.95,8.67 26.89,29 27,29.36c0.09,-0.35 24.85,-20.69 28.79,-29.36a14.34,14.34 0 0 0 0.38,-11.64a16.82,16.82 0 0 0 -15.08,-9.72z" class="cls-1"/>
     <path stroke-width="2" id="svg_21" d="m63.39523,38.35a5.68,5.68 0 0 1 2.26,0.47a5.4,5.4 0 0 1 2.88,2.66a4.19,4.19 0 0 1 -0.16,3.45c-0.66,1.4 -3.34,4.74 -12.31,12.69c-9,-7.95 -11.64,-11.29 -12.3,-12.69a4.19,4.19 0 0 1 -0.16,-3.45a5.37,5.37 0 0 1 2.88,-2.66a5.68,5.68 0 0 1 2.26,-0.47a5.4,5.4 0 0 1 1.49,0.2a6,6 0 0 1 3,2.34l2.84,4l2.85,-4a6,6 0 0 1 3,-2.34a5.4,5.4 0 0 1 1.49,-0.2m0,-3.5a9.35,9.35 0 0 0 -2.42,0.32a9.46,9.46 0 0 0 -4.91,3.68a8.5,8.5 0 0 0 -7.32,-4a9,9 0 0 0 -3.67,0.77a8.79,8.79 0 0 0 -4.69,4.49a7.61,7.61 0 0 0 0.21,6.3c2.17,4.69 15.38,15.71 15.45,15.9c0.07,-0.19 13.29,-11.21 15.48,-15.9a7.61,7.61 0 0 0 0.21,-6.3a8.83,8.83 0 0 0 -4.69,-4.49a9,9 0 0 0 -3.67,-0.77l0.02,0z" class="cls-1"/>
    </g>
   </g>
  </g>
 </g>
</svg>